<?xml version="1.0" standalone="no"?>
<!DOCTYPE svg PUBLIC "-//W3C//DTD SVG 1.1//EN" "http://www.w3.org/Graphics/SVG/1.1/DTD/svg11.dtd" >
<svg xmlns="http://www.w3.org/2000/svg">
<metadata>
Created by FontPrep 20130207 at Mon Nov  3 12:52:56 2014
 By Cos
2005 Albert-Jan Pool published by FSI FontShop International GmbH
</metadata>
<defs>
<font id="b5903bd095f61bee9157f723f08708b0" horiz-adv-x='1024' >
  <font-face 
    font-family="DINPro-Black"
    font-weight="900"
    font-stretch="normal"
    units-per-em="2048"
    panose-1="2 11 10 4 2 1 1 1 1 2"
    ascent="1565"
    descent="-483"
    x-height="1102"
    cap-height="1458"
    bbox="-475 -485 2425 2501"
    underline-thickness="221"
    underline-position="-49"
    unicode-range="U+000D-FB02"
  />
<missing-glyph horiz-adv-x="1185" 
d="M348 221h490v1016h-490v-1016zM127 0v1458h932v-1458h-932z" />
    <glyph glyph-name=".notdef" horiz-adv-x="1185" 
d="M348 221h490v1016h-490v-1016zM127 0v1458h932v-1458h-932z" />
    <glyph glyph-name=".null" horiz-adv-x="0" 
 />
    <glyph glyph-name=".null" horiz-adv-x="0" 
 />
    <glyph glyph-name="nonmarkingreturn" horiz-adv-x="681" 
 />
    <glyph glyph-name="CR" unicode="&#xd;" horiz-adv-x="454" 
 />
    <glyph glyph-name="space" unicode=" " horiz-adv-x="454" 
 />
    <glyph glyph-name="exclam" unicode="!" horiz-adv-x="749" 
d="M588 0h-344v330h344v-330zM627 1458l-90 -973h-242l-90 973h422z" />
    <glyph glyph-name="quotedbl" unicode="&#x22;" horiz-adv-x="999" 
d="M418 979h-301v479h301v-479zM883 979h-301v479h301v-479z" />
    <glyph glyph-name="numbersign" unicode="#" horiz-adv-x="1460" 
d="M838 844h-185l-26 -180h184zM1364 844h-170l-27 -180h119v-318h-170l-55 -346h-356l55 346h-185l-55 -346h-356l55 346h-119v318h170l27 180h-119v317h170l49 314h357l-49 -314h184l49 314h356l-49 -314h119v-317z" />
    <glyph glyph-name="dollar" unicode="$" horiz-adv-x="1296" 
d="M426 1025q0 -42 32 -74t95 -40v242q-63 -12 -95 -49t-32 -79zM856 438q0 57 -29 87t-98 38v-250q127 25 127 125zM1208 460q0 -198 -122 -315t-316 -147v-231h-258v221q-324 10 -502 192l230 230q98 -98 313 -103v271l-80 10q-393 52 -393 422q0 180 116 304t316 150v187
h258v-183q260 -16 416 -172l-225 -225q-74 74 -232 84v-256l84 -12q193 -27 294 -127q101 -102 101 -300z" />
    <glyph glyph-name="percent" unicode="%" horiz-adv-x="1755" 
d="M1425 281v178q1 80 -71 80t-72 -80v-178q0 -80 72 -80t71 80zM473 999v179q0 80 -72 79q-72 0 -71 -79v-179q0 -80 71 -79q72 -1 72 79zM1354 1458l-695 -1458h-258l695 1458h258zM711 991q0 -137 -89 -211q-88 -74 -220 -74t-221 74t-89 211v195q0 137 89 211
q89 73 220 73t221 -73q89 -74 89 -211v-195zM1663 272q0 -137 -89 -211q-89 -73 -220 -73t-220 74t-90 210v195q0 137 90 211t220 74q131 0 220 -74t89 -211v-195z" />
    <glyph glyph-name="ampersand" unicode="&#x26;" horiz-adv-x="1454" 
d="M715 1099q0 41 -24 65t-68 24q-92 0 -93 -88q0 -41 78 -119l49 35q58 41 58 83zM424 444q0 -66 50 -110t126 -43q76 0 137 53l-227 260q-86 -59 -86 -160zM594 -12q-494 0 -494 454q0 211 232 365q-137 155 -137 311t111 254q112 98 310 98t306 -101q109 -101 108 -265
q0 -90 -43 -150t-143 -133l-60 -43l172 -198q55 63 68 211h315q-23 -295 -170 -457l285 -334h-422l-92 106q-51 -39 -85 -59q-33 -19 -103 -39t-158 -20z" />
    <glyph glyph-name="quotesingle" unicode="'" horiz-adv-x="536" 
d="M420 979h-303v479h303v-479z" />
    <glyph glyph-name="parenleft" unicode="(" horiz-adv-x="733" 
d="M147 1124q0 197 53 285q52 89 112 147l96 95l225 -226q-84 -84 -117 -138t-33 -175v-766q0 -121 33 -175t117 -138l-225 -226l-59 59q-45 45 -73 77t-78 113t-51 278v790z" />
    <glyph glyph-name="parenright" unicode=")" horiz-adv-x="733" 
d="M586 334q0 -249 -113 -373q-57 -63 -75 -81l-38 -38q-29 -29 -34 -35l-226 226q84 84 117 138t33 175v766q0 121 -33 175t-117 138l226 226q6 -6 34 -35t38 -38q82 -82 134 -169q53 -88 54 -285v-790z" />
    <glyph glyph-name="asterisk" unicode="*" horiz-adv-x="1036" 
d="M940 928l-115 -199l-202 131l10 -242h-230l11 242l-203 -131l-115 199l215 110l-215 111l115 199l203 -131l-11 241h230l-10 -241l202 131l115 -199l-215 -111z" />
    <glyph glyph-name="plus" unicode="+" 
d="M1038 422h-311v-311h-315v311h-312v315h312v312h315v-312h311v-315z" />
    <glyph glyph-name="comma" unicode="," horiz-adv-x="589" 
d="M117 356h356v-458l-356 -263v721z" />
    <glyph glyph-name="hyphen" unicode="-" horiz-adv-x="872" 
d="M772 446h-672v316h672v-316z" />
    <glyph glyph-name="period" unicode="." horiz-adv-x="602" 
d="M485 0h-368v369h368v-369z" />
    <glyph glyph-name="slash" unicode="/" horiz-adv-x="882" 
d="M895 1610l-584 -1762h-311l584 1762h311z" />
    <glyph glyph-name="zero" unicode="0" 
d="M702 440v576q0 74 -38 112t-94 39q-58 0 -96 -39t-38 -112v-576q0 -74 38 -112t95 -37q57 -1 95 37t38 112zM1038 442q0 -214 -137 -334t-332 -120t-331 120t-138 334v574q0 215 138 335q138 119 332 119t331 -120t137 -334v-574z" />
    <glyph glyph-name="one" unicode="1" 
d="M831 0h-335v1100l-312 -271v359l312 270h335v-1458z" />
    <glyph glyph-name="two" unicode="2" 
d="M1047 0h-938v303l528 574q74 80 74 148t-34 105t-93 37t-100 -32q-40 -33 -40 -109h-335q0 207 136 326q136 118 339 118q202 0 332 -118t131 -322q0 -106 -41 -180t-140 -178l-348 -369h529v-303z" />
    <glyph glyph-name="three" unicode="3" 
d="M1057 428q0 -209 -139 -325t-347 -115q-278 0 -412 194q-73 106 -73 262h336q0 -74 42 -114t108 -39q66 0 108 40q41 41 41 111t-44 114t-112 44h-47v291h47q70 0 105 41q35 42 35 102t-39 96q-38 36 -94 37q-56 0 -95 -37t-39 -100h-336q0 201 134 321q134 119 336 119
t335 -122t133 -310t-151 -284q168 -117 168 -326z" />
    <glyph glyph-name="four" unicode="4" 
d="M1085 193h-108v-193h-320v193h-604v319l484 946h368l-483 -946h235v193h320v-193h108v-319z" />
    <glyph glyph-name="five" unicode="5" 
d="M1049 490q0 -130 -29 -214t-107 -163q-125 -125 -341 -125t-343 127q-49 49 -77 110q-29 61 -36 107t-14 112h336q16 -154 137 -153q57 0 97 40t41 161q0 120 -35 166q-34 46 -86 46t-86 -13q-34 -14 -53 -57q-6 -13 -15 -34h-309v858h889v-303h-584v-225q74 57 197 57
q180 0 282 -102q82 -82 109 -174t27 -221z" />
    <glyph glyph-name="six" unicode="6" 
d="M713 457q0 78 -43 122q-42 44 -106 44t-107 -44t-43 -122t43 -122t106 -44t107 44q43 44 43 122zM659 897q147 -1 269 -119t121 -331q1 -213 -139 -336t-347 -123t-346 123t-139 346q0 143 127 399l293 602h368l-288 -571q29 10 81 10z" />
    <glyph glyph-name="seven" unicode="7" 
d="M389 1155v-229h-319v532h999v-303l-455 -1155h-368l454 1155h-311z" />
    <glyph glyph-name="eight" unicode="8" 
d="M709 1028q0 57 -41 98q-40 41 -98 41t-99 -41t-41 -98t41 -98t98 -41t99 41q41 41 41 98zM723 444q0 62 -45 108q-44 46 -108 46t-109 -45t-45 -109t45 -108q45 -45 108 -45t109 45q45 45 45 108zM1059 436q0 -217 -138 -333q-137 -115 -351 -115t-352 116t-138 332
q0 84 34 155t60 97t70 62q-150 125 -150 288q0 199 139 316q139 116 336 116t336 -116t139 -316q0 -164 -149 -288q43 -35 70 -62q27 -28 61 -98t33 -154z" />
    <glyph glyph-name="nine" unicode="9" 
d="M725 1001q0 78 -43 122q-42 44 -106 44t-107 -44t-43 -122q0 -77 43 -121t106 -44t107 44t43 121zM1061 1001q0 -88 -29 -171t-98 -226l-293 -604h-369l289 571q-29 -10 -82 -10q-147 0 -268 119q-121 120 -121 332t139 336t346 122q207 0 347 -122q139 -124 139 -347z
" />
    <glyph glyph-name="colon" unicode=":" horiz-adv-x="649" 
d="M532 0h-368v369h368v-369zM532 518h-368v369h368v-369z" />
    <glyph glyph-name="semicolon" unicode=";" horiz-adv-x="649" 
d="M532 518h-368v369h368v-369zM170 356h356v-458l-356 -263v721z" />
    <glyph glyph-name="less" unicode="&#x3c;" 
d="M1030 53l-921 406v291l921 405v-354l-481 -197l481 -196v-355z" />
    <glyph glyph-name="equal" unicode="=" 
d="M1038 197h-938v315h938v-315zM1038 696h-938v316h938v-316z" />
    <glyph glyph-name="greater" unicode="&#x3e;" 
d="M1030 459l-921 -406v355l481 196l-481 197v354l921 -405v-291z" />
    <glyph glyph-name="question" unicode="?" horiz-adv-x="1101" 
d="M762 0h-344v330h344v-330zM1040 1040q0 -127 -104 -262l-141 -178q-37 -45 -37 -96v-19h-336v47q0 129 84 228l143 168q55 63 55 116q0 52 -31 88q-32 36 -91 35q-123 0 -123 -129h-336q0 201 132 317q132 115 326 115q195 0 327 -114t132 -316z" />
    <glyph glyph-name="at" unicode="@" horiz-adv-x="1605" 
d="M1186 463q0 106 -30 151t-93 45t-93 -45t-30 -151q0 -105 30 -151t93 -46t93 46t30 151zM680 1167q-262 0 -260 -260v-536q0 -61 16 -99t58 -77l-232 -232q-88 88 -125 171t-37 216v570q0 147 29 246t102 173t175 103t251 28h291q146 0 248 -28t177 -102q75 -75 104 -174
t28 -246v-920h-309v82q-98 -94 -240 -94t-237 90q-66 61 -82 143t-16 242q0 161 16 241t82 144q95 90 237 90t230 -84v53q0 129 -66 195t-194 65h-246z" />
    <glyph glyph-name="A" unicode="A" horiz-adv-x="1337" 
d="M801 516l-123 389l-131 -389h254zM1337 0h-374l-68 217h-449l-71 -217h-375l530 1458h277z" />
    <glyph glyph-name="B" unicode="B" horiz-adv-x="1337" 
d="M858 1018q0 49 -31 84t-98 35h-223v-238h223q69 0 99 35t30 84zM879 451q0 53 -32 90t-99 37h-242v-256h242q68 0 100 38t31 91zM1237 430q0 -202 -127 -316t-328 -114h-635v1458h605q223 0 344 -115t121 -301t-160 -294q65 -40 104 -86q76 -90 76 -232z" />
    <glyph glyph-name="C" unicode="C" horiz-adv-x="1247" 
d="M640 -12q-231 0 -390 159q-110 110 -130 252q-20 141 -20 295t3 213t15 143q22 149 132 261q160 159 390 159t379 -120q148 -121 187 -355h-364q-43 156 -187 156q-94 0 -141 -61q-29 -37 -42 -108t-13 -253t13 -253t42 -107q47 -61 141 -62q143 0 187 156h364
q-39 -233 -187 -354t-379 -121z" />
    <glyph glyph-name="D" unicode="D" horiz-adv-x="1333" 
d="M874 729q0 175 -8 235q-23 174 -202 175h-158v-820h158q117 0 172 82q22 33 30 93t8 235zM1233 729q0 -217 -11 -310t-61 -173q-152 -246 -473 -246h-541v1458h541q322 0 473 -246q49 -80 61 -173t11 -310z" />
    <glyph glyph-name="E" unicode="E" horiz-adv-x="1245" 
d="M1139 0h-992v1458h992v-319h-633v-244h541v-320h-541v-256h633v-319z" />
    <glyph glyph-name="F" unicode="F" horiz-adv-x="1220" 
d="M1139 1139h-633v-256h541v-320h-541v-563h-359v1458h992v-319z" />
    <glyph glyph-name="G" unicode="G" horiz-adv-x="1325" 
d="M1225 637q0 -180 -33 -291t-115 -194q-158 -164 -413 -164t-414 159q-110 110 -130 252q-20 141 -20 295t3 213t15 143q22 149 132 261q160 159 412 159t390 -139q140 -139 171 -344h-361q-23 86 -70 125q-48 39 -140 39q-152 0 -181 -169q-12 -69 -12 -253t12 -254
t41 -106q47 -61 147 -61q101 0 155 56t54 156v21h-215v299h572v-203z" />
    <glyph glyph-name="H" unicode="H" horiz-adv-x="1392" 
d="M1245 0h-358v578h-381v-578h-359v1458h359v-561h381v561h358v-1458z" />
    <glyph glyph-name="I" unicode="I" horiz-adv-x="653" 
d="M506 0h-359v1458h359v-1458z" />
    <glyph glyph-name="J" unicode="J" horiz-adv-x="1056" 
d="M930 500q0 -244 -163 -378t-386 -134q-129 0 -219 36t-178 123l235 234q74 -74 162 -74t139 50t51 151v950h359v-958z" />
    <glyph glyph-name="K" unicode="K" horiz-adv-x="1378" 
d="M502 0h-355v1458h355v-516l422 516h438l-498 -590l514 -868h-417l-336 598l-123 -141v-457z" />
    <glyph glyph-name="L" unicode="L" horiz-adv-x="1179" 
d="M1118 0h-971v1458h359v-1139h612v-319z" />
    <glyph glyph-name="M" unicode="M" horiz-adv-x="1654" 
d="M1507 0h-358v698l-207 -360h-229l-207 360v-698h-359v1458h353l327 -643l328 643h352v-1458z" />
    <glyph glyph-name="N" unicode="N" horiz-adv-x="1433" 
d="M1286 0h-313l-467 733v-733h-359v1458h314l467 -733v733h358v-1458z" />
    <glyph glyph-name="O" unicode="O" horiz-adv-x="1310" 
d="M852 729q0 184 -12 253q-29 167 -184 168t-185 -168q-12 -69 -12 -253t12 -252q30 -170 184 -170t185 170q12 68 12 252zM100 694q0 154 3 213t15 143q22 149 132 261q160 159 406 159t405 -159q110 -110 129 -248q20 -137 20 -295t-3 -217q-10 -195 -51 -272
q-42 -78 -95 -132q-160 -159 -406 -159t-405 159q-110 110 -130 252q-20 141 -20 295z" />
    <glyph glyph-name="P" unicode="P" horiz-adv-x="1284" 
d="M864 989q0 59 -43 103t-112 45h-203v-295h203q71 0 113 44t42 103zM1223 989q0 -193 -133 -331t-365 -138h-219v-520h-359v1458h578q231 0 365 -138t133 -331z" />
    <glyph glyph-name="Q" unicode="Q" horiz-adv-x="1310" 
d="M852 762q0 150 -12 220q-29 167 -184 168t-185 -168q-12 -69 -12 -253t12 -252q30 -170 184 -170q18 0 29 2l-92 92l182 183l70 -70q8 98 8 248zM1210 723q0 -125 -3 -191q-8 -187 -81 -303l107 -104l-182 -182l-113 110q-119 -66 -283 -65q-246 0 -405 159
q-110 110 -130 252q-20 141 -20 295t3 213t15 143q22 149 132 261q160 159 406 159t405 -159q53 -53 101 -142q48 -90 48 -446z" />
    <glyph glyph-name="R" unicode="R" horiz-adv-x="1335" 
d="M864 989q0 59 -43 103t-112 45h-203v-295h203q71 0 113 44t42 103zM506 543v-543h-359v1458h578q231 0 365 -138t133 -331q0 -137 -70 -234t-168 -147l315 -608h-415l-258 543h-121z" />
    <glyph glyph-name="S" unicode="S" horiz-adv-x="1214" 
d="M1126 445q0 -213 -160 -335t-403 -122q-180 0 -314 42t-239 150l230 230q102 -102 318 -102t216 130q0 55 -29 86q-31 31 -96 39l-176 25q-195 29 -294 130t-99 298q0 198 144 326t388 128q317 0 492 -174l-225 -225q-53 53 -115 69t-156 17q-92 0 -137 -41t-45 -87
t32 -78t97 -40l176 -24q193 -27 294 -127t101 -315z" />
    <glyph glyph-name="T" unicode="T" horiz-adv-x="1198" 
d="M1137 1139h-359v-1139h-358v1139h-359v319h1076v-319z" />
    <glyph glyph-name="U" unicode="U" horiz-adv-x="1351" 
d="M1229 512q0 -232 -161 -378t-394 -146t-392 145t-159 379v946h358v-938q0 -100 51 -156q52 -56 142 -56t143 56t53 156v938h359v-946z" />
    <glyph glyph-name="V" unicode="V" horiz-adv-x="1230" 
d="M1231 1458l-483 -1458h-267l-481 1458h371l245 -815l242 815h373z" />
    <glyph glyph-name="W" unicode="W" horiz-adv-x="1855" 
d="M1855 1458l-399 -1458h-293l-235 719l-236 -719h-291l-401 1458h375l190 -770l236 770h254l235 -770l191 770h374z" />
    <glyph glyph-name="X" unicode="X" horiz-adv-x="1298" 
d="M1298 0h-409l-240 449l-239 -449h-410l455 748l-426 710h407l213 -411l213 411h408l-426 -710z" />
    <glyph glyph-name="Y" unicode="Y" horiz-adv-x="1239" 
d="M799 0h-359v594l-440 864h391l230 -524l227 524h391l-440 -864v-594z" />
    <glyph glyph-name="Z" unicode="Z" horiz-adv-x="1112" 
d="M1051 0h-990v279l560 860h-535v319h965v-278l-562 -861h562v-319z" />
    <glyph glyph-name="bracketleft" unicode="[" horiz-adv-x="851" 
d="M770 -152h-623v1762h623v-303h-287v-1155h287v-304z" />
    <glyph glyph-name="backslash" unicode="\" horiz-adv-x="882" 
d="M883 -152h-312l-571 1725h311z" />
    <glyph glyph-name="bracketright" unicode="]" horiz-adv-x="851" 
d="M705 -152h-623v304h287v1155h-287v303h623v-1762z" />
    <glyph glyph-name="asciicircum" unicode="^" horiz-adv-x="1310" 
d="M1194 768h-354l-185 338l-184 -338h-354l383 707h311z" />
    <glyph glyph-name="underscore" unicode="_" horiz-adv-x="1310" 
d="M1311 -381h-1311v221h1311v-221z" />
    <glyph glyph-name="grave" unicode="`" horiz-adv-x="1024" 
d="M698 1249h-239l-207 369h313z" />
    <glyph glyph-name="a" unicode="a" horiz-adv-x="1097" 
d="M377 352q-1 -90 129 -90q68 0 108 36t39 116v28h-159q-117 0 -117 -90zM989 0h-327v90q-54 -53 -108 -77t-138 -23q-166 0 -263 97t-97 245t96 241q96 92 284 93h217v28q0 74 -39 106t-131 32t-170 -78l-209 209q84 83 172 117t228 34q485 0 485 -399v-715z" />
    <glyph glyph-name="b" unicode="b" horiz-adv-x="1165" 
d="M741 551q0 137 -26 199q-27 61 -113 61t-113 -61q-27 -60 -27 -198t27 -200q27 -61 113 -61t113 61q26 62 26 199zM1077 551q0 -121 -4 -187t-29 -146q-71 -230 -337 -230q-152 0 -254 102v-90h-326v1458h336v-436q92 92 253 92t257 -100q47 -49 71 -130q24 -80 29 -146
q4 -66 4 -187z" />
    <glyph glyph-name="c" unicode="c" horiz-adv-x="972" 
d="M414 551q0 -260 159 -260q70 0 136 65l227 -227q-141 -141 -363 -141q-144 0 -235 48q-92 48 -142 107t-84 165t-34 242q0 138 34 244t85 164q135 156 366 156t373 -141l-227 -228q-66 66 -136 66q-159 0 -159 -260z" />
    <glyph glyph-name="d" unicode="d" horiz-adv-x="1165" 
d="M702 551q0 137 -26 199q-27 61 -113 61q-87 0 -113 -61q-26 -60 -26 -198t27 -200t113 -61q86 0 112 61q26 62 26 199zM1038 0h-325v90q-102 -102 -263 -102t-257 100q-47 49 -72 130t-29 147q-4 67 -4 187t4 186t29 146q25 81 72 130q96 100 257 100t252 -92v436h336
v-1458z" />
    <glyph glyph-name="e" unicode="e" horiz-adv-x="1144" 
d="M735 666q0 47 -18 86q-39 86 -145 86t-146 -86q-18 -39 -18 -86h327zM1067 442h-659q0 -72 52 -122t138 -50t134 22t97 70l201 -200q-90 -90 -186 -132t-242 -42q-524 0 -524 563q0 264 136 414q136 149 363 149t359 -148t131 -384v-140z" />
    <glyph glyph-name="f" unicode="f" horiz-adv-x="733" 
d="M682 801h-184v-801h-336v801h-101v258h101v96q0 129 86 227t256 99h178v-283h-117q-68 0 -67 -68v-71h184v-258z" />
    <glyph glyph-name="g" unicode="g" horiz-adv-x="1148" 
d="M442 741q-18 -52 -18 -126t3 -106t15 -67t40 -52t73 -17q89 0 113 69q18 52 18 150t-15 141q-27 78 -116 78q-90 0 -113 -70zM1022 80q0 -197 -137 -323t-361 -126q-137 0 -235 32t-178 112l208 209q69 -70 177 -70t149 51t41 117v80q-92 -92 -244 -92t-252 98
q-70 70 -86 158t-16 266t16 266t86 158q98 98 251 98t255 -102v90h326v-1022z" />
    <glyph glyph-name="h" unicode="h" horiz-adv-x="1185" 
d="M1069 0h-336v659q0 84 -43 118t-92 34t-92 -34t-43 -118v-659h-336v1458h336v-446q98 102 250 102t245 -94q111 -111 111 -315v-705z" />
    <glyph glyph-name="i" unicode="i" horiz-adv-x="589" 
d="M463 1214h-336v256h336v-256zM463 0h-336v1059h336v-1059z" />
    <glyph glyph-name="j" unicode="j" horiz-adv-x="589" 
d="M463 1214h-336v256h336v-256zM463 -43q0 -129 -86 -227t-256 -99h-178v283h116q68 0 68 68v1077h336v-1102z" />
    <glyph glyph-name="k" unicode="k" horiz-adv-x="1173" 
d="M463 0h-336v1458h336v-741l297 385h403l-405 -457l416 -645h-416l-230 403l-65 -71v-332z" />
    <glyph glyph-name="l" unicode="l" horiz-adv-x="698" 
d="M637 0h-178q-170 0 -256 98t-86 228v1132h336v-1108q0 -68 67 -67h117v-283z" />
    <glyph glyph-name="m" unicode="m" horiz-adv-x="1792" 
d="M1675 0h-336v659q0 84 -43 118t-92 34t-92 -34t-43 -118v-659h-336v659q0 84 -43 118t-92 34t-92 -34t-43 -118v-659h-336v1102h328v-90q102 102 262 102t262 -117q133 117 307 117t268 -94q121 -121 121 -315v-705z" />
    <glyph glyph-name="n" unicode="n" horiz-adv-x="1185" 
d="M1069 0h-336v659q0 84 -43 118t-92 34t-92 -34t-43 -118v-659h-336v1102h328v-90q102 102 256 102t247 -94q111 -111 111 -315v-705z" />
    <glyph glyph-name="o" unicode="o" horiz-adv-x="1126" 
d="M702 551q0 180 -49 229q-31 31 -90 31t-90 -31q-49 -49 -49 -229t49 -229q31 -31 90 -31t90 31q49 49 49 229zM1038 550q0 -163 -26 -254t-94 -167q-132 -141 -354 -141t-355 141q-70 76 -95 167q-26 91 -26 254t27 256t94 167q133 141 354 141t355 -141q68 -74 94 -167
t26 -256z" />
    <glyph glyph-name="p" unicode="p" horiz-adv-x="1165" 
d="M741 551q0 137 -26 199q-27 61 -113 61t-113 -61q-27 -60 -27 -198t27 -200q27 -61 113 -61t113 61q26 62 26 199zM1077 551q0 -121 -4 -187t-29 -146q-71 -230 -335 -230q-154 0 -246 92v-436h-336v1458h326v-90q102 102 263 102t257 -100q47 -49 71 -130
q24 -80 29 -146q4 -66 4 -187z" />
    <glyph glyph-name="q" unicode="q" horiz-adv-x="1165" 
d="M702 551q0 137 -26 199q-27 61 -113 61q-87 0 -113 -61q-26 -60 -26 -198t27 -200t113 -61q86 0 112 61q26 62 26 199zM1038 -356h-336v436q-92 -92 -252 -92t-257 100q-47 49 -72 130t-29 147q-4 67 -4 187t4 186t29 146q71 230 338 230q152 0 254 -102v90h325v-1458z
" />
    <glyph glyph-name="r" unicode="r" horiz-adv-x="972" 
d="M606 811q-56 0 -99 -35q-44 -35 -44 -117v-659h-336v1102h328v-90q102 102 259 102t259 -102l-254 -258q-57 57 -113 57z" />
    <glyph glyph-name="s" unicode="s" horiz-adv-x="1032" 
d="M977 360q0 -184 -135 -278t-342 -94q-102 0 -168 7t-153 44t-159 108l218 218q92 -92 268 -93q51 0 97 16t46 56q0 61 -80 70l-170 16q-319 31 -319 320q0 172 130 268t308 96q299 0 434 -135l-207 -207q-66 66 -233 66q-55 0 -82 -20t-27 -44q0 -53 72 -61l170 -17
q166 -16 249 -106t83 -230z" />
    <glyph glyph-name="t" unicode="t" horiz-adv-x="743" 
d="M662 0h-168q-170 0 -256 98t-86 228v475h-101v258h101v315h335v-315h175v-258h-175v-451q0 -68 68 -67h107v-283z" />
    <glyph glyph-name="u" unicode="u" horiz-adv-x="1185" 
d="M1059 0h-328v90q-102 -102 -256 -102q-155 0 -257 102t-101 307v705h336v-660q0 -84 43 -118t92 -33q49 0 92 34t43 117v660h336v-1102z" />
    <glyph glyph-name="v" unicode="v" horiz-adv-x="1067" 
d="M1067 1102l-405 -1102h-256l-406 1102h352l183 -572l180 572h352z" />
    <glyph glyph-name="w" unicode="w" horiz-adv-x="1597" 
d="M1597 1102l-331 -1102h-269l-198 604l-199 -604h-268l-332 1102h354l138 -572l190 572h233l191 -572l137 572h354z" />
    <glyph glyph-name="x" unicode="x" 
d="M1139 0h-404l-168 279l-164 -279h-403l383 563l-369 539h404l149 -266l154 266h403l-368 -539z" />
    <glyph glyph-name="y" unicode="y" horiz-adv-x="1052" 
d="M152 -369v303h71q47 0 72 16t41 66l31 93l-367 993h352l187 -572l178 572h352l-457 -1233q-33 -92 -86 -145q-86 -92 -247 -93h-127z" />
    <glyph glyph-name="z" unicode="z" horiz-adv-x="1001" 
d="M920 0h-859v248l420 551h-395v303h834v-248l-428 -551h428v-303z" />
    <glyph glyph-name="braceleft" unicode="{" horiz-adv-x="1060" 
d="M979 -152h-287q-158 0 -250 92t-92 234v244q0 88 -36 124t-113 36h-119v303h119q77 0 113 36t36 123v244q0 142 92 234t250 92h287v-303h-143q-88 0 -119 -31t-31 -129v-213q0 -166 -149 -205q150 -39 149 -205v-213q0 -98 31 -129t119 -30h143v-304z" />
    <glyph glyph-name="bar" unicode="|" horiz-adv-x="745" 
d="M541 -152h-336v1762h336v-1762z" />
    <glyph glyph-name="braceright" unicode="}" horiz-adv-x="1060" 
d="M979 578h-119q-78 0 -114 -36t-35 -124v-244q-1 -142 -93 -234t-249 -92h-287v304h143q88 0 119 30t31 129v213q0 166 149 205q-150 39 -149 205v213q0 98 -31 129t-119 31h-143v303h287q157 0 249 -92t93 -234v-244q-1 -88 35 -124t114 -35h119v-303z" />
    <glyph glyph-name="asciitilde" unicode="~" horiz-adv-x="1323" 
d="M864 383q-118 1 -222 61t-193 60q-90 0 -175 -84l-213 213q103 104 189 150t204 46t222 -60t194 -60t174 84l218 -213q-104 -104 -192 -150t-206 -47z" />
    <glyph glyph-name="uni00A0" unicode="&#xa0;" horiz-adv-x="454" 
 />
    <glyph glyph-name="exclamdown" unicode="&#xa1;" horiz-adv-x="749" 
d="M506 772h-344v330h344v-330zM545 -356h-422l90 972h242z" />
    <glyph glyph-name="cent" unicode="&#xa2;" horiz-adv-x="1021" 
d="M475 967q-61 -66 -61 -235t86 -220v475q-16 -12 -25 -20zM717 0h-258v201q-168 39 -275 177q-106 138 -106 372t106 371q106 138 275 177v160h258v-160q147 -35 268 -155l-219 -219q-51 51 -90 67v-483q39 16 90 67l219 -219q-121 -121 -268 -155v-201z" />
    <glyph glyph-name="sterling" unicode="&#xa3;" horiz-adv-x="1222" 
d="M1141 0h-946v569h-123v258h123v131q0 244 162 378q163 134 386 134q129 0 219 -36t179 -123l-236 -234q-74 74 -162 74t-139 -50t-51 -151v-123h190v-258h-190v-250h588v-319z" />
    <glyph glyph-name="currency" unicode="&#xa4;" horiz-adv-x="1380" 
d="M885 604q1 80 -57 137t-138 57t-137 -56q-57 -58 -57 -138t57 -137t137 -57t138 57t57 137zM193 604q0 110 53 221l-150 150l223 223l150 -149q111 53 221 53t221 -53l150 149l223 -223l-149 -150q53 -111 53 -221t-53 -221l149 -150l-223 -223l-150 150
q-224 -107 -442 0l-150 -150l-223 223l150 150q-53 111 -53 221z" />
    <glyph glyph-name="yen" unicode="&#xa5;" horiz-adv-x="1239" 
d="M1106 954v-258h-256l-51 -102v-102h307v-259h-307v-233h-359v233h-307v259h307v102l-51 102h-256v258h123l-256 504h391l230 -524l227 524h391l-256 -504h123z" />
    <glyph glyph-name="brokenbar" unicode="&#xa6;" horiz-adv-x="745" 
d="M541 -152h-336v717h336v-717zM541 893h-336v717h336v-717z" />
    <glyph glyph-name="section" unicode="&#xa7;" horiz-adv-x="1056" 
d="M653 571q0 72 -36 104t-85 32q-48 0 -84 -32t-36 -104q0 -71 36 -103t84 -32t85 32q36 32 36 103zM973 584q0 -94 -53 -170t-113 -117q145 -88 145 -279q0 -190 -127 -288t-291 -98t-288 82q-63 42 -101 120q-37 78 -36 180h319q0 -38 28 -64t76 -26t74 25q27 25 27 59
q0 74 -121 119l-111 41q-165 61 -237 143t-72 248q0 96 54 172t116 115q-135 82 -135 245t101 271q100 108 308 108t307 -104t99 -266h-311q0 86 -96 86q-47 0 -72 -22t-25 -50q0 -57 115 -98l111 -41q166 -61 238 -143t71 -248z" />
    <glyph glyph-name="dieresis" unicode="&#xa8;" horiz-adv-x="1024" 
d="M418 1247h-275v297h275v-297zM881 1247h-275v297h275v-297z" />
    <glyph glyph-name="copyright" unicode="&#xa9;" horiz-adv-x="1683" 
d="M856 336q-150 0 -258 99t-109 294q0 195 109 294t259 99t273 -106l-137 -137q-67 55 -137 55t-113 -52t-43 -152t43 -153t113 -53t137 56l137 -138q-124 -106 -274 -106zM1372 729q0 239 -150 391t-380 152q-229 0 -380 -153t-151 -391t151 -390t380 -152q230 0 380 152
t150 391zM1583 729q0 -307 -217 -524t-524 -217t-525 217q-217 217 -217 524t217 524t525 217t524 -217q217 -217 217 -524z" />
    <glyph glyph-name="ordfeminine" unicode="&#xaa;" horiz-adv-x="935" 
d="M348 864q0 -71 103 -71q114 0 114 116v25h-135q-38 0 -60 -20t-22 -50zM834 580h-263v71q-81 -80 -203 -80t-201 79t-79 197q0 117 76 191t223 74h178v23q0 59 -30 85q-31 26 -91 26t-89 -13q-28 -12 -62 -47l-168 168q67 68 137 92t184 24q387 0 388 -319v-571z" />
    <glyph glyph-name="guillemotleft" unicode="&#xab;" horiz-adv-x="1376" 
d="M1253 18l-559 555l559 553v-395l-166 -158l166 -159v-396zM621 18l-560 555l560 553v-395l-162 -158l162 -159v-396z" />
    <glyph glyph-name="logicalnot" unicode="&#xac;" 
d="M1051 180h-316v307h-647v316h963v-623z" />
    <glyph glyph-name="uni00AD" unicode="&#xad;" horiz-adv-x="872" 
d="M772 446h-672v316h672v-316z" />
    <glyph glyph-name="registered" unicode="&#xae;" horiz-adv-x="1683" 
d="M956 866q0 33 -22 56q-23 23 -60 22h-106v-156h106q38 0 60 22t22 56zM768 631v-289h-211v774h346q123 0 194 -74t70 -176q0 -137 -125 -200l146 -324h-240l-117 289h-63zM1372 729q0 239 -150 391t-380 152q-229 0 -380 -153t-151 -391t151 -390t380 -152q230 0 380 152
t150 391zM1583 729q0 -307 -217 -524t-524 -217t-525 217q-217 217 -217 524t217 524t525 217t524 -217q217 -217 217 -524z" />
    <glyph glyph-name="macron" unicode="&#xaf;" horiz-adv-x="1024" 
d="M846 1288h-668v215h668v-215z" />
    <glyph glyph-name="degree" unicode="&#xb0;" horiz-adv-x="995" 
d="M631 1094q0 55 -39 94t-94 39q-54 0 -94 -39t-40 -94t39 -95q39 -39 95 -39t94 40q39 39 39 94zM899 1094q0 -166 -118 -284q-117 -118 -283 -118t-284 118t-118 284t118 284t284 117q166 1 284 -117t117 -284z" />
    <glyph glyph-name="plusminus" unicode="&#xb1;" 
d="M1038 0h-938v315h938v-315zM1038 760h-311v-311h-315v311h-312v315h312v311h315v-311h311v-315z" />
    <glyph glyph-name="twosuperior" unicode="&#xb2;" horiz-adv-x="696" 
d="M647 584h-588v213l310 315q45 45 45 77q0 64 -58 64t-59 -61h-238q0 131 85 203q85 71 212 71t209 -72t82 -200q1 -70 -27 -117t-94 -110l-178 -170h299v-213z" />
    <glyph glyph-name="threesuperior" unicode="&#xb3;" horiz-adv-x="696" 
d="M655 852q0 -135 -87 -206t-214 -71t-215 70t-88 217h236q-1 -74 65 -74t66 72q0 29 -20 49t-48 21h-33v203h33q31 0 46 19q16 19 16 44t-18 41t-41 16q-24 0 -40 -16t-16 -47h-238q0 125 85 201q85 75 211 75t209 -76t83 -182q0 -108 -82 -172q90 -84 90 -184z" />
    <glyph glyph-name="acute" unicode="&#xb4;" horiz-adv-x="1024" 
d="M874 1618l-206 -369h-240l133 369h313z" />
    <glyph glyph-name="mu" unicode="&#xb5;" horiz-adv-x="1196" 
d="M1069 0h-328v90q-102 -102 -256 -102h-22v-344h-336v1458h336v-660q0 -84 43 -118t92 -33q49 0 92 34t43 117v660h336v-1102z" />
    <glyph glyph-name="paragraph" unicode="&#xb6;" horiz-adv-x="1447" 
d="M1300 -356h-335v1495h-185v-1495h-336v966q-143 0 -263 123t-120 297q-1 213 135 321t359 107h745v-1814z" />
    <glyph glyph-name="periodcentered" unicode="&#xb7;" horiz-adv-x="602" 
d="M485 420h-368v368h368v-368z" />
    <glyph glyph-name="cedilla" unicode="&#xb8;" horiz-adv-x="1024" 
d="M684 -109l-74 -294h-299l138 294h235z" />
    <glyph glyph-name="onesuperior" unicode="&#xb9;" horiz-adv-x="696" 
d="M528 584h-237v608l-195 -168v266l195 168h237v-874z" />
    <glyph glyph-name="ordmasculine" unicode="&#xba;" horiz-adv-x="954" 
d="M588 1020q0 145 -39 184q-25 25 -72 25t-71 -25q-39 -39 -39 -184t39 -184q26 -25 72 -25t71 25q39 39 39 184zM858 1019q0 -130 -22 -204t-76 -133q-104 -113 -282 -113t-283 113q-55 59 -77 133t-22 204t22 205t77 134q104 112 282 112t283 -112q54 -59 76 -134
t22 -205z" />
    <glyph glyph-name="guillemotright" unicode="&#xbb;" horiz-adv-x="1376" 
d="M682 573l-559 -555v396l164 159l-164 158v395zM1315 573l-559 -555v396l162 159l-162 158v395z" />
    <glyph glyph-name="onequarter" unicode="&#xbc;" horiz-adv-x="1845" 
d="M1829 113h-53v-113h-234v113h-366v213l282 548h260l-288 -548h112v84h234v-84h53v-213zM1399 1458l-694 -1458h-259l695 1458h258zM528 584h-237v608l-195 -168v266l195 168h237v-874z" />
    <glyph glyph-name="onehalf" unicode="&#xbd;" horiz-adv-x="1845" 
d="M1796 0h-588v213l310 315q45 45 45 77q0 63 -60 65q-57 0 -57 -62h-238q0 131 85 203t212 72t209 -73t82 -200q0 -70 -28 -116t-93 -111l-178 -170h299v-213zM1399 1458l-694 -1458h-259l695 1458h258zM528 584h-237v608l-195 -168v266l195 168h237v-874z" />
    <glyph glyph-name="threequarters" unicode="&#xbe;" horiz-adv-x="1845" 
d="M1829 113h-53v-113h-234v113h-366v213l282 548h260l-288 -548h112v84h234v-84h53v-213zM1399 1458l-694 -1458h-259l695 1458h258zM655 852q0 -135 -87 -206t-214 -71t-215 70t-88 217h236q-1 -74 65 -74t66 72q0 29 -20 49t-48 21h-33v203h33q31 0 46 19q16 19 16 44
t-18 41t-41 16q-24 0 -40 -16t-16 -47h-238q0 125 85 201q85 75 211 75t209 -76t83 -182q0 -108 -82 -172q90 -84 90 -184z" />
    <glyph glyph-name="questiondown" unicode="&#xbf;" horiz-adv-x="1101" 
d="M684 772h-344v330h344v-330zM979 63q0 -201 -132 -317t-326 -115q-195 0 -327 114t-133 316q0 127 105 263l141 178q37 45 37 96v18h336v-47q0 -129 -84 -227l-143 -168q-55 -62 -55 -116t31 -89q32 -35 91 -35q123 0 123 129h336z" />
    <glyph glyph-name="Agrave" unicode="&#xc0;" horiz-adv-x="1337" 
d="M805 1602h-240l-207 368h314zM801 516l-123 389l-131 -389h254zM1337 0h-374l-68 217h-449l-71 -217h-375l530 1458h277z" />
    <glyph glyph-name="Aacute" unicode="&#xc1;" horiz-adv-x="1337" 
d="M977 1970l-207 -368h-240l134 368h313zM801 516l-123 389l-131 -389h254zM1337 0h-374l-68 217h-449l-71 -217h-375l530 1458h277z" />
    <glyph glyph-name="Acircumflex" unicode="&#xc2;" horiz-adv-x="1337" 
d="M1079 1602h-250l-161 170l-162 -170h-250l279 366h266zM801 516l-123 389l-131 -389h254zM1337 0h-374l-68 217h-449l-71 -217h-375l530 1458h277z" />
    <glyph glyph-name="Atilde" unicode="&#xc3;" horiz-adv-x="1337" 
d="M801 1614q-79 0 -147 40t-128 40t-114 -56l-140 142q70 70 125 100t135 29q80 0 148 -40t126 -40t114 55l143 -141q-70 -69 -126 -99t-136 -30zM801 516l-123 389l-131 -389h254zM1337 0h-374l-68 217h-449l-71 -217h-375l530 1458h277z" />
    <glyph glyph-name="Adieresis" unicode="&#xc4;" horiz-adv-x="1337" 
d="M573 1599h-274v297h274v-297zM1036 1599h-274v297h274v-297zM801 516l-123 389l-131 -389h254zM1337 0h-374l-68 217h-449l-71 -217h-375l530 1458h277z" />
    <glyph glyph-name="Aring" unicode="&#xc5;" horiz-adv-x="1337" 
d="M774 1829q0 43 -32 75t-74 32t-75 -32q-32 -32 -32 -75t32 -75t75 -32q42 0 74 32t32 75zM950 1830q0 -118 -83 -201t-199 -83t-200 83q-83 83 -83 200t83 200t200 83q118 0 200 -82t82 -200zM801 516l-123 389l-131 -389h254zM1337 0h-374l-68 217h-449l-71 -217h-375
l530 1458h277z" />
    <glyph glyph-name="AE" unicode="&#xc6;" horiz-adv-x="2074" 
d="M977 604v535l-279 -535h279zM1968 0h-991v305h-434l-158 -305h-385l758 1458h1210v-319h-633v-244h541v-320h-541v-256h633v-319z" />
    <glyph glyph-name="Ccedilla" unicode="&#xc7;" horiz-adv-x="1247" 
d="M791 -109l-74 -294h-299l137 294h236zM640 -12q-231 0 -390 159q-110 110 -130 252q-20 141 -20 295t3 213t15 143q22 149 132 261q160 159 390 159t379 -120q148 -121 187 -355h-364q-43 156 -187 156q-94 0 -141 -61q-29 -37 -42 -108t-13 -253t13 -253t42 -107
q47 -61 141 -62q143 0 187 156h364q-39 -233 -187 -354t-379 -121z" />
    <glyph glyph-name="Egrave" unicode="&#xc8;" horiz-adv-x="1245" 
d="M768 1602h-240l-206 368h313zM1139 0h-992v1458h992v-319h-633v-244h541v-320h-541v-256h633v-319z" />
    <glyph glyph-name="Eacute" unicode="&#xc9;" horiz-adv-x="1245" 
d="M940 1970l-207 -368h-239l133 368h313zM1139 0h-992v1458h992v-319h-633v-244h541v-320h-541v-256h633v-319z" />
    <glyph glyph-name="Ecircumflex" unicode="&#xca;" horiz-adv-x="1245" 
d="M1042 1602h-249l-162 170l-162 -170h-250l279 366h266zM1139 0h-992v1458h992v-319h-633v-244h541v-320h-541v-256h633v-319z" />
    <glyph glyph-name="Edieresis" unicode="&#xcb;" horiz-adv-x="1245" 
d="M537 1599h-275v297h275v-297zM999 1599h-274v297h274v-297zM1139 0h-992v1458h992v-319h-633v-244h541v-320h-541v-256h633v-319z" />
    <glyph glyph-name="Igrave" unicode="&#xcc;" horiz-adv-x="653" 
d="M465 1602h-240l-207 368h314zM506 0h-359v1458h359v-1458z" />
    <glyph glyph-name="Iacute" unicode="&#xcd;" horiz-adv-x="653" 
d="M635 1970l-207 -368h-240l134 368h313zM506 0h-359v1458h359v-1458z" />
    <glyph glyph-name="Icircumflex" unicode="&#xce;" horiz-adv-x="653" 
d="M741 1602h-249l-162 170l-162 -170h-250l279 366h266zM506 0h-359v1458h359v-1458z" />
    <glyph glyph-name="Idieresis" unicode="&#xcf;" horiz-adv-x="653" 
d="M236 1599h-275v297h275v-297zM698 1599h-274v297h274v-297zM506 0h-359v1458h359v-1458z" />
    <glyph glyph-name="Eth" unicode="&#xd0;" horiz-adv-x="1390" 
d="M1290 729q0 -217 -11 -310t-60 -173q-152 -246 -474 -246h-540v598h-133v274h133v586h540q322 0 474 -246q49 -80 60 -173t11 -310zM932 729q0 175 -8 235t-31 93q-55 82 -172 82h-158v-267h185v-274h-185v-279h158q117 0 172 82q23 33 31 93t8 235z" />
    <glyph glyph-name="Ntilde" unicode="&#xd1;" horiz-adv-x="1433" 
d="M850 1614q-80 0 -148 40t-126 40q-59 0 -115 -56l-139 142q70 70 124 100t135 29q79 0 147 -40t126 -40t115 55l143 -141q-70 -69 -126 -99t-136 -30zM1286 0h-313l-467 733v-733h-359v1458h314l467 -733v733h358v-1458z" />
    <glyph glyph-name="Ograve" unicode="&#xd2;" horiz-adv-x="1310" 
d="M793 1602h-240l-207 368h313zM852 729q0 184 -12 253q-29 167 -184 168t-185 -168q-12 -69 -12 -253t12 -252q30 -170 184 -170t185 170q12 68 12 252zM100 694q0 154 3 213t15 143q22 149 132 261q160 159 406 159t405 -159q110 -110 129 -248q20 -137 20 -295t-3 -217
q-10 -195 -51 -272q-42 -78 -95 -132q-160 -159 -406 -159t-405 159q-110 110 -130 252q-20 141 -20 295z" />
    <glyph glyph-name="Oacute" unicode="&#xd3;" horiz-adv-x="1310" 
d="M965 1970l-207 -368h-240l133 368h314zM852 729q0 184 -12 253q-29 167 -184 168t-185 -168q-12 -69 -12 -253t12 -252q30 -170 184 -170t185 170q12 68 12 252zM100 694q0 154 3 213t15 143q22 149 132 261q160 159 406 159t405 -159q110 -110 129 -248q20 -137 20 -295
t-3 -217q-10 -195 -51 -272q-42 -78 -95 -132q-160 -159 -406 -159t-405 159q-110 110 -130 252q-20 141 -20 295z" />
    <glyph glyph-name="Ocircumflex" unicode="&#xd4;" horiz-adv-x="1310" 
d="M1067 1602h-250l-162 170l-161 -170h-250l278 366h266zM852 729q0 184 -12 253q-29 167 -184 168t-185 -168q-12 -69 -12 -253t12 -252q30 -170 184 -170t185 170q12 68 12 252zM100 694q0 154 3 213t15 143q22 149 132 261q160 159 406 159t405 -159q110 -110 129 -248
q20 -137 20 -295t-3 -217q-10 -195 -51 -272q-42 -78 -95 -132q-160 -159 -406 -159t-405 159q-110 110 -130 252q-20 141 -20 295z" />
    <glyph glyph-name="Otilde" unicode="&#xd5;" horiz-adv-x="1310" 
d="M789 1614q-79 0 -147 40t-128 40t-115 -56l-139 142q70 70 125 100t135 29q80 0 148 -40t125 -40q58 0 114 55l144 -141q-70 -69 -126 -99t-136 -30zM852 729q0 184 -12 253q-29 167 -184 168t-185 -168q-12 -69 -12 -253t12 -252q30 -170 184 -170t185 170q12 68 12 252
zM100 694q0 154 3 213t15 143q22 149 132 261q160 159 406 159t405 -159q110 -110 129 -248q20 -137 20 -295t-3 -217q-10 -195 -51 -272q-42 -78 -95 -132q-160 -159 -406 -159t-405 159q-110 110 -130 252q-20 141 -20 295z" />
    <glyph glyph-name="Odieresis" unicode="&#xd6;" horiz-adv-x="1310" 
d="M561 1599h-274v297h274v-297zM1024 1599h-274v297h274v-297zM852 729q0 184 -12 253q-29 167 -184 168t-185 -168q-12 -69 -12 -253t12 -252q30 -170 184 -170t185 170q12 68 12 252zM100 694q0 154 3 213t15 143q22 149 132 261q160 159 406 159t405 -159
q110 -110 129 -248q20 -137 20 -295t-3 -217q-10 -195 -51 -272q-42 -78 -95 -132q-160 -159 -406 -159t-405 159q-110 110 -130 252q-20 141 -20 295z" />
    <glyph glyph-name="multiply" unicode="&#xd7;" 
d="M1059 330l-213 -213l-277 276l-274 -276l-215 213l278 274l-278 277l213 213l274 -277l277 277l215 -213l-279 -277z" />
    <glyph glyph-name="Oslash" unicode="&#xd8;" horiz-adv-x="1310" 
d="M459 762q0 -152 6 -223l280 591q-41 20 -90 21q-154 1 -184 -169q-12 -68 -12 -220zM655 307q155 1 185 171q12 68 12 218q0 152 -6 224l-281 -590q39 -23 90 -23zM100 729q0 349 64 467q33 61 86 115q160 160 405 159q123 0 215 -36l56 114h241l-110 -233
q111 -111 132 -249t21 -297t-3 -218q-10 -195 -51 -272q-42 -78 -95 -132q-160 -160 -406 -159q-123 0 -215 37l-55 -115h-242l113 231q-113 113 -136 266q-13 85 -17 144q-3 59 -3 178z" />
    <glyph glyph-name="Ugrave" unicode="&#xd9;" horiz-adv-x="1351" 
d="M813 1602h-240l-206 368h313zM1229 512q0 -232 -161 -378t-394 -146t-392 145t-159 379v946h358v-938q0 -100 51 -156q52 -56 142 -56t143 56t53 156v938h359v-946z" />
    <glyph glyph-name="Uacute" unicode="&#xda;" horiz-adv-x="1351" 
d="M985 1970l-207 -368h-239l133 368h313zM1229 512q0 -232 -161 -378t-394 -146t-392 145t-159 379v946h358v-938q0 -100 51 -156q52 -56 142 -56t143 56t53 156v938h359v-946z" />
    <glyph glyph-name="Ucircumflex" unicode="&#xdb;" horiz-adv-x="1351" 
d="M1087 1602h-249l-162 170l-162 -170h-250l279 366h266zM1229 512q0 -232 -161 -378t-394 -146t-392 145t-159 379v946h358v-938q0 -100 51 -156q52 -56 142 -56t143 56t53 156v938h359v-946z" />
    <glyph glyph-name="Udieresis" unicode="&#xdc;" horiz-adv-x="1351" 
d="M582 1599h-275v297h275v-297zM1044 1599h-274v297h274v-297zM1229 512q0 -232 -161 -378t-394 -146t-392 145t-159 379v946h358v-938q0 -100 51 -156q52 -56 142 -56t143 56t53 156v938h359v-946z" />
    <glyph glyph-name="Yacute" unicode="&#xdd;" horiz-adv-x="1239" 
d="M928 1970l-207 -368h-240l133 368h314zM799 0h-359v594l-440 864h391l230 -524l227 524h391l-440 -864v-594z" />
    <glyph glyph-name="Thorn" unicode="&#xde;" horiz-adv-x="1284" 
d="M864 737q0 59 -43 103t-112 45h-203v-295h203q71 0 113 44t42 103zM1223 737q0 -193 -133 -331t-365 -138h-219v-268h-359v1458h359v-252h219q231 0 365 -138t133 -331z" />
    <glyph glyph-name="germandbls" unicode="&#xdf;" horiz-adv-x="1196" 
d="M756 1087q0 91 -138 91q-86 0 -120 -35t-33 -109v-1034h-338v1063q0 213 134 310t355 97q222 0 350 -92t128 -278q0 -152 -125 -223q125 -61 125 -211v-312q0 -354 -369 -354h-107v283h39q99 0 99 98v264q0 47 -25 73t-74 25h-39v258h48q90 0 90 86z" />
    <glyph glyph-name="agrave" unicode="&#xe0;" horiz-adv-x="1097" 
d="M680 1249h-240l-207 369h314zM377 352q-1 -90 129 -90q68 0 108 36t39 116v28h-159q-117 0 -117 -90zM989 0h-327v90q-54 -53 -108 -77t-138 -23q-166 0 -263 97t-97 245t96 241q96 92 284 93h217v28q0 74 -39 106t-131 32t-170 -78l-209 209q84 83 172 117t228 34
q485 0 485 -399v-715z" />
    <glyph glyph-name="aacute" unicode="&#xe1;" horiz-adv-x="1097" 
d="M856 1618l-207 -369h-239l133 369h313zM377 352q-1 -90 129 -90q68 0 108 36t39 116v28h-159q-117 0 -117 -90zM989 0h-327v90q-54 -53 -108 -77t-138 -23q-166 0 -263 97t-97 245t96 241q96 92 284 93h217v28q0 74 -39 106t-131 32t-170 -78l-209 209q84 83 172 117
t228 34q485 0 485 -399v-715z" />
    <glyph glyph-name="acircumflex" unicode="&#xe2;" horiz-adv-x="1097" 
d="M956 1249h-249l-162 170l-162 -170h-250l279 367h266zM377 352q-1 -90 129 -90q68 0 108 36t39 116v28h-159q-117 0 -117 -90zM989 0h-327v90q-54 -53 -108 -77t-138 -23q-166 0 -263 97t-97 245t96 241q96 92 284 93h217v28q0 74 -39 106t-131 32t-170 -78l-209 209
q84 83 172 117t228 34q485 0 485 -399v-715z" />
    <glyph glyph-name="atilde" unicode="&#xe3;" horiz-adv-x="1097" 
d="M940 1391q-70 -70 -126 -100q-56 -29 -136 -29t-148 40q-140 83 -241 -16l-139 141q70 70 124 100q54 29 135 29q79 0 147 -40t126 -40t115 56zM377 352q-1 -90 129 -90q68 0 108 36t39 116v28h-159q-117 0 -117 -90zM989 0h-327v90q-54 -53 -108 -77t-138 -23
q-166 0 -263 97t-97 245t96 241q96 92 284 93h217v28q0 74 -39 106t-131 32t-170 -78l-209 209q84 83 172 117t228 34q485 0 485 -399v-715z" />
    <glyph glyph-name="adieresis" unicode="&#xe4;" horiz-adv-x="1097" 
d="M913 1247h-274v297h274v-297zM451 1247h-275v297h275v-297zM377 352q-1 -90 129 -90q68 0 108 36t39 116v28h-159q-117 0 -117 -90zM989 0h-327v90q-54 -53 -108 -77t-138 -23q-166 0 -263 97t-97 245t96 241q96 92 284 93h217v28q0 74 -39 106t-131 32t-170 -78
l-209 209q84 83 172 117t228 34q485 0 485 -399v-715z" />
    <glyph glyph-name="aring" unicode="&#xe5;" horiz-adv-x="1097" 
d="M651 1497q0 43 -31 75q-32 32 -75 32t-75 -32t-32 -75t32 -75t75 -32t75 32q31 32 31 75zM545 1780q117 0 199 -82t83 -200q0 -118 -83 -201q-84 -83 -200 -83t-199 83t-83 200t83 200t200 83zM377 352q-1 -90 129 -90q68 0 108 36t39 116v28h-159q-117 0 -117 -90z
M989 0h-327v90q-54 -53 -108 -77t-138 -23q-166 0 -263 97t-97 245t96 241q96 92 284 93h217v28q0 74 -39 106t-131 32t-170 -78l-209 209q84 83 172 117t228 34q485 0 485 -399v-715z" />
    <glyph glyph-name="ae" unicode="&#xe6;" horiz-adv-x="1720" 
d="M377 352q-1 -90 129 -90q68 0 108 36t39 116v28h-159q-117 0 -117 -90zM1311 666q0 47 -19 86q-39 86 -145 86t-146 -86q-18 -39 -18 -86h328zM1642 442h-659q0 -72 52 -122q53 -50 139 -50t134 22t97 70l201 -200q-90 -90 -186 -132t-242 -42q-252 0 -385 133
q-93 -84 -175 -109t-202 -24q-164 0 -262 98t-98 246t96 241q96 92 284 93h217v28q0 74 -39 106t-131 32t-170 -78l-209 209q84 83 172 117t228 34q229 0 348 -92q119 92 295 92q233 0 364 -148t131 -384v-140z" />
    <glyph glyph-name="ccedilla" unicode="&#xe7;" horiz-adv-x="972" 
d="M684 -109l-74 -294h-299l138 294h235zM414 551q0 -260 159 -260q70 0 136 65l227 -227q-141 -141 -363 -141q-144 0 -235 48q-92 48 -142 107t-84 165t-34 242q0 138 34 244t85 164q135 156 366 156t373 -141l-227 -228q-66 66 -136 66q-159 0 -159 -260z" />
    <glyph glyph-name="egrave" unicode="&#xe8;" horiz-adv-x="1144" 
d="M715 1249h-240l-207 369h314zM735 666q0 47 -18 86q-39 86 -145 86t-146 -86q-18 -39 -18 -86h327zM1067 442h-659q0 -72 52 -122t138 -50t134 22t97 70l201 -200q-90 -90 -186 -132t-242 -42q-524 0 -524 563q0 264 136 414q136 149 363 149t359 -148t131 -384v-140z
" />
    <glyph glyph-name="eacute" unicode="&#xe9;" horiz-adv-x="1144" 
d="M891 1618l-207 -369h-240l134 369h313zM735 666q0 47 -18 86q-39 86 -145 86t-146 -86q-18 -39 -18 -86h327zM1067 442h-659q0 -72 52 -122t138 -50t134 22t97 70l201 -200q-90 -90 -186 -132t-242 -42q-524 0 -524 563q0 264 136 414q136 149 363 149t359 -148t131 -384
v-140z" />
    <glyph glyph-name="ecircumflex" unicode="&#xea;" horiz-adv-x="1144" 
d="M991 1249h-250l-161 170l-162 -170h-250l278 367h267zM735 666q0 47 -18 86q-39 86 -145 86t-146 -86q-18 -39 -18 -86h327zM1067 442h-659q0 -72 52 -122t138 -50t134 22t97 70l201 -200q-90 -90 -186 -132t-242 -42q-524 0 -524 563q0 264 136 414q136 149 363 149
t359 -148t131 -384v-140z" />
    <glyph glyph-name="edieresis" unicode="&#xeb;" horiz-adv-x="1144" 
d="M948 1247h-274v297h274v-297zM485 1247h-274v297h274v-297zM735 666q0 47 -18 86q-39 86 -145 86t-146 -86q-18 -39 -18 -86h327zM1067 442h-659q0 -72 52 -122t138 -50t134 22t97 70l201 -200q-90 -90 -186 -132t-242 -42q-524 0 -524 563q0 264 136 414
q136 149 363 149t359 -148t131 -384v-140z" />
    <glyph glyph-name="igrave" unicode="&#xec;" horiz-adv-x="589" 
d="M463 1249h-240l-207 369h314zM463 0h-336v1059h336v-1059z" />
    <glyph glyph-name="iacute" unicode="&#xed;" horiz-adv-x="589" 
d="M573 1618l-206 -369h-240l133 369h313zM463 0h-336v1059h336v-1059z" />
    <glyph glyph-name="icircumflex" unicode="&#xee;" horiz-adv-x="589" 
d="M711 1249h-250l-162 170l-162 -170h-250l279 367h266zM463 0h-336v1059h336v-1059z" />
    <glyph glyph-name="idieresis" unicode="&#xef;" horiz-adv-x="589" 
d="M668 1247h-275v297h275v-297zM205 1247h-275v297h275v-297zM463 0h-336v1059h336v-1059z" />
    <glyph glyph-name="eth" unicode="&#xf0;" horiz-adv-x="1126" 
d="M686 530q0 168 -43 211q-29 29 -80 29t-80 -29q-43 -43 -43 -211t43 -211q29 -29 80 -29t80 29q43 43 43 211zM1022 526q0 -154 -25 -242t-92 -161q-127 -135 -342 -135t-342 135q-68 72 -92 161q-25 88 -25 246t25 247q50 178 233 257q76 35 158 37l-41 82h-231v233h117
l-46 95h361l45 -95h199v-233h-84l53 -117q77 -168 103 -262t26 -248z" />
    <glyph glyph-name="ntilde" unicode="&#xf1;" horiz-adv-x="1185" 
d="M993 1391q-70 -70 -126 -100q-56 -29 -136 -29q-79 0 -147 40q-140 83 -242 -16l-139 141q70 70 125 100q55 29 135 29t147 -40q68 -40 126 -40t114 56zM1069 0h-336v659q0 84 -43 118t-92 34t-92 -34t-43 -118v-659h-336v1102h328v-90q102 102 256 102t247 -94
q111 -111 111 -315v-705z" />
    <glyph glyph-name="ograve" unicode="&#xf2;" horiz-adv-x="1126" 
d="M698 1249h-239l-207 369h313zM702 551q0 180 -49 229q-31 31 -90 31t-90 -31q-49 -49 -49 -229t49 -229q31 -31 90 -31t90 31q49 49 49 229zM1038 550q0 -163 -26 -254t-94 -167q-132 -141 -354 -141t-355 141q-70 76 -95 167q-26 91 -26 254t27 256t94 167
q133 141 354 141t355 -141q68 -74 94 -167t26 -256z" />
    <glyph glyph-name="oacute" unicode="&#xf3;" horiz-adv-x="1126" 
d="M874 1618l-206 -369h-240l133 369h313zM702 551q0 180 -49 229q-31 31 -90 31t-90 -31q-49 -49 -49 -229t49 -229q31 -31 90 -31t90 31q49 49 49 229zM1038 550q0 -163 -26 -254t-94 -167q-132 -141 -354 -141t-355 141q-70 76 -95 167q-26 91 -26 254t27 256t94 167
q133 141 354 141t355 -141q68 -74 94 -167t26 -256z" />
    <glyph glyph-name="ocircumflex" unicode="&#xf4;" horiz-adv-x="1126" 
d="M975 1249h-250l-162 170l-162 -170h-249l278 367h266zM702 551q0 180 -49 229q-31 31 -90 31t-90 -31q-49 -49 -49 -229t49 -229q31 -31 90 -31t90 31q49 49 49 229zM1038 550q0 -163 -26 -254t-94 -167q-132 -141 -354 -141t-355 141q-70 76 -95 167q-26 91 -26 254
t27 256t94 167q133 141 354 141t355 -141q68 -74 94 -167t26 -256z" />
    <glyph glyph-name="otilde" unicode="&#xf5;" horiz-adv-x="1126" 
d="M958 1391q-70 -70 -126 -100q-56 -29 -135 -29t-147 40q-141 84 -243 -16l-139 141q70 70 125 100q55 29 135 29t148 -40t125 -40q58 0 114 56zM702 551q0 180 -49 229q-31 31 -90 31t-90 -31q-49 -49 -49 -229t49 -229q31 -31 90 -31t90 31q49 49 49 229zM1038 550
q0 -163 -26 -254t-94 -167q-132 -141 -354 -141t-355 141q-70 76 -95 167q-26 91 -26 254t27 256t94 167q133 141 354 141t355 -141q68 -74 94 -167t26 -256z" />
    <glyph glyph-name="odieresis" unicode="&#xf6;" horiz-adv-x="1126" 
d="M932 1247h-275v297h275v-297zM469 1247h-274v297h274v-297zM702 551q0 180 -49 229q-31 31 -90 31t-90 -31q-49 -49 -49 -229t49 -229q31 -31 90 -31t90 31q49 49 49 229zM1038 550q0 -163 -26 -254t-94 -167q-132 -141 -354 -141t-355 141q-70 76 -95 167
q-26 91 -26 254t27 256t94 167q133 141 354 141t355 -141q68 -74 94 -167t26 -256z" />
    <glyph glyph-name="divide" unicode="&#xf7;" 
d="M729 889h-319v319h319v-319zM1051 446h-963v316h963v-316zM729 0h-319v319h319v-319z" />
    <glyph glyph-name="oslash" unicode="&#xf8;" horiz-adv-x="1126" 
d="M555 811q-51 0 -82 -31q-49 -49 -49 -229q0 -74 4 -102l205 348q-27 14 -78 14zM702 551q0 74 -4 102l-204 -348q28 -14 78 -14t81 31q49 49 49 229zM1038 544q0 -157 -26 -248t-94 -167q-133 -141 -355 -141q-117 0 -213 41l-69 -119h-191l125 213q-82 86 -104 180
q-23 94 -23 252t27 251t94 167q133 141 354 141q117 0 213 -41l70 119h190l-125 -213q79 -86 103 -182t24 -253z" />
    <glyph glyph-name="ugrave" unicode="&#xf9;" horiz-adv-x="1185" 
d="M723 1249h-240l-207 369h314zM1059 0h-328v90q-102 -102 -256 -102q-155 0 -257 102t-101 307v705h336v-660q0 -84 43 -118t92 -33q49 0 92 34t43 117v660h336v-1102z" />
    <glyph glyph-name="uacute" unicode="&#xfa;" horiz-adv-x="1185" 
d="M899 1618l-207 -369h-239l133 369h313zM1059 0h-328v90q-102 -102 -256 -102q-155 0 -257 102t-101 307v705h336v-660q0 -84 43 -118t92 -33q49 0 92 34t43 117v660h336v-1102z" />
    <glyph glyph-name="ucircumflex" unicode="&#xfb;" horiz-adv-x="1185" 
d="M999 1249h-249l-162 170l-162 -170h-250l279 367h266zM1059 0h-328v90q-102 -102 -256 -102q-155 0 -257 102t-101 307v705h336v-660q0 -84 43 -118t92 -33q49 0 92 34t43 117v660h336v-1102z" />
    <glyph glyph-name="udieresis" unicode="&#xfc;" horiz-adv-x="1185" 
d="M956 1247h-274v297h274v-297zM494 1247h-275v297h275v-297zM1059 0h-328v90q-102 -102 -256 -102q-155 0 -257 102t-101 307v705h336v-660q0 -84 43 -118t92 -33q49 0 92 34t43 117v660h336v-1102z" />
    <glyph glyph-name="yacute" unicode="&#xfd;" horiz-adv-x="1052" 
d="M848 1618l-207 -369h-240l134 369h313zM152 -369v303h71q47 0 72 16t41 66l31 93l-367 993h352l187 -572l178 572h352l-457 -1233q-33 -92 -86 -145q-86 -92 -247 -93h-127z" />
    <glyph glyph-name="thorn" unicode="&#xfe;" horiz-adv-x="1169" 
d="M741 551q0 137 -26 199q-27 61 -113 61t-113 -61q-27 -60 -27 -198t27 -200q27 -61 113 -61t113 61q26 62 26 199zM1077 551q0 -121 -4 -187t-29 -146q-71 -230 -335 -230q-154 0 -246 92v-436h-336v1814h336v-436q92 92 253 92t257 -100q47 -49 71 -130q24 -80 29 -146
q4 -66 4 -187z" />
    <glyph glyph-name="ydieresis" unicode="&#xff;" horiz-adv-x="1052" 
d="M905 1247h-274v297h274v-297zM442 1247h-274v297h274v-297zM152 -369v303h71q47 0 72 16t41 66l31 93l-367 993h352l187 -572l178 572h352l-457 -1233q-33 -92 -86 -145q-86 -92 -247 -93h-127z" />
    <glyph glyph-name="Amacron" unicode="&#x100;" horiz-adv-x="1337" 
d="M1001 1620h-667v215h667v-215zM801 516l-123 389l-131 -389h254zM1337 0h-374l-68 217h-449l-71 -217h-375l530 1458h277z" />
    <glyph glyph-name="amacron" unicode="&#x101;" horiz-adv-x="1097" 
d="M879 1288h-668v215h668v-215zM377 352q-1 -90 129 -90q68 0 108 36t39 116v28h-159q-117 0 -117 -90zM989 0h-327v90q-54 -53 -108 -77t-138 -23q-166 0 -263 97t-97 245t96 241q96 92 284 93h217v28q0 74 -39 106t-131 32t-170 -78l-209 209q84 83 172 117t228 34
q485 0 485 -399v-715z" />
    <glyph glyph-name="Abreve" unicode="&#x102;" horiz-adv-x="1337" 
d="M668 1585q-135 0 -234 77q-98 77 -102 245h217q8 -97 119 -97t118 97h218q-4 -168 -102 -245t-234 -77zM801 516l-123 389l-131 -389h254zM1337 0h-374l-68 217h-449l-71 -217h-375l530 1458h277z" />
    <glyph glyph-name="abreve" unicode="&#x103;" horiz-adv-x="1097" 
d="M545 1233q-135 0 -234 77q-98 77 -102 244h217q8 -96 119 -96t119 96h217q-5 -168 -103 -244t-233 -77zM377 352q-1 -90 129 -90q68 0 108 36t39 116v28h-159q-117 0 -117 -90zM989 0h-327v90q-54 -53 -108 -77t-138 -23q-166 0 -263 97t-97 245t96 241q96 92 284 93h217
v28q0 74 -39 106t-131 32t-170 -78l-209 209q84 83 172 117t228 34q485 0 485 -399v-715z" />
    <glyph glyph-name="Aogonek" unicode="&#x104;" horiz-adv-x="1337" 
d="M1198 -115l-74 -295h-299l138 295h235zM801 516l-123 389l-131 -389h254zM1337 0h-374l-68 217h-449l-71 -217h-375l530 1458h277z" />
    <glyph glyph-name="aogonek" unicode="&#x105;" horiz-adv-x="1097" 
d="M897 -115l-74 -295h-299l138 295h235zM377 352q-1 -90 129 -90q68 0 108 36t39 116v28h-159q-117 0 -117 -90zM989 0h-327v90q-54 -53 -108 -77t-138 -23q-166 0 -263 97t-97 245t96 241q96 92 284 93h217v28q0 74 -39 106t-131 32t-170 -78l-209 209q84 83 172 117
t228 34q485 0 485 -399v-715z" />
    <glyph glyph-name="Cacute" unicode="&#x106;" horiz-adv-x="1247" 
d="M932 1970l-207 -368h-240l133 368h314zM640 -12q-231 0 -390 159q-110 110 -130 252q-20 141 -20 295t3 213t15 143q22 149 132 261q160 159 390 159t379 -120q148 -121 187 -355h-364q-43 156 -187 156q-94 0 -141 -61q-29 -37 -42 -108t-13 -253t13 -253t42 -107
q47 -61 141 -62q143 0 187 156h364q-39 -233 -187 -354t-379 -121z" />
    <glyph glyph-name="cacute" unicode="&#x107;" horiz-adv-x="972" 
d="M874 1618l-206 -369h-240l133 369h313zM414 551q0 -260 159 -260q70 0 136 65l227 -227q-141 -141 -363 -141q-144 0 -235 48q-92 48 -142 107t-84 165t-34 242q0 138 34 244t85 164q135 156 366 156t373 -141l-227 -228q-66 66 -136 66q-159 0 -159 -260z" />
    <glyph glyph-name="Ccircumflex" unicode="&#x108;" horiz-adv-x="1247" 
d="M1065 1602h-250l-162 170l-161 -170h-250l278 366h266zM640 -12q-231 0 -390 159q-110 110 -130 252q-20 141 -20 295t3 213t15 143q22 149 132 261q160 159 390 159t379 -120q148 -121 187 -355h-364q-43 156 -187 156q-94 0 -141 -61q-29 -37 -42 -108t-13 -253
t13 -253t42 -107q47 -61 141 -62q143 0 187 156h364q-39 -233 -187 -354t-379 -121z" />
    <glyph glyph-name="ccircumflex" unicode="&#x109;" horiz-adv-x="972" 
d="M985 1249h-250l-162 170l-161 -170h-250l278 367h267zM414 551q0 -260 159 -260q70 0 136 65l227 -227q-141 -141 -363 -141q-144 0 -235 48q-92 48 -142 107t-84 165t-34 242q0 138 34 244t85 164q135 156 366 156t373 -141l-227 -228q-66 66 -136 66q-159 0 -159 -260z
" />
    <glyph glyph-name="Cdotaccent" unicode="&#x10a;" horiz-adv-x="1247" 
d="M791 1608h-283v282h283v-282zM640 -12q-231 0 -390 159q-110 110 -130 252q-20 141 -20 295t3 213t15 143q22 149 132 261q160 159 390 159t379 -120q148 -121 187 -355h-364q-43 156 -187 156q-94 0 -141 -61q-29 -37 -42 -108t-13 -253t13 -253t42 -107q47 -61 141 -62
q143 0 187 156h364q-39 -233 -187 -354t-379 -121z" />
    <glyph glyph-name="cdotaccent" unicode="&#x10b;" horiz-adv-x="972" 
d="M715 1255h-283v283h283v-283zM414 551q0 -260 159 -260q70 0 136 65l227 -227q-141 -141 -363 -141q-144 0 -235 48q-92 48 -142 107t-84 165t-34 242q0 138 34 244t85 164q135 156 366 156t373 -141l-227 -228q-66 66 -136 66q-159 0 -159 -260z" />
    <glyph glyph-name="Ccaron" unicode="&#x10c;" horiz-adv-x="1247" 
d="M1065 1968l-279 -366h-266l-278 366h250l161 -170l162 170h250zM640 -12q-231 0 -390 159q-110 110 -130 252q-20 141 -20 295t3 213t15 143q22 149 132 261q160 159 390 159t379 -120q148 -121 187 -355h-364q-43 156 -187 156q-94 0 -141 -61q-29 -37 -42 -108
t-13 -253t13 -253t42 -107q47 -61 141 -62q143 0 187 156h364q-39 -233 -187 -354t-379 -121z" />
    <glyph glyph-name="ccaron" unicode="&#x10d;" horiz-adv-x="972" 
d="M985 1616l-278 -367h-267l-278 367h250l161 -170l162 170h250zM414 551q0 -260 159 -260q70 0 136 65l227 -227q-141 -141 -363 -141q-144 0 -235 48q-92 48 -142 107t-84 165t-34 242q0 138 34 244t85 164q135 156 366 156t373 -141l-227 -228q-66 66 -136 66
q-159 0 -159 -260z" />
    <glyph glyph-name="Dcaron" unicode="&#x10e;" horiz-adv-x="1333" 
d="M1077 1968l-278 -366h-267l-278 366h250l162 -170l161 170h250zM874 729q0 175 -8 235q-23 174 -202 175h-158v-820h158q117 0 172 82q22 33 30 93t8 235zM1233 729q0 -217 -11 -310t-61 -173q-152 -246 -473 -246h-541v1458h541q322 0 473 -246q49 -80 61 -173t11 -310z
" />
    <glyph glyph-name="dcaron" unicode="&#x10f;" horiz-adv-x="1165" 
d="M1513 1542l-131 -354h-225l70 354h286zM741 551q0 137 -26 199q-27 61 -113 61t-113 -61q-27 -60 -27 -198t27 -200q27 -61 113 -61t113 61q26 62 26 199zM1077 0h-325v90q-102 -102 -263 -102t-258 100q-47 49 -71 130q-25 81 -29 147q-4 67 -4 187t4 186t29 146
q71 230 336 230q154 0 245 -92v436h336v-1458z" />
    <glyph glyph-name="Dcroat" unicode="&#x110;" horiz-adv-x="1390" 
d="M1290 729q0 -217 -11 -310t-60 -173q-152 -246 -474 -246h-540v598h-133v274h133v586h540q322 0 474 -246q49 -80 60 -173t11 -310zM932 729q0 175 -8 235t-31 93q-55 82 -172 82h-158v-267h185v-274h-185v-279h158q117 0 172 82q23 33 31 93t8 235z" />
    <glyph glyph-name="dcroat" unicode="&#x111;" horiz-adv-x="1222" 
d="M702 551q0 137 -26 199q-27 61 -113 61q-87 0 -113 -61q-26 -60 -26 -198t27 -200t113 -61q86 0 112 61q26 62 26 199zM1038 0h-325v90q-102 -102 -263 -102t-257 100q-47 49 -72 130t-29 147q-4 67 -4 187t4 186t29 146q25 81 72 130q96 100 257 100t252 -92v133h-139
v209h139v94h336v-94h90v-209h-90v-1155z" />
    <glyph glyph-name="Emacron" unicode="&#x112;" horiz-adv-x="1245" 
d="M956 1620h-667v215h667v-215zM1139 0h-992v1458h992v-319h-633v-244h541v-320h-541v-256h633v-319z" />
    <glyph glyph-name="emacron" unicode="&#x113;" horiz-adv-x="1144" 
d="M913 1288h-667v215h667v-215zM735 666q0 47 -18 86q-39 86 -145 86t-146 -86q-18 -39 -18 -86h327zM1067 442h-659q0 -72 52 -122t138 -50t134 22t97 70l201 -200q-90 -90 -186 -132t-242 -42q-524 0 -524 563q0 264 136 414q136 149 363 149t359 -148t131 -384v-140z
" />
    <glyph glyph-name="Ebreve" unicode="&#x114;" horiz-adv-x="1245" 
d="M633 1585q-135 0 -234 77q-98 77 -102 245h217q8 -97 119 -97t119 97h217q-5 -168 -103 -245t-233 -77zM1139 0h-992v1458h992v-319h-633v-244h541v-320h-541v-256h633v-319z" />
    <glyph glyph-name="ebreve" unicode="&#x115;" horiz-adv-x="1144" 
d="M580 1233q-135 0 -234 77q-98 77 -102 244h217q8 -96 119 -96t118 96h217q-4 -168 -102 -244t-233 -77zM735 666q0 47 -18 86q-39 86 -145 86t-146 -86q-18 -39 -18 -86h327zM1067 442h-659q0 -72 52 -122t138 -50t134 22t97 70l201 -200q-90 -90 -186 -132t-242 -42
q-524 0 -524 563q0 264 136 414q136 149 363 149t359 -148t131 -384v-140z" />
    <glyph glyph-name="Edotaccent" unicode="&#x116;" horiz-adv-x="1245" 
d="M764 1608h-283v282h283v-282zM1139 0h-992v1458h992v-319h-633v-244h541v-320h-541v-256h633v-319z" />
    <glyph glyph-name="edotaccent" unicode="&#x117;" horiz-adv-x="1144" 
d="M721 1255h-283v283h283v-283zM735 666q0 47 -18 86q-39 86 -145 86t-146 -86q-18 -39 -18 -86h327zM1067 442h-659q0 -72 52 -122t138 -50t134 22t97 70l201 -200q-90 -90 -186 -132t-242 -42q-524 0 -524 563q0 264 136 414q136 149 363 149t359 -148t131 -384v-140z
" />
    <glyph glyph-name="Eogonek" unicode="&#x118;" horiz-adv-x="1245" 
d="M1139 -115l-74 -295h-299l137 295h236zM1139 0h-992v1458h992v-319h-633v-244h541v-320h-541v-256h633v-319z" />
    <glyph glyph-name="eogonek" unicode="&#x119;" horiz-adv-x="1144" 
d="M881 -115l-74 -295h-299l137 295h236zM735 666q0 47 -18 86q-39 86 -145 86t-146 -86q-18 -39 -18 -86h327zM1067 442h-659q0 -72 52 -122t138 -50t134 22t97 70l201 -200q-90 -90 -186 -132t-242 -42q-524 0 -524 563q0 264 136 414q136 149 363 149t359 -148t131 -384
v-140z" />
    <glyph glyph-name="Ecaron" unicode="&#x11a;" horiz-adv-x="1245" 
d="M1034 1968l-278 -366h-267l-278 366h250l162 -170l161 170h250zM1139 0h-992v1458h992v-319h-633v-244h541v-320h-541v-256h633v-319z" />
    <glyph glyph-name="ecaron" unicode="&#x11b;" horiz-adv-x="1144" 
d="M985 1616l-278 -367h-267l-278 367h250l161 -170l162 170h250zM735 666q0 47 -18 86q-39 86 -145 86t-146 -86q-18 -39 -18 -86h327zM1067 442h-659q0 -72 52 -122t138 -50t134 22t97 70l201 -200q-90 -90 -186 -132t-242 -42q-524 0 -524 563q0 264 136 414
q136 149 363 149t359 -148t131 -384v-140z" />
    <glyph glyph-name="Gcircumflex" unicode="&#x11c;" horiz-adv-x="1325" 
d="M1065 1602h-250l-162 170l-161 -170h-250l278 366h266zM1225 637q0 -180 -33 -291t-115 -194q-158 -164 -413 -164t-414 159q-110 110 -130 252q-20 141 -20 295t3 213t15 143q22 149 132 261q160 159 412 159t390 -139q140 -139 171 -344h-361q-23 86 -70 125
q-48 39 -140 39q-152 0 -181 -169q-12 -69 -12 -253t12 -254t41 -106q47 -61 147 -61q101 0 155 56t54 156v21h-215v299h572v-203z" />
    <glyph glyph-name="gcircumflex" unicode="&#x11d;" horiz-adv-x="1148" 
d="M967 1249h-250l-162 170l-162 -170h-250l279 367h266zM442 741q-18 -52 -18 -126t3 -106t15 -67t40 -52t73 -17q89 0 113 69q18 52 18 150t-15 141q-27 78 -116 78q-90 0 -113 -70zM1022 80q0 -197 -137 -323t-361 -126q-137 0 -235 32t-178 112l208 209q69 -70 177 -70
t149 51t41 117v80q-92 -92 -244 -92t-252 98q-70 70 -86 158t-16 266t16 266t86 158q98 98 251 98t255 -102v90h326v-1022z" />
    <glyph glyph-name="Gbreve" unicode="&#x11e;" horiz-adv-x="1325" 
d="M654 1585q-136 0 -234 77t-103 245h218q9 -97 119 -97t118 97h217q-4 -168 -102 -245q-97 -77 -233 -77zM1225 637q0 -180 -33 -291t-115 -194q-158 -164 -413 -164t-414 159q-110 110 -130 252q-20 141 -20 295t3 213t15 143q22 149 132 261q160 159 412 159t390 -139
q140 -139 171 -344h-361q-23 86 -70 125q-48 39 -140 39q-152 0 -181 -169q-12 -69 -12 -253t12 -254t41 -106q47 -61 147 -61q101 0 155 56t54 156v21h-215v299h572v-203z" />
    <glyph glyph-name="gbreve" unicode="&#x11f;" horiz-adv-x="1148" 
d="M555 1233q-135 0 -233 77t-103 244h217q8 -96 119 -96t119 96h217q-5 -168 -103 -244t-233 -77zM442 741q-18 -52 -18 -126t3 -106t15 -67t40 -52t73 -17q89 0 113 69q18 52 18 150t-15 141q-27 78 -116 78q-90 0 -113 -70zM1022 80q0 -197 -137 -323t-361 -126
q-137 0 -235 32t-178 112l208 209q69 -70 177 -70t149 51t41 117v80q-92 -92 -244 -92t-252 98q-70 70 -86 158t-16 266t16 266t86 158q98 98 251 98t255 -102v90h326v-1022z" />
    <glyph glyph-name="Gdotaccent" unicode="&#x120;" horiz-adv-x="1325" 
d="M795 1608h-283v282h283v-282zM1225 637q0 -180 -33 -291t-115 -194q-158 -164 -413 -164t-414 159q-110 110 -130 252q-20 141 -20 295t3 213t15 143q22 149 132 261q160 159 412 159t390 -139q140 -139 171 -344h-361q-23 86 -70 125q-48 39 -140 39q-152 0 -181 -169
q-12 -69 -12 -253t12 -254t41 -106q47 -61 147 -61q101 0 155 56t54 156v21h-215v299h572v-203z" />
    <glyph glyph-name="gdotaccent" unicode="&#x121;" horiz-adv-x="1148" 
d="M696 1255h-282v283h282v-283zM442 741q-18 -52 -18 -126t3 -106t15 -67t40 -52t73 -17q89 0 113 69q18 52 18 150t-15 141q-27 78 -116 78q-90 0 -113 -70zM1022 80q0 -197 -137 -323t-361 -126q-137 0 -235 32t-178 112l208 209q69 -70 177 -70t149 51t41 117v80
q-92 -92 -244 -92t-252 98q-70 70 -86 158t-16 266t16 266t86 158q98 98 251 98t255 -102v90h326v-1022z" />
    <glyph glyph-name="Gcommaaccent" unicode="&#x122;" horiz-adv-x="1325" 
d="M831 -109l-73 -294h-299l137 294h235zM1225 637q0 -180 -33 -291t-115 -194q-158 -164 -413 -164t-414 159q-110 110 -130 252q-20 141 -20 295t3 213t15 143q22 149 132 261q160 159 412 159t390 -139q140 -139 171 -344h-361q-23 86 -70 125q-48 39 -140 39
q-152 0 -181 -169q-12 -69 -12 -253t12 -254t41 -106q47 -61 147 -61q101 0 155 56t54 156v21h-215v299h572v-203z" />
    <glyph glyph-name="gcommaaccent" unicode="&#x123;" horiz-adv-x="1148" 
d="M899 1618l-242 -369h-202l100 369h344zM442 741q-18 -52 -18 -126t3 -106t15 -67t40 -52t73 -17q89 0 113 69q18 52 18 150t-15 141q-27 78 -116 78q-90 0 -113 -70zM1022 80q0 -197 -137 -323t-361 -126q-137 0 -235 32t-178 112l208 209q69 -70 177 -70t149 51t41 117
v80q-92 -92 -244 -92t-252 98q-70 70 -86 158t-16 266t16 266t86 158q98 98 251 98t255 -102v90h326v-1022z" />
    <glyph glyph-name="Hcircumflex" unicode="&#x124;" horiz-adv-x="1392" 
d="M1108 1602h-250l-162 170l-161 -170h-250l278 366h266zM1245 0h-358v578h-381v-578h-359v1458h359v-561h381v561h358v-1458z" />
    <glyph glyph-name="hcircumflex" unicode="&#x125;" horiz-adv-x="1185" 
d="M707 1602h-250l-162 170l-162 -170h-250l279 366h266zM1069 0h-336v659q0 84 -43 118t-92 34t-92 -34t-43 -118v-659h-336v1458h336v-446q98 102 250 102t245 -94q111 -111 111 -315v-705z" />
    <glyph glyph-name="Hbar" unicode="&#x126;" horiz-adv-x="1511" 
d="M944 897v135h-381v-135h381zM1303 0h-359v578h-381v-578h-358v1032h-133v275h133v151h358v-151h381v151h359v-151h137v-275h-137v-1032z" />
    <glyph glyph-name="hbar" unicode="&#x127;" horiz-adv-x="1243" 
d="M1126 0h-335v659q0 84 -43 118q-42 34 -92 34t-93 -34t-43 -118v-659h-336v1155h-90v209h90v94h336v-94h129v-209h-129v-143q98 102 250 102t254 -102t102 -307v-705z" />
    <glyph glyph-name="Itilde" unicode="&#x128;" horiz-adv-x="653" 
d="M463 1614q-79 0 -147 40t-127 40t-115 -56l-140 142q70 70 125 100t135 29q80 0 148 -40t126 -40t114 55l143 -141q-70 -69 -126 -99t-136 -30zM506 0h-359v1458h359v-1458z" />
    <glyph glyph-name="itilde" unicode="&#x129;" horiz-adv-x="589" 
d="M694 1391q-70 -70 -126 -100q-56 -29 -136 -29t-148 40q-140 83 -241 -16l-139 141q70 70 125 100q55 29 135 29t147 -40t125 -40t115 56zM463 0h-336v1059h336v-1059z" />
    <glyph glyph-name="Imacron" unicode="&#x12a;" horiz-adv-x="653" 
d="M662 1620h-668v215h668v-215zM506 0h-359v1458h359v-1458z" />
    <glyph glyph-name="imacron" unicode="&#x12b;" horiz-adv-x="589" 
d="M629 1288h-668v215h668v-215zM463 0h-336v1059h336v-1059z" />
    <glyph glyph-name="Ibreve" unicode="&#x12c;" horiz-adv-x="653" 
d="M330 1585q-135 0 -234 77q-98 77 -102 245h217q8 -97 119 -97t119 97h217q-4 -168 -102 -245t-234 -77zM506 0h-359v1458h359v-1458z" />
    <glyph glyph-name="ibreve" unicode="&#x12d;" horiz-adv-x="589" 
d="M299 1233q-135 0 -233 77t-103 244h217q8 -96 119 -96t119 96h217q-5 -168 -103 -244t-233 -77zM463 0h-336v1059h336v-1059z" />
    <glyph glyph-name="Iogonek" unicode="&#x12e;" horiz-adv-x="653" 
d="M383 -115l-74 -295h-299l137 295h236zM506 0h-359v1458h359v-1458z" />
    <glyph glyph-name="iogonek" unicode="&#x12f;" horiz-adv-x="589" 
d="M362 -115l-73 -295h-299l137 295h235zM463 1214h-336v256h336v-256zM463 0h-336v1059h336v-1059z" />
    <glyph glyph-name="Idotaccent" unicode="&#x130;" horiz-adv-x="653" 
d="M467 1608h-283v282h283v-282zM506 0h-359v1458h359v-1458z" />
    <glyph glyph-name="dotlessi" unicode="&#x131;" horiz-adv-x="589" 
d="M463 0h-336v1059h336v-1059z" />
    <glyph glyph-name="IJ" unicode="&#x132;" horiz-adv-x="1710" 
d="M1583 500q0 -244 -163 -378t-386 -134q-129 0 -219 36t-178 123l235 234q74 -74 162 -74t140 50q51 50 51 151v950h358v-958zM506 0h-359v1458h359v-1458z" />
    <glyph glyph-name="ij" unicode="&#x133;" horiz-adv-x="1179" 
d="M1053 1214h-336v256h336v-256zM1053 -43q0 -129 -86 -227t-256 -99h-179v283h117q68 0 68 68v1077h336v-1102zM463 1214h-336v256h336v-256zM463 0h-336v1059h336v-1059z" />
    <glyph glyph-name="Jcircumflex" unicode="&#x134;" horiz-adv-x="1056" 
d="M1161 1602h-250l-161 170l-162 -170h-250l278 366h267zM930 500q0 -244 -163 -378t-386 -134q-129 0 -219 36t-178 123l235 234q74 -74 162 -74t139 50t51 151v950h359v-958z" />
    <glyph glyph-name="jcircumflex" unicode="&#x135;" horiz-adv-x="589" 
d="M707 1249h-250l-162 170l-162 -170h-250l279 367h266zM463 -43q0 -129 -86 -227t-256 -99h-178v283h116q68 0 68 68v1077h336v-1102z" />
    <glyph glyph-name="Kcommaaccent" unicode="&#x136;" horiz-adv-x="1378" 
d="M858 -109l-74 -294h-299l138 294h235zM502 0h-355v1458h355v-516l422 516h438l-498 -590l514 -868h-417l-336 598l-123 -141v-457z" />
    <glyph glyph-name="kcommaaccent" unicode="&#x137;" horiz-adv-x="1173" 
d="M756 -109l-74 -294h-299l137 294h236zM463 0h-336v1458h336v-741l297 385h403l-405 -457l416 -645h-416l-230 403l-65 -71v-332z" />
    <glyph glyph-name="kgreenlandic" unicode="&#x138;" horiz-adv-x="1173" 
d="M463 0h-336v1102h336v-385l297 385h403l-405 -457l416 -645h-416l-230 403l-65 -71v-332z" />
    <glyph glyph-name="Lacute" unicode="&#x139;" horiz-adv-x="1179" 
d="M635 1970l-207 -368h-240l134 368h313zM1118 0h-971v1458h359v-1139h612v-319z" />
    <glyph glyph-name="lacute" unicode="&#x13a;" horiz-adv-x="698" 
d="M563 1970l-207 -368h-239l133 368h313zM637 0h-178q-170 0 -256 98t-86 228v1132h336v-1108q0 -68 67 -67h117v-283z" />
    <glyph glyph-name="Lcommaaccent" unicode="&#x13b;" horiz-adv-x="1179" 
d="M760 -109l-74 -294h-299l137 294h236zM1118 0h-971v1458h359v-1139h612v-319z" />
    <glyph glyph-name="lcommaaccent" unicode="&#x13c;" horiz-adv-x="698" 
d="M520 -109l-74 -294h-299l138 294h235zM637 0h-178q-170 0 -256 98t-86 228v1132h336v-1108q0 -68 67 -67h117v-283z" />
    <glyph glyph-name="Lcaron" unicode="&#x13d;" horiz-adv-x="1179" 
d="M1032 1458l-131 -354h-225l69 354h287zM1118 0h-971v1458h359v-1139h612v-319z" />
    <glyph glyph-name="lcaron" unicode="&#x13e;" horiz-adv-x="698" 
d="M928 1542l-131 -354h-226l70 354h287zM637 0h-178q-170 0 -256 98t-86 228v1132h336v-1108q0 -68 67 -67h117v-283z" />
    <glyph glyph-name="Ldot" unicode="&#x13f;" horiz-adv-x="1179" 
d="M1049 592h-283v282h283v-282zM1118 0h-971v1458h359v-1139h612v-319z" />
    <glyph glyph-name="ldot" unicode="&#x140;" horiz-adv-x="948" 
d="M901 459h-283v282h283v-282zM637 0h-178q-170 0 -256 98t-86 228v1132h336v-1108q0 -68 67 -67h117v-283z" />
    <glyph glyph-name="Lslash" unicode="&#x141;" horiz-adv-x="1226" 
d="M1165 0h-970v444l-123 -77v299l123 77v715h358v-489l231 145v-297l-231 -145v-353h612v-319z" />
    <glyph glyph-name="lslash" unicode="&#x142;" horiz-adv-x="712" 
d="M672 0h-178q-170 0 -256 98t-86 228v245l-101 -61v281l101 61v606h335v-405l101 61v-280l-101 -62v-422q0 -68 68 -67h117v-283z" />
    <glyph glyph-name="Nacute" unicode="&#x143;" horiz-adv-x="1433" 
d="M1026 1970l-207 -368h-239l133 368h313zM1286 0h-313l-467 733v-733h-359v1458h314l467 -733v733h358v-1458z" />
    <glyph glyph-name="nacute" unicode="&#x144;" horiz-adv-x="1185" 
d="M899 1618l-207 -369h-239l133 369h313zM1069 0h-336v659q0 84 -43 118t-92 34t-92 -34t-43 -118v-659h-336v1102h328v-90q102 102 256 102t247 -94q111 -111 111 -315v-705z" />
    <glyph glyph-name="Ncommaaccent" unicode="&#x145;" horiz-adv-x="1433" 
d="M887 -109l-74 -294h-299l137 294h236zM1286 0h-313l-467 733v-733h-359v1458h314l467 -733v733h358v-1458z" />
    <glyph glyph-name="ncommaaccent" unicode="&#x146;" horiz-adv-x="1185" 
d="M762 -109l-74 -294h-299l137 294h236zM1069 0h-336v659q0 84 -43 118t-92 34t-92 -34t-43 -118v-659h-336v1102h328v-90q102 102 256 102t247 -94q111 -111 111 -315v-705z" />
    <glyph glyph-name="Ncaron" unicode="&#x147;" horiz-adv-x="1433" 
d="M1128 1968l-278 -366h-266l-279 366h250l162 -170l162 170h249zM1286 0h-313l-467 733v-733h-359v1458h314l467 -733v733h358v-1458z" />
    <glyph glyph-name="ncaron" unicode="&#x148;" horiz-adv-x="1185" 
d="M1010 1616l-279 -367h-266l-279 367h250l162 -170l162 170h250zM1069 0h-336v659q0 84 -43 118t-92 34t-92 -34t-43 -118v-659h-336v1102h328v-90q102 102 256 102t247 -94q111 -111 111 -315v-705z" />
    <glyph glyph-name="napostrophe" unicode="&#x149;" horiz-adv-x="1185" 
d="M-160 1542h285v-233l-285 -207v440zM1069 0h-336v659q0 84 -43 118t-92 34t-92 -34t-43 -118v-659h-336v1102h328v-90q102 102 256 102t247 -94q111 -111 111 -315v-705z" />
    <glyph glyph-name="Eng" unicode="&#x14a;" horiz-adv-x="1433" 
d="M1286 -84q0 -129 -86 -227t-256 -99h-178v283h94q68 0 68 68v129l-422 663v-733h-359v1458h314l467 -733v733h358v-1542z" />
    <glyph glyph-name="eng" unicode="&#x14b;" horiz-adv-x="1185" 
d="M1069 -78q0 -129 -86 -227t-256 -98h-178v282h117q68 0 67 68v712q0 84 -43 118t-92 34t-92 -34t-43 -118v-659h-336v1102h328v-90q102 102 256 102t247 -94q111 -111 111 -315v-783z" />
    <glyph glyph-name="Omacron" unicode="&#x14c;" horiz-adv-x="1310" 
d="M989 1620h-667v215h667v-215zM852 729q0 184 -12 253q-29 167 -184 168t-185 -168q-12 -69 -12 -253t12 -252q30 -170 184 -170t185 170q12 68 12 252zM100 694q0 154 3 213t15 143q22 149 132 261q160 159 406 159t405 -159q110 -110 129 -248q20 -137 20 -295t-3 -217
q-10 -195 -51 -272q-42 -78 -95 -132q-160 -159 -406 -159t-405 159q-110 110 -130 252q-20 141 -20 295z" />
    <glyph glyph-name="omacron" unicode="&#x14d;" horiz-adv-x="1126" 
d="M897 1288h-668v215h668v-215zM702 551q0 180 -49 229q-31 31 -90 31t-90 -31q-49 -49 -49 -229t49 -229q31 -31 90 -31t90 31q49 49 49 229zM1038 550q0 -163 -26 -254t-94 -167q-132 -141 -354 -141t-355 141q-70 76 -95 167q-26 91 -26 254t27 256t94 167
q133 141 354 141t355 -141q68 -74 94 -167t26 -256z" />
    <glyph glyph-name="Obreve" unicode="&#x14e;" horiz-adv-x="1310" 
d="M658 1585q-136 0 -234 77t-102 245h217q9 -97 119 -97t118 97h217q-4 -168 -102 -245q-97 -77 -233 -77zM852 729q0 184 -12 253q-29 167 -184 168t-185 -168q-12 -69 -12 -253t12 -252q30 -170 184 -170t185 170q12 68 12 252zM100 694q0 154 3 213t15 143
q22 149 132 261q160 159 406 159t405 -159q110 -110 129 -248q20 -137 20 -295t-3 -217q-10 -195 -51 -272q-42 -78 -95 -132q-160 -159 -406 -159t-405 159q-110 110 -130 252q-20 141 -20 295z" />
    <glyph glyph-name="obreve" unicode="&#x14f;" horiz-adv-x="1126" 
d="M564 1233q-136 0 -234 77t-103 244h217q8 -96 119 -96t119 96h217q-4 -168 -102 -244q-97 -76 -233 -77zM702 551q0 180 -49 229q-31 31 -90 31t-90 -31q-49 -49 -49 -229t49 -229q31 -31 90 -31t90 31q49 49 49 229zM1038 550q0 -163 -26 -254t-94 -167
q-132 -141 -354 -141t-355 141q-70 76 -95 167q-26 91 -26 254t27 256t94 167q133 141 354 141t355 -141q68 -74 94 -167t26 -256z" />
    <glyph glyph-name="Ohungarumlaut" unicode="&#x150;" horiz-adv-x="1310" 
d="M715 1970l-207 -368h-240l133 368h314zM1176 1970l-207 -368h-240l133 368h314zM852 729q0 184 -12 253q-29 167 -184 168t-185 -168q-12 -69 -12 -253t12 -252q30 -170 184 -170t185 170q12 68 12 252zM100 694q0 154 3 213t15 143q22 149 132 261q160 159 406 159
t405 -159q110 -110 129 -248q20 -137 20 -295t-3 -217q-10 -195 -51 -272q-42 -78 -95 -132q-160 -159 -406 -159t-405 159q-110 110 -130 252q-20 141 -20 295z" />
    <glyph glyph-name="ohungarumlaut" unicode="&#x151;" horiz-adv-x="1126" 
d="M621 1618l-207 -369h-240l133 369h314zM1081 1618l-207 -369h-239l133 369h313zM702 551q0 180 -49 229q-31 31 -90 31t-90 -31q-49 -49 -49 -229t49 -229q31 -31 90 -31t90 31q49 49 49 229zM1038 550q0 -163 -26 -254t-94 -167q-132 -141 -354 -141t-355 141
q-70 76 -95 167q-26 91 -26 254t27 256t94 167q133 141 354 141t355 -141q68 -74 94 -167t26 -256z" />
    <glyph glyph-name="OE" unicode="&#x152;" horiz-adv-x="1949" 
d="M852 729q0 184 -12 253q-29 167 -184 168t-185 -168q-12 -69 -12 -253t12 -252q30 -170 184 -170t185 170q12 68 12 252zM1843 0h-991v53q-70 -65 -205 -65t-226 37t-159 104t-99 132q-63 128 -63 469t63 467q31 65 99 133q142 142 383 140q137 0 207 -65v53h991v-319
h-633v-244h541v-320h-541v-256h633v-319z" />
    <glyph glyph-name="oe" unicode="&#x153;" horiz-adv-x="1769" 
d="M1360 666q0 49 -19 86q-37 86 -145 86t-145 -86q-18 -37 -19 -86h328zM702 551q0 180 -49 229q-31 31 -90 31t-90 -31q-49 -49 -49 -229t49 -229q31 -31 90 -31t90 31q49 49 49 229zM1692 442h-660q0 -72 52 -122t138 -50t135 22q48 22 97 70l201 -200q-91 -90 -187 -132
t-241 -42q-223 0 -350 102q-125 -102 -330 -102t-338 141q-70 76 -95 167q-26 91 -26 254t27 256t94 167q133 141 340 141t334 -108q125 109 313 108q232 0 364 -148t132 -374v-150z" />
    <glyph glyph-name="Racute" unicode="&#x154;" horiz-adv-x="1335" 
d="M977 1970l-207 -368h-240l134 368h313zM864 989q0 59 -43 103t-112 45h-203v-295h203q71 0 113 44t42 103zM506 543v-543h-359v1458h578q231 0 365 -138t133 -331q0 -137 -70 -234t-168 -147l315 -608h-415l-258 543h-121z" />
    <glyph glyph-name="racute" unicode="&#x155;" horiz-adv-x="972" 
d="M799 1618l-207 -369h-240l133 369h314zM606 811q-56 0 -99 -35q-44 -35 -44 -117v-659h-336v1102h328v-90q102 102 259 102t259 -102l-254 -258q-57 57 -113 57z" />
    <glyph glyph-name="Rcommaaccent" unicode="&#x156;" horiz-adv-x="1335" 
d="M838 -109l-74 -294h-299l137 294h236zM864 989q0 59 -43 103t-112 45h-203v-295h203q71 0 113 44t42 103zM506 543v-543h-359v1458h578q231 0 365 -138t133 -331q0 -137 -70 -234t-168 -147l315 -608h-415l-258 543h-121z" />
    <glyph glyph-name="rcommaaccent" unicode="&#x157;" horiz-adv-x="972" 
d="M414 -109l-74 -294h-299l137 294h236zM606 811q-56 0 -99 -35q-44 -35 -44 -117v-659h-336v1102h328v-90q102 102 259 102t259 -102l-254 -258q-57 57 -113 57z" />
    <glyph glyph-name="Rcaron" unicode="&#x158;" horiz-adv-x="1335" 
d="M1079 1968l-278 -366h-266l-279 366h250l162 -170l161 170h250zM864 989q0 59 -43 103t-112 45h-203v-295h203q71 0 113 44t42 103zM506 543v-543h-359v1458h578q231 0 365 -138t133 -331q0 -137 -70 -234t-168 -147l315 -608h-415l-258 543h-121z" />
    <glyph glyph-name="rcaron" unicode="&#x159;" horiz-adv-x="972" 
d="M899 1616l-278 -367h-267l-278 367h250l161 -170l162 170h250zM606 811q-56 0 -99 -35q-44 -35 -44 -117v-659h-336v1102h328v-90q102 102 259 102t259 -102l-254 -258q-57 57 -113 57z" />
    <glyph glyph-name="Sacute" unicode="&#x15a;" horiz-adv-x="1214" 
d="M915 1970l-206 -368h-240l133 368h313zM1126 445q0 -213 -160 -335t-403 -122q-180 0 -314 42t-239 150l230 230q102 -102 318 -102t216 130q0 55 -29 86q-31 31 -96 39l-176 25q-195 29 -294 130t-99 298q0 198 144 326t388 128q317 0 492 -174l-225 -225
q-53 53 -115 69t-156 17q-92 0 -137 -41t-45 -87t32 -78t97 -40l176 -24q193 -27 294 -127t101 -315z" />
    <glyph glyph-name="sacute" unicode="&#x15b;" horiz-adv-x="1032" 
d="M823 1618l-207 -369h-239l133 369h313zM977 360q0 -184 -135 -278t-342 -94q-102 0 -168 7t-153 44t-159 108l218 218q92 -92 268 -93q51 0 97 16t46 56q0 61 -80 70l-170 16q-319 31 -319 320q0 172 130 268t308 96q299 0 434 -135l-207 -207q-66 66 -233 66
q-55 0 -82 -20t-27 -44q0 -53 72 -61l170 -17q166 -16 249 -106t83 -230z" />
    <glyph glyph-name="Scircumflex" unicode="&#x15c;" horiz-adv-x="1214" 
d="M1020 1602h-250l-162 170l-162 -170h-249l278 366h266zM1126 445q0 -213 -160 -335t-403 -122q-180 0 -314 42t-239 150l230 230q102 -102 318 -102t216 130q0 55 -29 86q-31 31 -96 39l-176 25q-195 29 -294 130t-99 298q0 198 144 326t388 128q317 0 492 -174
l-225 -225q-53 53 -115 69t-156 17q-92 0 -137 -41t-45 -87t32 -78t97 -40l176 -24q193 -27 294 -127t101 -315z" />
    <glyph glyph-name="scircumflex" unicode="&#x15d;" horiz-adv-x="1032" 
d="M954 1249h-249l-162 170l-162 -170h-250l279 367h266zM977 360q0 -184 -135 -278t-342 -94q-102 0 -168 7t-153 44t-159 108l218 218q92 -92 268 -93q51 0 97 16t46 56q0 61 -80 70l-170 16q-319 31 -319 320q0 172 130 268t308 96q299 0 434 -135l-207 -207
q-66 66 -233 66q-55 0 -82 -20t-27 -44q0 -53 72 -61l170 -17q166 -16 249 -106t83 -230z" />
    <glyph glyph-name="Scedilla" unicode="&#x15e;" horiz-adv-x="1214" 
d="M754 -109l-74 -294h-299l137 294h236zM1126 445q0 -213 -160 -335t-403 -122q-180 0 -314 42t-239 150l230 230q102 -102 318 -102t216 130q0 55 -29 86q-31 31 -96 39l-176 25q-195 29 -294 130t-99 298q0 198 144 326t388 128q317 0 492 -174l-225 -225q-53 53 -115 69
t-156 17q-92 0 -137 -41t-45 -87t32 -78t97 -40l176 -24q193 -27 294 -127t101 -315z" />
    <glyph glyph-name="scedilla" unicode="&#x15f;" horiz-adv-x="1032" 
d="M682 -109l-74 -294h-299l137 294h236zM977 360q0 -184 -135 -278t-342 -94q-102 0 -168 7t-153 44t-159 108l218 218q92 -92 268 -93q51 0 97 16t46 56q0 61 -80 70l-170 16q-319 31 -319 320q0 172 130 268t308 96q299 0 434 -135l-207 -207q-66 66 -233 66
q-55 0 -82 -20t-27 -44q0 -53 72 -61l170 -17q166 -16 249 -106t83 -230z" />
    <glyph glyph-name="Scaron" unicode="&#x160;" horiz-adv-x="1214" 
d="M1020 1968l-279 -366h-266l-278 366h249l162 -170l162 170h250zM1126 445q0 -213 -160 -335t-403 -122q-180 0 -314 42t-239 150l230 230q102 -102 318 -102t216 130q0 55 -29 86q-31 31 -96 39l-176 25q-195 29 -294 130t-99 298q0 198 144 326t388 128q317 0 492 -174
l-225 -225q-53 53 -115 69t-156 17q-92 0 -137 -41t-45 -87t32 -78t97 -40l176 -24q193 -27 294 -127t101 -315z" />
    <glyph glyph-name="scaron" unicode="&#x161;" horiz-adv-x="1032" 
d="M954 1616l-278 -367h-266l-279 367h250l162 -170l162 170h249zM977 360q0 -184 -135 -278t-342 -94q-102 0 -168 7t-153 44t-159 108l218 218q92 -92 268 -93q51 0 97 16t46 56q0 61 -80 70l-170 16q-319 31 -319 320q0 172 130 268t308 96q299 0 434 -135l-207 -207
q-66 66 -233 66q-55 0 -82 -20t-27 -44q0 -53 72 -61l170 -17q166 -16 249 -106t83 -230z" />
    <glyph glyph-name="Tcommaaccent" unicode="&#x162;" horiz-adv-x="1198" 
d="M721 -109l-74 -294h-299l137 294h236zM1137 1139h-359v-1139h-358v1139h-359v319h1076v-319z" />
    <glyph glyph-name="tcommaaccent" unicode="&#x163;" horiz-adv-x="743" 
d="M504 -109l-74 -294h-299l137 294h236zM662 0h-168q-170 0 -256 98t-86 228v475h-101v258h101v315h335v-315h175v-258h-175v-451q0 -68 68 -67h107v-283z" />
    <glyph glyph-name="Tcaron" unicode="&#x164;" horiz-adv-x="1198" 
d="M1010 1968l-279 -366h-266l-279 366h250l162 -170l162 170h250zM1137 1139h-359v-1139h-358v1139h-359v319h1076v-319z" />
    <glyph glyph-name="tcaron" unicode="&#x165;" horiz-adv-x="743" 
d="M924 1542l-131 -354h-226l70 354h287zM662 0h-168q-170 0 -256 98t-86 228v475h-101v258h101v315h335v-315h175v-258h-175v-451q0 -68 68 -67h107v-283z" />
    <glyph glyph-name="Tbar" unicode="&#x166;" horiz-adv-x="1198" 
d="M1137 1139h-359v-267h158v-274h-158v-598h-358v598h-160v274h160v267h-359v319h1076v-319z" />
    <glyph glyph-name="tbar" unicode="&#x167;" horiz-adv-x="743" 
d="M662 0h-168q-170 0 -256 98t-86 228v149h-101v258h101v68h-101v258h101v315h335v-315h175v-258h-175v-68h175v-258h-175v-125q0 -68 68 -67h107v-283z" />
    <glyph glyph-name="Utilde" unicode="&#x168;" horiz-adv-x="1351" 
d="M809 1614q-79 0 -147 40t-127 40t-115 -56l-139 142q70 70 125 100q54 30 134 29q80 0 148 -40t126 -40t114 55l143 -141q-70 -69 -126 -99t-136 -30zM1229 512q0 -232 -161 -378t-394 -146t-392 145t-159 379v946h358v-938q0 -100 51 -156q52 -56 142 -56t143 56t53 156
v938h359v-946z" />
    <glyph glyph-name="utilde" unicode="&#x169;" horiz-adv-x="1185" 
d="M981 1391q-70 -70 -126 -100q-56 -29 -136 -29q-79 0 -147 40q-140 83 -242 -16l-140 141q70 70 125 100q55 29 135 29t148 -40t126 -40t114 56zM1059 0h-328v90q-102 -102 -256 -102q-155 0 -257 102t-101 307v705h336v-660q0 -84 43 -118t92 -33q49 0 92 34t43 117v660
h336v-1102z" />
    <glyph glyph-name="Umacron" unicode="&#x16a;" horiz-adv-x="1351" 
d="M1010 1620h-668v215h668v-215zM1229 512q0 -232 -161 -378t-394 -146t-392 145t-159 379v946h358v-938q0 -100 51 -156q52 -56 142 -56t143 56t53 156v938h359v-946z" />
    <glyph glyph-name="umacron" unicode="&#x16b;" horiz-adv-x="1185" 
d="M922 1288h-668v215h668v-215zM1059 0h-328v90q-102 -102 -256 -102q-155 0 -257 102t-101 307v705h336v-660q0 -84 43 -118t92 -33q49 0 92 34t43 117v660h336v-1102z" />
    <glyph glyph-name="Ubreve" unicode="&#x16c;" horiz-adv-x="1351" 
d="M674 1585q-135 0 -234 77q-98 77 -102 245h217q8 -97 119 -97t119 97h217q-4 -168 -102 -245t-234 -77zM1229 512q0 -232 -161 -378t-394 -146t-392 145t-159 379v946h358v-938q0 -100 51 -156q52 -56 142 -56t143 56t53 156v938h359v-946z" />
    <glyph glyph-name="ubreve" unicode="&#x16d;" horiz-adv-x="1185" 
d="M588 1233q-135 0 -234 77q-98 77 -102 244h217q8 -96 119 -96t119 96h217q-4 -168 -102 -244t-234 -77zM1059 0h-328v90q-102 -102 -256 -102q-155 0 -257 102t-101 307v705h336v-660q0 -84 43 -118t92 -33q49 0 92 34t43 117v660h336v-1102z" />
    <glyph glyph-name="Uring" unicode="&#x16e;" horiz-adv-x="1351" 
d="M782 1849q0 43 -31 75q-32 32 -75 32t-75 -32t-32 -75t32 -75t75 -31q42 -1 74 31t32 75zM676 2132q118 0 200 -82t82 -200t-82 -200t-200 -83q-117 0 -200 83q-83 84 -83 200t83 199t200 83zM1229 512q0 -232 -161 -378t-394 -146t-392 145t-159 379v946h358v-938
q0 -100 51 -156q52 -56 142 -56t143 56t53 156v938h359v-946z" />
    <glyph glyph-name="uring" unicode="&#x16f;" horiz-adv-x="1185" 
d="M698 1497q0 43 -31 75q-32 32 -75 32t-75 -32t-32 -75t32 -75t75 -32t75 32q31 32 31 75zM592 1780q118 0 200 -82t82 -200t-82 -201t-200 -83q-117 0 -200 83t-83 200t83 200t200 83zM1059 0h-328v90q-102 -102 -256 -102q-155 0 -257 102t-101 307v705h336v-660
q0 -84 43 -118t92 -33q49 0 92 34t43 117v660h336v-1102z" />
    <glyph glyph-name="Uhungarumlaut" unicode="&#x170;" horiz-adv-x="1351" 
d="M735 1970l-207 -368h-239l133 368h313zM1196 1970l-207 -368h-239l133 368h313zM1229 512q0 -232 -161 -378t-394 -146t-392 145t-159 379v946h358v-938q0 -100 51 -156q52 -56 142 -56t143 56t53 156v938h359v-946z" />
    <glyph glyph-name="uhungarumlaut" unicode="&#x171;" horiz-adv-x="1185" 
d="M645 1618l-207 -369h-239l133 369h313zM1106 1618l-207 -369h-240l134 369h313zM1059 0h-328v90q-102 -102 -256 -102q-155 0 -257 102t-101 307v705h336v-660q0 -84 43 -118t92 -33q49 0 92 34t43 117v660h336v-1102z" />
    <glyph glyph-name="Uogonek" unicode="&#x172;" horiz-adv-x="1351" 
d="M1038 -115l-73 -295h-299l137 295h235zM1229 512q0 -232 -161 -378t-394 -146t-392 145t-159 379v946h358v-938q0 -100 51 -156q52 -56 142 -56t143 56t53 156v938h359v-946z" />
    <glyph glyph-name="uogonek" unicode="&#x173;" horiz-adv-x="1185" 
d="M967 -115l-74 -295h-299l137 295h236zM1059 0h-328v90q-102 -102 -256 -102q-155 0 -257 102t-101 307v705h336v-660q0 -84 43 -118t92 -33q49 0 92 34t43 117v660h336v-1102z" />
    <glyph glyph-name="Wcircumflex" unicode="&#x174;" horiz-adv-x="1855" 
d="M1339 1602h-249l-162 170l-162 -170h-250l279 366h266zM1855 1458l-399 -1458h-293l-235 719l-236 -719h-291l-401 1458h375l190 -770l236 770h254l235 -770l191 770h374z" />
    <glyph glyph-name="wcircumflex" unicode="&#x175;" horiz-adv-x="1597" 
d="M1210 1249h-249l-162 170l-162 -170h-250l279 367h266zM1597 1102l-331 -1102h-269l-198 604l-199 -604h-268l-332 1102h354l138 -572l190 572h233l191 -572l137 572h354z" />
    <glyph glyph-name="Ycircumflex" unicode="&#x176;" horiz-adv-x="1239" 
d="M1032 1602h-250l-161 170l-162 -170h-250l278 366h267zM799 0h-359v594l-440 864h391l230 -524l227 524h391l-440 -864v-594z" />
    <glyph glyph-name="ycircumflex" unicode="&#x177;" horiz-adv-x="1052" 
d="M948 1249h-250l-161 170l-162 -170h-250l278 367h267zM152 -369v303h71q47 0 72 16t41 66l31 93l-367 993h352l187 -572l178 572h352l-457 -1233q-33 -92 -86 -145q-86 -92 -247 -93h-127z" />
    <glyph glyph-name="Ydieresis" unicode="&#x178;" horiz-adv-x="1239" 
d="M524 1599h-274v297h274v-297zM987 1599h-274v297h274v-297zM799 0h-359v594l-440 864h391l230 -524l227 524h391l-440 -864v-594z" />
    <glyph glyph-name="Zacute" unicode="&#x179;" horiz-adv-x="1112" 
d="M864 1970l-207 -368h-239l133 368h313zM1051 0h-990v279l560 860h-535v319h965v-278l-562 -861h562v-319z" />
    <glyph glyph-name="zacute" unicode="&#x17a;" horiz-adv-x="1001" 
d="M805 1618l-207 -369h-240l134 369h313zM920 0h-859v248l420 551h-395v303h834v-248l-428 -551h428v-303z" />
    <glyph glyph-name="Zdotaccent" unicode="&#x17b;" horiz-adv-x="1112" 
d="M696 1608h-282v282h282v-282zM1051 0h-990v279l560 860h-535v319h965v-278l-562 -861h562v-319z" />
    <glyph glyph-name="zdotaccent" unicode="&#x17c;" horiz-adv-x="1001" 
d="M635 1255h-283v283h283v-283zM920 0h-859v248l420 551h-395v303h834v-248l-428 -551h428v-303z" />
    <glyph glyph-name="Zcaron" unicode="&#x17d;" horiz-adv-x="1112" 
d="M971 1968l-279 -366h-266l-279 366h250l162 -170l162 170h250zM1051 0h-990v279l560 860h-535v319h965v-278l-562 -861h562v-319z" />
    <glyph glyph-name="zcaron" unicode="&#x17e;" horiz-adv-x="1001" 
d="M905 1616l-278 -367h-267l-278 367h250l162 -170l161 170h250zM920 0h-859v248l420 551h-395v303h834v-248l-428 -551h428v-303z" />
    <glyph glyph-name="longs" unicode="&#x17f;" horiz-adv-x="589" 
d="M463 1130v-1130h-336v1155q0 129 86 227t256 99h178v-283h-117q-67 0 -67 -68z" />
    <glyph glyph-name="uni018F" unicode="&#x18f;" horiz-adv-x="1325" 
d="M457 541v-21q0 -100 54 -156q55 -56 155 -56t147 61q37 47 47 172h-403zM100 637v203h764q-4 182 -51 247q-49 63 -140 63t-139 -38q-48 -39 -71 -125h-361q31 205 170 344q140 139 392 139t411 -159q110 -110 130 -251q20 -142 20 -296t-3 -213q-10 -193 -52 -271
q-158 -292 -510 -292q-254 0 -412 164q-82 84 -115 194t-33 291z" />
    <glyph glyph-name="florin" unicode="&#x192;" horiz-adv-x="903" 
d="M842 1198h-164q-68 0 -80 -68l-53 -303h184v-258h-229l-164 -925h-336l164 925h-101v258h146l57 328q23 129 126 227t274 99h176v-283z" />
    <glyph glyph-name="uni01B5" unicode="&#x1b5;" horiz-adv-x="1112" 
d="M1051 0h-990v279l209 321h-47v274h226l172 265h-535v319h965v-278l-199 -306h47v-274h-227l-183 -281h562v-319z" />
    <glyph glyph-name="uni01B6" unicode="&#x1b6;" horiz-adv-x="1001" 
d="M920 0h-859v248l152 198h-41v209h199l110 144h-395v303h834v-248l-156 -199h43v-209h-205l-110 -143h428v-303z" />
    <glyph glyph-name="uni01C4" unicode="&#x1c4;" horiz-adv-x="2445" 
d="M2304 1968l-279 -366h-266l-278 366h250l161 -170l162 170h250zM2384 0h-989v279l559 860h-535v319h965v-278l-561 -861h561v-319zM874 729q0 175 -8 235q-23 174 -202 175h-158v-820h158q117 0 172 82q22 33 30 93t8 235zM1233 729q0 -217 -11 -310t-61 -173
q-152 -246 -473 -246h-541v1458h541q322 0 473 -246q49 -80 61 -173t11 -310z" />
    <glyph glyph-name="uni01C5" unicode="&#x1c5;" horiz-adv-x="2334" 
d="M2238 1616l-278 -367h-266l-279 367h250l162 -170l162 170h249zM2253 0h-858v248l420 551h-396v303h834v-248l-428 -551h428v-303zM874 729q0 175 -8 235q-23 174 -202 175h-158v-820h158q117 0 172 82q22 33 30 93t8 235zM1233 729q0 -217 -11 -310t-61 -173
q-152 -246 -473 -246h-541v1458h541q322 0 473 -246q49 -80 61 -173t11 -310z" />
    <glyph glyph-name="uni01C6" unicode="&#x1c6;" horiz-adv-x="2166" 
d="M2071 1616l-279 -367h-266l-279 367h250l162 -170l162 170h250zM2085 0h-858v248l420 551h-396v303h834v-248l-428 -551h428v-303zM702 551q0 137 -26 199q-27 61 -113 61q-87 0 -113 -61q-26 -60 -26 -198t27 -200t113 -61q86 0 112 61q26 62 26 199zM1038 0h-325v90
q-102 -102 -263 -102t-257 100q-47 49 -72 130t-29 147q-4 67 -4 187t4 186t29 146q25 81 72 130q96 100 257 100t252 -92v436h336v-1458z" />
    <glyph glyph-name="uni01C7" unicode="&#x1c7;" horiz-adv-x="2236" 
d="M2109 500q-1 -244 -163 -378t-385 -134q-129 0 -219 36t-179 123l236 234q74 -74 162 -74t139 50t51 151v950h358v-958zM1118 0h-971v1458h359v-1139h612v-319z" />
    <glyph glyph-name="uni01C8" unicode="&#x1c8;" horiz-adv-x="1769" 
d="M1642 1214h-335v256h335v-256zM1642 -43q0 -129 -86 -227t-256 -99h-178v283h117q68 0 68 68v1077h335v-1102zM1118 0h-971v1458h359v-1139h612v-319z" />
    <glyph glyph-name="uni01C9" unicode="&#x1c9;" horiz-adv-x="1288" 
d="M1161 1214h-336v256h336v-256zM1161 -43q0 -129 -86 -227t-256 -99h-178v283h117q68 0 67 68v1077h336v-1102zM637 0h-178q-170 0 -256 98t-86 228v1132h336v-1108q0 -68 67 -67h117v-283z" />
    <glyph glyph-name="uni01CA" unicode="&#x1ca;" horiz-adv-x="2490" 
d="M2363 500q-1 -244 -163 -378t-385 -134q-129 0 -219 36t-179 123l236 234q74 -74 162 -74t139 50t51 151v950h358v-958zM1286 0h-313l-467 733v-733h-359v1458h314l467 -733v733h358v-1458z" />
    <glyph glyph-name="uni01CB" unicode="&#x1cb;" horiz-adv-x="2023" 
d="M1896 1214h-335v256h335v-256zM1896 -43q0 -129 -86 -227t-256 -99h-178v283h117q68 0 68 68v1077h335v-1102zM1286 0h-313l-467 733v-733h-359v1458h314l467 -733v733h358v-1458z" />
    <glyph glyph-name="uni01CC" unicode="&#x1cc;" horiz-adv-x="1775" 
d="M1649 1214h-336v256h336v-256zM1649 -43q0 -129 -86 -227t-256 -99h-179v283h117q68 0 68 68v1077h336v-1102zM1069 0h-336v659q0 84 -43 118t-92 34t-92 -34t-43 -118v-659h-336v1102h328v-90q102 102 256 102t247 -94q111 -111 111 -315v-705z" />
    <glyph glyph-name="uni01F1" unicode="&#x1f1;" horiz-adv-x="2445" 
d="M2384 0h-989v279l559 860h-535v319h965v-278l-561 -861h561v-319zM874 729q0 175 -8 235q-23 174 -202 175h-158v-820h158q117 0 172 82q22 33 30 93t8 235zM1233 729q0 -217 -11 -310t-61 -173q-152 -246 -473 -246h-541v1458h541q322 0 473 -246q49 -80 61 -173
t11 -310z" />
    <glyph glyph-name="uni01F2" unicode="&#x1f2;" horiz-adv-x="2334" 
d="M2253 0h-858v248l420 551h-396v303h834v-248l-428 -551h428v-303zM874 729q0 175 -8 235q-23 174 -202 175h-158v-820h158q117 0 172 82q22 33 30 93t8 235zM1233 729q0 -217 -11 -310t-61 -173q-152 -246 -473 -246h-541v1458h541q322 0 473 -246q49 -80 61 -173
t11 -310z" />
    <glyph glyph-name="uni01F3" unicode="&#x1f3;" horiz-adv-x="2166" 
d="M2085 0h-858v248l420 551h-396v303h834v-248l-428 -551h428v-303zM702 551q0 137 -26 199q-27 61 -113 61q-87 0 -113 -61q-26 -60 -26 -198t27 -200t113 -61q86 0 112 61q26 62 26 199zM1038 0h-325v90q-102 -102 -263 -102t-257 100q-47 49 -72 130t-29 147
q-4 67 -4 187t4 186t29 146q25 81 72 130q96 100 257 100t252 -92v436h336v-1458z" />
    <glyph glyph-name="Aringacute" unicode="&#x1fa;" horiz-adv-x="1337" 
d="M977 2501l-207 -369h-240l134 369h313zM774 1829q0 43 -32 75t-74 32t-75 -32q-32 -32 -32 -75t32 -75t75 -32q42 0 74 32t32 75zM950 1830q0 -118 -83 -201t-199 -83t-200 83q-83 83 -83 200t83 200t200 83q118 0 200 -82t82 -200zM801 516l-123 389l-131 -389h254z
M1337 0h-374l-68 217h-449l-71 -217h-375l530 1458h277z" />
    <glyph glyph-name="aringacute" unicode="&#x1fb;" horiz-adv-x="1097" 
d="M856 2169l-207 -369h-239l133 369h313zM651 1497q0 43 -31 75q-32 32 -75 32t-75 -32t-32 -75t32 -75t75 -32t75 32q31 32 31 75zM545 1780q117 0 199 -82t83 -200q0 -118 -83 -201q-84 -83 -200 -83t-199 83t-83 200t83 200t200 83zM377 352q-1 -90 129 -90q68 0 108 36
t39 116v28h-159q-117 0 -117 -90zM989 0h-327v90q-54 -53 -108 -77t-138 -23q-166 0 -263 97t-97 245t96 241q96 92 284 93h217v28q0 74 -39 106t-131 32t-170 -78l-209 209q84 83 172 117t228 34q485 0 485 -399v-715z" />
    <glyph glyph-name="AEacute" unicode="&#x1fc;" horiz-adv-x="2074" 
d="M1464 1970l-207 -368h-239l133 368h313zM977 604v535l-279 -535h279zM1968 0h-991v305h-434l-158 -305h-385l758 1458h1210v-319h-633v-244h541v-320h-541v-256h633v-319z" />
    <glyph glyph-name="aeacute" unicode="&#x1fd;" horiz-adv-x="1720" 
d="M1098 1618l-207 -369h-240l133 369h314zM377 352q-1 -90 129 -90q68 0 108 36t39 116v28h-159q-117 0 -117 -90zM1311 666q0 47 -19 86q-39 86 -145 86t-146 -86q-18 -39 -18 -86h328zM1642 442h-659q0 -72 52 -122q53 -50 139 -50t134 22t97 70l201 -200
q-90 -90 -186 -132t-242 -42q-252 0 -385 133q-93 -84 -175 -109t-202 -24q-164 0 -262 98t-98 246t96 241q96 92 284 93h217v28q0 74 -39 106t-131 32t-170 -78l-209 209q84 83 172 117t228 34q229 0 348 -92q119 92 295 92q233 0 364 -148t131 -384v-140z" />
    <glyph glyph-name="Oslashacute" unicode="&#x1fe;" horiz-adv-x="1310" 
d="M965 1970l-207 -368h-240l133 368h314zM459 762q0 -152 6 -223l280 591q-41 20 -90 21q-154 1 -184 -169q-12 -68 -12 -220zM655 307q155 1 185 171q12 68 12 218q0 152 -6 224l-281 -590q39 -23 90 -23zM100 729q0 349 64 467q33 61 86 115q160 160 405 159
q123 0 215 -36l56 114h241l-110 -233q111 -111 132 -249t21 -297t-3 -218q-10 -195 -51 -272q-42 -78 -95 -132q-160 -160 -406 -159q-123 0 -215 37l-55 -115h-242l113 231q-113 113 -136 266q-13 85 -17 144q-3 59 -3 178z" />
    <glyph glyph-name="oslashacute" unicode="&#x1ff;" horiz-adv-x="1126" 
d="M874 1618l-206 -369h-240l133 369h313zM555 811q-51 0 -82 -31q-49 -49 -49 -229q0 -74 4 -102l205 348q-27 14 -78 14zM702 551q0 74 -4 102l-204 -348q28 -14 78 -14t81 31q49 49 49 229zM1038 544q0 -157 -26 -248t-94 -167q-133 -141 -355 -141q-117 0 -213 41
l-69 -119h-191l125 213q-82 86 -104 180q-23 94 -23 252t27 251t94 167q133 141 354 141q117 0 213 -41l70 119h190l-125 -213q79 -86 103 -182t24 -253z" />
    <glyph glyph-name="Scommaaccent" unicode="&#x218;" horiz-adv-x="1214" 
d="M674 -109l-74 -294h-299l137 294h236zM1126 445q0 -213 -160 -335t-403 -122q-180 0 -314 42t-239 150l230 230q102 -102 318 -102t216 130q0 55 -29 86q-31 31 -96 39l-176 25q-195 29 -294 130t-99 298q0 198 144 326t388 128q317 0 492 -174l-225 -225q-53 53 -115 69
t-156 17q-92 0 -137 -41t-45 -87t32 -78t97 -40l176 -24q193 -27 294 -127t101 -315z" />
    <glyph glyph-name="scommaaccent" unicode="&#x219;" horiz-adv-x="1032" 
d="M608 -109l-73 -294h-299l137 294h235zM977 360q0 -184 -135 -278t-342 -94q-102 0 -168 7t-153 44t-159 108l218 218q92 -92 268 -93q51 0 97 16t46 56q0 61 -80 70l-170 16q-319 31 -319 320q0 172 130 268t308 96q299 0 434 -135l-207 -207q-66 66 -233 66
q-55 0 -82 -20t-27 -44q0 -53 72 -61l170 -17q166 -16 249 -106t83 -230z" />
    <glyph glyph-name="uni021A" unicode="&#x21a;" horiz-adv-x="1198" 
d="M721 -109l-74 -294h-299l137 294h236zM1137 1139h-359v-1139h-358v1139h-359v319h1076v-319z" />
    <glyph glyph-name="uni021B" unicode="&#x21b;" horiz-adv-x="743" 
d="M504 -109l-74 -294h-299l137 294h236zM662 0h-168q-170 0 -256 98t-86 228v475h-101v258h101v315h335v-315h175v-258h-175v-451q0 -68 68 -67h107v-283z" />
    <glyph glyph-name="uni0237" unicode="&#x237;" horiz-adv-x="589" 
d="M463 -43q0 -129 -86 -227t-256 -99h-178v283h116q68 0 68 68v1077h336v-1102z" />
    <glyph glyph-name="uni0259" unicode="&#x259;" horiz-adv-x="1144" 
d="M410 436q0 -47 18 -86q39 -86 145 -86t146 86q18 39 18 86h-327zM78 659h659q0 72 -52 122t-138 50q-86 1 -134 -21t-98 -71l-200 201q90 90 186 132t242 42q524 0 524 -563q0 -264 -136 -414q-135 -149 -363 -149t-359 148t-131 384v139z" />
    <glyph glyph-name="uni02BB" unicode="&#x2bb;" horiz-adv-x="569" 
d="M453 1159h-336v299l336 246v-545z" />
    <glyph glyph-name="afii57929" unicode="&#x2bc;" horiz-adv-x="569" 
d="M117 1458h336v-301l-336 -242v543z" />
    <glyph glyph-name="circumflex" unicode="&#x2c6;" horiz-adv-x="1024" 
d="M920 1249h-246l-162 170l-162 -170h-246l279 367h258z" />
    <glyph glyph-name="caron" unicode="&#x2c7;" horiz-adv-x="1024" 
d="M920 1616l-279 -367h-258l-279 367h246l162 -170l162 170h246z" />
    <glyph glyph-name="breve" unicode="&#x2d8;" horiz-adv-x="1024" 
d="M512 1233q-135 0 -233 77t-103 244h217q8 -96 119 -96t119 96h217q-4 -168 -102 -244t-234 -77z" />
    <glyph glyph-name="dotaccent" unicode="&#x2d9;" horiz-adv-x="1024" 
d="M653 1255h-282v283h282v-283z" />
    <glyph glyph-name="ring" unicode="&#x2da;" horiz-adv-x="1024" 
d="M618 1497q0 43 -31 75q-32 32 -75 32t-75 -32q-31 -32 -31 -75t32 -75t74 -32q43 0 75 32q31 32 31 75zM795 1498q0 -118 -83 -201t-200 -83t-200 83t-83 200t83 200t200 83t200 -82t83 -200z" />
    <glyph glyph-name="ogonek" unicode="&#x2db;" horiz-adv-x="1024" 
d="M881 -115l-74 -295h-299l137 295h236z" />
    <glyph glyph-name="tilde" unicode="&#x2dc;" horiz-adv-x="1024" 
d="M958 1391q-70 -70 -126 -100q-56 -29 -135 -29t-147 40q-141 84 -243 -16l-139 141q70 70 125 100q55 29 135 29t148 -40t125 -40q58 0 114 56z" />
    <glyph glyph-name="hungarumlaut" unicode="&#x2dd;" horiz-adv-x="1024" 
d="M965 1618l-242 -369h-203l101 369h344zM504 1618l-240 -369h-205l101 369h344z" />
    <glyph glyph-name="uni037E" unicode="&#x37e;" horiz-adv-x="649" 
d="M532 518h-368v369h368v-369zM170 356h356v-458l-356 -263v721z" />
    <glyph glyph-name="tonos" unicode="&#x384;" horiz-adv-x="1024" 
d="M389 1544h268v-241l-268 -111v352z" />
    <glyph glyph-name="dieresistonos" unicode="&#x385;" horiz-adv-x="1011" 
d="M274 1247h-274v297h274v-297zM385 1618h268v-242l-268 -110v352zM1012 1247h-275v297h275v-297z" />
    <glyph glyph-name="Alphatonos" unicode="&#x386;" horiz-adv-x="1337" 
d="M-41 1458h268v-241l-268 -111v352zM801 516l-123 389l-131 -389h254zM1337 0h-374l-68 217h-449l-71 -217h-375l530 1458h277z" />
    <glyph glyph-name="anoteleia" unicode="&#x387;" horiz-adv-x="573" 
d="M473 436h-373v336h373v-336z" />
    <glyph glyph-name="Epsilontonos" unicode="&#x388;" horiz-adv-x="1245" 
d="M-248 1458h268v-241l-268 -111v352zM1139 0h-992v1458h992v-319h-633v-244h541v-320h-541v-256h633v-319z" />
    <glyph glyph-name="Etatonos" unicode="&#x389;" horiz-adv-x="1392" 
d="M-246 1458h269v-241l-269 -111v352zM1245 0h-358v578h-381v-578h-359v1458h359v-561h381v561h358v-1458z" />
    <glyph glyph-name="Iotatonos" unicode="&#x38a;" horiz-adv-x="653" 
d="M-248 1458h268v-241l-268 -111v352zM506 0h-359v1458h359v-1458z" />
    <glyph glyph-name="Omicrontonos" unicode="&#x38c;" horiz-adv-x="1310" 
d="M-205 1458h268v-241l-268 -111v352zM852 729q0 184 -12 253q-29 167 -184 168t-185 -168q-12 -69 -12 -253t12 -252q30 -170 184 -170t185 170q12 68 12 252zM100 694q0 154 3 213t15 143q22 149 132 261q160 159 406 159t405 -159q110 -110 129 -248q20 -137 20 -295
t-3 -217q-10 -195 -51 -272q-42 -78 -95 -132q-160 -159 -406 -159t-405 159q-110 110 -130 252q-20 141 -20 295z" />
    <glyph glyph-name="Upsilontonos" unicode="&#x38e;" horiz-adv-x="1239" 
d="M-307 1458h268v-241l-268 -111v352zM799 0h-359v594l-440 864h391l230 -524l227 524h391l-440 -864v-594z" />
    <glyph glyph-name="Omegatonos" unicode="&#x38f;" horiz-adv-x="1310" 
d="M193 319q-93 121 -93 440t64 437q33 61 86 115q160 159 406 159t405 -159q110 -110 129 -248q20 -138 20 -334q0 -287 -92 -410h92v-319h-477v279q43 20 66 51q53 70 53 377t-52 375t-144 69q-92 0 -145 -69q-52 -70 -52 -376t53 -376q23 -31 66 -51v-279h-478v319h93z
M-205 1458h268v-241l-268 -111v352z" />
    <glyph glyph-name="iotadieresistonos" unicode="&#x390;" horiz-adv-x="698" 
d="M70 1247h-275v297h275v-297zM180 1618h269v-242l-269 -110v352zM807 1247h-275v297h275v-297zM637 0h-178q-170 0 -256 98t-86 228v776h336v-752q0 -68 67 -67h117v-283z" />
    <glyph glyph-name="Alpha" unicode="&#x391;" horiz-adv-x="1337" 
d="M801 516l-123 389l-131 -389h254zM1337 0h-374l-68 217h-449l-71 -217h-375l530 1458h277z" />
    <glyph glyph-name="Beta" unicode="&#x392;" horiz-adv-x="1337" 
d="M879 451q0 53 -32 90t-99 37h-242v-256h242q68 0 100 38t31 91zM858 1018q0 49 -31 84t-98 35h-223v-238h223q69 0 99 35t30 84zM1237 430q0 -202 -127 -316t-328 -114h-635v1458h605q223 0 344 -115t121 -301t-160 -294q65 -40 104 -86q76 -90 76 -232z" />
    <glyph glyph-name="Gamma" unicode="&#x393;" horiz-adv-x="1169" 
d="M1108 1139h-602v-1139h-359v1458h961v-319z" />
    <glyph glyph-name="uni0394" unicode="&#x394;" horiz-adv-x="1337" 
d="M868 299l-190 606l-203 -606h393zM1337 0h-1337l530 1458h277z" />
    <glyph glyph-name="Epsilon" unicode="&#x395;" horiz-adv-x="1245" 
d="M1139 0h-992v1458h992v-319h-633v-244h541v-320h-541v-256h633v-319z" />
    <glyph glyph-name="Zeta" unicode="&#x396;" horiz-adv-x="1112" 
d="M1051 0h-990v279l560 860h-535v319h965v-278l-562 -861h562v-319z" />
    <glyph glyph-name="Eta" unicode="&#x397;" horiz-adv-x="1392" 
d="M1245 0h-358v578h-381v-578h-359v1458h359v-561h381v561h358v-1458z" />
    <glyph glyph-name="Theta" unicode="&#x398;" horiz-adv-x="1310" 
d="M100 694q0 154 3 213t15 143q22 149 132 261q160 159 406 159t405 -159q110 -110 129 -248q20 -137 20 -295t-3 -217q-10 -195 -51 -272q-42 -78 -95 -132q-160 -159 -406 -159t-405 159q-110 110 -130 252q-20 141 -20 295zM655 307q93 -1 141 61t54 230h-389
q6 -168 53 -230t141 -61zM848 897q-8 137 -53 195t-139 58t-140 -58q-45 -58 -53 -195h385z" />
    <glyph glyph-name="Iota" unicode="&#x399;" horiz-adv-x="653" 
d="M506 0h-359v1458h359v-1458z" />
    <glyph glyph-name="Kappa" unicode="&#x39a;" horiz-adv-x="1378" 
d="M502 0h-355v1458h355v-516l422 516h438l-498 -590l514 -868h-417l-336 598l-123 -141v-457z" />
    <glyph glyph-name="Lambda" unicode="&#x39b;" horiz-adv-x="1296" 
d="M1296 0h-374l-265 893l-282 -893h-375l510 1458h276z" />
    <glyph glyph-name="Mu" unicode="&#x39c;" horiz-adv-x="1654" 
d="M1507 0h-358v698l-207 -360h-229l-207 360v-698h-359v1458h353l327 -643l328 643h352v-1458z" />
    <glyph glyph-name="Nu" unicode="&#x39d;" horiz-adv-x="1433" 
d="M1286 0h-313l-467 733v-733h-359v1458h314l467 -733v733h358v-1458z" />
    <glyph glyph-name="Xi" unicode="&#x39e;" horiz-adv-x="1247" 
d="M1141 0h-1035v319h338v256h-245v320h245v244h-338v319h1035v-319h-338v-244h246v-320h-246v-256h338v-319z" />
    <glyph glyph-name="Omicron" unicode="&#x39f;" horiz-adv-x="1310" 
d="M852 729q0 184 -12 253q-29 167 -184 168t-185 -168q-12 -69 -12 -253t12 -252q30 -170 184 -170t185 170q12 68 12 252zM100 694q0 154 3 213t15 143q22 149 132 261q160 159 406 159t405 -159q110 -110 129 -248q20 -137 20 -295t-3 -217q-10 -195 -51 -272
q-42 -78 -95 -132q-160 -159 -406 -159t-405 159q-110 110 -130 252q-20 141 -20 295z" />
    <glyph glyph-name="Pi" unicode="&#x3a0;" horiz-adv-x="1392" 
d="M1245 0h-358v1139h-381v-1139h-359v1458h1098v-1458z" />
    <glyph glyph-name="Rho" unicode="&#x3a1;" horiz-adv-x="1284" 
d="M864 989q0 59 -43 103t-112 45h-203v-295h203q71 0 113 44t42 103zM1223 989q0 -193 -133 -331t-365 -138h-219v-520h-359v1458h578q231 0 365 -138t133 -331z" />
    <glyph glyph-name="Sigma" unicode="&#x3a3;" horiz-adv-x="1112" 
d="M1059 1139h-535l242 -389l-277 -431h562v-319h-990v279l314 471l-281 430v278h965v-319z" />
    <glyph glyph-name="Tau" unicode="&#x3a4;" horiz-adv-x="1198" 
d="M1137 1139h-359v-1139h-358v1139h-359v319h1076v-319z" />
    <glyph glyph-name="Upsilon" unicode="&#x3a5;" horiz-adv-x="1239" 
d="M799 0h-359v594l-440 864h391l230 -524l227 524h391l-440 -864v-594z" />
    <glyph glyph-name="Phi" unicode="&#x3a6;" horiz-adv-x="1640" 
d="M641 430v598q-105 0 -153 -73t-48 -227t48 -226t153 -72zM999 430q105 0 153 72t48 226q0 156 -47 228t-154 72v-598zM1559 729q0 -305 -157 -462t-403 -156v-111h-358v111q-246 1 -403 157t-156 461q0 305 156 462t403 157v110h358v-110q246 0 403 -157t157 -462z" />
    <glyph glyph-name="Chi" unicode="&#x3a7;" horiz-adv-x="1298" 
d="M1298 0h-409l-240 449l-239 -449h-410l455 748l-426 710h407l213 -411l213 411h408l-426 -710z" />
    <glyph glyph-name="Psi" unicode="&#x3a8;" horiz-adv-x="1619" 
d="M1528 750q0 -184 -153 -337t-386 -159v-254h-358v254q-233 6 -385 158t-154 338v708h359v-708q0 -66 56 -118t124 -59v885h358v-885q68 7 124 59t56 118v708h359v-708z" />
    <glyph glyph-name="uni03A9" unicode="&#x3a9;" horiz-adv-x="1310" 
d="M193 319q-93 121 -93 440t64 437q33 61 86 115q160 159 406 159t405 -159q110 -110 129 -248q20 -138 20 -334q0 -287 -92 -410h92v-319h-477v279q43 20 66 51q53 70 53 377t-52 375t-144 69q-92 0 -145 -69q-52 -70 -52 -376t53 -376q23 -31 66 -51v-279h-478v319h93z
" />
    <glyph glyph-name="Iotadieresis" unicode="&#x3aa;" horiz-adv-x="653" 
d="M236 1599h-275v297h275v-297zM698 1599h-274v297h274v-297zM506 0h-359v1458h359v-1458z" />
    <glyph glyph-name="Upsilondieresis" unicode="&#x3ab;" horiz-adv-x="1239" 
d="M524 1599h-274v297h274v-297zM987 1599h-274v297h274v-297zM799 0h-359v594l-440 864h391l230 -524l227 524h391l-440 -864v-594z" />
    <glyph glyph-name="alphatonos" unicode="&#x3ac;" horiz-adv-x="1165" 
d="M451 1544h268v-241l-268 -111v352zM702 551q0 137 -26 199q-27 61 -113 61q-87 0 -113 -61q-26 -60 -26 -198t27 -200t113 -61q86 0 112 61q26 62 26 199zM1038 0h-325v90q-102 -102 -263 -102t-257 100q-47 49 -72 130t-29 147q-4 67 -4 187t4 186t29 146
q71 230 338 230q152 0 254 -102v90h325v-1102z" />
    <glyph glyph-name="epsilontonos" unicode="&#x3ad;" horiz-adv-x="1077" 
d="M451 1544h268v-241l-268 -111v352zM550 -12q-194 0 -336 83t-142 257q0 137 106 214q18 13 51 33q-113 81 -113 219t134 228q133 90 347 90t411 -158l-179 -223q-125 109 -233 109q-150 0 -150 -95q0 -27 25 -43t64 -16h210v-252h-229q-104 0 -104 -67q0 -49 54 -75
t132 -26t135 26t119 89l205 -197q-119 -124 -216 -160t-291 -36z" />
    <glyph glyph-name="etatonos" unicode="&#x3ae;" horiz-adv-x="1185" 
d="M451 1544h268v-241l-268 -111v352zM1069 0h-336v659q0 84 -43 118t-92 34t-92 -34t-43 -118v-659h-336v1102h328v-90q102 102 256 102t247 -94q111 -111 111 -315v-705z" />
    <glyph glyph-name="iotatonos" unicode="&#x3af;" horiz-adv-x="698" 
d="M164 1544h268v-241l-268 -111v352zM637 0h-178q-170 0 -256 98t-86 228v776h336v-752q0 -68 67 -67h117v-283z" />
    <glyph glyph-name="upsilondieresistonos" unicode="&#x3b0;" horiz-adv-x="1146" 
d="M330 1247h-275v297h275v-297zM440 1618h269v-242l-269 -110v352zM1067 1247h-274v297h274v-297zM1044 551q0 -166 -24 -257t-92 -165q-132 -141 -354 -141t-355 141q-68 74 -92 165q-25 91 -25 257v551h336v-660q0 -84 43 -118t92 -33q49 0 93 34q43 34 43 117v660h335
v-551z" />
    <glyph glyph-name="alpha" unicode="&#x3b1;" horiz-adv-x="1165" 
d="M702 551q0 137 -26 199q-27 61 -113 61q-87 0 -113 -61q-26 -60 -26 -198t27 -200t113 -61q86 0 112 61q26 62 26 199zM1038 0h-325v90q-102 -102 -263 -102t-257 100q-47 49 -72 130t-29 147q-4 67 -4 187t4 186t29 146q71 230 338 230q152 0 254 -102v90h325v-1102z
" />
    <glyph glyph-name="beta" unicode="&#x3b2;" horiz-adv-x="1196" 
d="M594 289q84 0 125 41t41 160t-53 151q-39 25 -101 25h-90v254h127q59 0 90 42t31 96t-41 91t-113 37q-146 0 -145 -152v-600q0 -72 45 -108t84 -37zM1096 461q0 -254 -102 -364t-292 -109q-152 0 -253 102v-90h-322v1053q0 213 135 315t346 102t341 -99t130 -261
t-49 -228t-104 -89q170 -78 170 -332z" />
    <glyph glyph-name="gamma" unicode="&#x3b3;" horiz-adv-x="1067" 
d="M698 -356h-331v395l-367 1063h352l183 -639l180 639h352l-369 -1063v-395z" />
    <glyph glyph-name="delta" unicode="&#x3b4;" horiz-adv-x="1093" 
d="M670 530q0 168 -43 211q-29 29 -80 29t-80 -29q-43 -43 -43 -211t43 -211q29 -29 80 -29t80 29q43 43 43 211zM1006 546q0 -174 -25 -262t-92 -161q-127 -135 -342 -135t-342 135q-68 72 -92 161q-25 90 -25 248t25 249t90 161q92 100 209 100q49 0 71 -10l-260 211v215
h719v-231h-315l182 -154q123 -105 160 -229t37 -298z" />
    <glyph glyph-name="epsilon" unicode="&#x3b5;" horiz-adv-x="1077" 
d="M550 -12q-194 0 -336 83t-142 257q0 137 106 214q18 13 51 33q-113 81 -113 219t134 228q133 90 347 90t411 -158l-179 -223q-125 109 -233 109q-150 0 -150 -95q0 -27 25 -43t64 -16h210v-252h-229q-104 0 -104 -67q0 -49 54 -75t132 -26t135 26t119 89l205 -197
q-119 -124 -216 -160t-291 -36z" />
    <glyph glyph-name="zeta" unicode="&#x3b6;" horiz-adv-x="1048" 
d="M999 -4q-1 -62 -27 -121t-62 -98t-110 -69t-173 -30h-52v246h29q51 0 69 10q17 10 17 37q0 33 -92 33h-37q-479 0 -479 346q0 135 94 260t225 189h-254v303h834v-303h-47q-174 -61 -339 -178t-165 -230q0 -106 135 -106h78q158 1 257 -67t99 -222z" />
    <glyph glyph-name="eta" unicode="&#x3b7;" horiz-adv-x="1185" 
d="M1069 0h-336v659q0 84 -43 118t-92 34t-92 -34t-43 -118v-659h-336v1102h328v-90q102 102 256 102t247 -94q111 -111 111 -315v-705z" />
    <glyph glyph-name="theta" unicode="&#x3b8;" horiz-adv-x="1179" 
d="M737 881q1 176 -35 231t-112 55t-112 -55t-36 -231h295zM737 600h-295q0 -199 36 -254t112 -55t112 55t35 254zM1077 729q0 -145 -4 -224t-34 -187t-89 -177q-131 -153 -360 -153t-361 153q-59 69 -89 177t-34 187t-4 224t4 224t34 187t89 177q133 153 361 153t360 -153
q59 -69 89 -177t34 -187t4 -224z" />
    <glyph glyph-name="iota" unicode="&#x3b9;" horiz-adv-x="698" 
d="M637 0h-178q-170 0 -256 98t-86 228v776h336v-752q0 -68 67 -67h117v-283z" />
    <glyph glyph-name="kappa" unicode="&#x3ba;" horiz-adv-x="1173" 
d="M463 0h-336v1102h336v-385l297 385h403l-405 -457l416 -645h-416l-230 403l-65 -71v-332z" />
    <glyph glyph-name="lambda" unicode="&#x3bb;" horiz-adv-x="1087" 
d="M1104 0h-158q-120 0 -208 70q-30 25 -57 81q-28 57 -36 83t-27 92l-69 245l-197 -571h-352l383 993l-29 92q-14 49 -39 65t-71 17h-72v303h131q160 0 246 -92q51 -55 84 -145l307 -877q8 -27 14 -39q17 -34 58 -34h92v-283z" />
    <glyph glyph-name="uni03BC" unicode="&#x3bc;" horiz-adv-x="1196" 
d="M1069 0h-328v90q-102 -102 -256 -102h-22v-344h-336v1458h336v-660q0 -84 43 -118t92 -33q49 0 92 34t43 117v660h336v-1102z" />
    <glyph glyph-name="nu" unicode="&#x3bd;" horiz-adv-x="1067" 
d="M1067 1102l-405 -1102h-256l-406 1102h352l183 -572l180 572h352z" />
    <glyph glyph-name="xi" unicode="&#x3be;" horiz-adv-x="1026" 
d="M600 -76q86 0 86 54q0 24 -20 29t-72 5h-37q-479 0 -479 406q0 270 244 377q-88 27 -145 106q-56 80 -56 174q0 195 130 300t327 106q138 0 256 -46t186 -122l-170 -221q-94 114 -253 114t-159 -145q0 -67 42 -101t110 -34h248v-277h-207q-217 0 -217 -182t188 -182h37
q356 0 356 -281q-1 -61 -27 -123q-26 -61 -62 -101t-110 -71t-173 -31h-52v246h29z" />
    <glyph glyph-name="omicron" unicode="&#x3bf;" horiz-adv-x="1126" 
d="M702 551q0 180 -49 229q-31 31 -90 31t-90 -31q-49 -49 -49 -229t49 -229q31 -31 90 -31t90 31q49 49 49 229zM1038 550q0 -163 -26 -254t-94 -167q-132 -141 -354 -141t-355 141q-70 76 -95 167q-26 91 -26 254t27 256t94 167q133 141 354 141t355 -141q68 -74 94 -167
t26 -256z" />
    <glyph glyph-name="pi" unicode="&#x3c0;" horiz-adv-x="1202" 
d="M1085 0h-335v782h-287v-782h-336v1102h958v-1102z" />
    <glyph glyph-name="rho" unicode="&#x3c1;" horiz-adv-x="1126" 
d="M702 551q0 137 -26 199q-27 61 -113 61q-87 0 -113 -61q-26 -60 -26 -198t27 -200t113 -61q86 0 112 61q26 62 26 199zM1038 527q0 -126 -24 -227t-103 -181q-131 -131 -301 -131q-63 0 -114 26t-72 47v-417h-336v903q0 266 90 389q48 66 142 122t233 56q229 0 354 -129
q61 -63 91 -141t35 -134t5 -183z" />
    <glyph glyph-name="sigma1" unicode="&#x3c2;" horiz-adv-x="972" 
d="M573 811q-159 0 -159 -260q0 -117 48 -165t152 -71q276 -57 277 -315q0 -26 -3 -52t-27 -80q-23 -54 -63 -92t-127 -69t-204 -31v254q91 0 107 27q7 12 8 33q0 45 -138 63q-367 53 -366 498q0 137 34 243t85 164q135 156 366 156q232 0 373 -141l-227 -228
q-66 66 -136 66z" />
    <glyph glyph-name="sigma" unicode="&#x3c3;" horiz-adv-x="1177" 
d="M702 560q0 188 -49 237q-27 27 -87 27t-93 -33q-49 -49 -49 -235t49 -234q31 -31 90 -31t90 31q49 50 49 238zM1110 817h-162q37 -31 64 -111q26 -80 26 -199q0 -120 -26 -211t-94 -167q-132 -141 -354 -141t-355 141q-70 76 -95 167q-26 91 -26 254t27 256t94 167
q121 129 350 129h551v-285z" />
    <glyph glyph-name="tau" unicode="&#x3c4;" horiz-adv-x="860" 
d="M819 799h-221v-799h-336v799h-221v303h778v-303z" />
    <glyph glyph-name="upsilon" unicode="&#x3c5;" horiz-adv-x="1146" 
d="M1044 551q0 -166 -24 -257t-92 -165q-132 -141 -354 -141t-355 141q-68 74 -92 165q-25 91 -25 257v551h336v-660q0 -84 43 -118t92 -33q49 0 93 34q43 34 43 117v660h335v-551z" />
    <glyph glyph-name="phi" unicode="&#x3c6;" horiz-adv-x="1480" 
d="M1057 528q0 112 -6 162q-6 51 -39 94t-97 43v-551q84 4 113 72t29 180zM1393 549q0 -250 -117 -402t-361 -161v-342h-335v342q-246 12 -369 167t-123 400q0 375 344 561l125 -219q-133 -106 -133 -354t156 -265v826h262q274 0 397 -107q154 -133 154 -446z" />
    <glyph glyph-name="chi" unicode="&#x3c7;" 
d="M1139 0h-404l-168 279l-164 -279h-403l383 563l-369 539h404l149 -266l154 266h403l-368 -539z" />
    <glyph glyph-name="psi" unicode="&#x3c8;" horiz-adv-x="1505" 
d="M1393 551q0 -166 -25 -257t-92 -165q-121 -129 -354 -129v-356h-336v356q-236 0 -357 129q-68 74 -92 165q-25 91 -24 257v551h336v-660q0 -84 46 -126t91 -42v828h336v-828q45 0 90 42t45 126v660h336v-551z" />
    <glyph glyph-name="omega" unicode="&#x3c9;" horiz-adv-x="1572" 
d="M424 551q0 -258 113 -258q35 0 59 32t22 76v336h336v-336q0 -45 24 -77t58 -31q112 0 113 258q0 180 -43 223t-86 43v297q211 0 344 -141q68 -74 94 -167t27 -258q0 -165 -23 -255t-90 -164q-132 -141 -318 -141t-268 121q-82 -121 -267 -121t-318 141q-68 74 -90 164
q-23 90 -23 255t27 258t94 167q133 141 344 141v-297q-43 0 -86 -43t-43 -223z" />
    <glyph glyph-name="iotadieresis" unicode="&#x3ca;" horiz-adv-x="698" 
d="M662 1247h-275v297h275v-297zM199 1247h-275v297h275v-297zM637 0h-178q-170 0 -256 98t-86 228v776h336v-752q0 -68 67 -67h117v-283z" />
    <glyph glyph-name="upsilondieresis" unicode="&#x3cb;" horiz-adv-x="1146" 
d="M940 1247h-274v297h274v-297zM477 1247h-274v297h274v-297zM1044 551q0 -166 -24 -257t-92 -165q-132 -141 -354 -141t-355 141q-68 74 -92 165q-25 91 -25 257v551h336v-660q0 -84 43 -118t92 -33q49 0 93 34q43 34 43 117v660h335v-551z" />
    <glyph glyph-name="omicrontonos" unicode="&#x3cc;" horiz-adv-x="1126" 
d="M430 1544h268v-241l-268 -111v352zM702 551q0 180 -49 229q-31 31 -90 31t-90 -31q-49 -49 -49 -229t49 -229q31 -31 90 -31t90 31q49 49 49 229zM1038 550q0 -163 -26 -254t-94 -167q-132 -141 -354 -141t-355 141q-70 76 -95 167q-26 91 -26 254t27 256t94 167
q133 141 354 141t355 -141q68 -74 94 -167t26 -256z" />
    <glyph glyph-name="upsilontonos" unicode="&#x3cd;" horiz-adv-x="1146" 
d="M440 1544h269v-241l-269 -111v352zM1044 551q0 -166 -24 -257t-92 -165q-132 -141 -354 -141t-355 141q-68 74 -92 165q-25 91 -25 257v551h336v-660q0 -84 43 -118t92 -33q49 0 93 34q43 34 43 117v660h335v-551z" />
    <glyph glyph-name="omegatonos" unicode="&#x3ce;" horiz-adv-x="1572" 
d="M655 1544h269v-241l-269 -111v352zM424 551q0 -258 113 -258q35 0 59 32t22 76v336h336v-336q0 -45 24 -77t58 -31q112 0 113 258q0 180 -43 223t-86 43v297q211 0 344 -141q68 -74 94 -167t27 -258q0 -165 -23 -255t-90 -164q-132 -141 -318 -141t-268 121
q-82 -121 -267 -121t-318 141q-68 74 -90 164q-23 90 -23 255t27 258t94 167q133 141 344 141v-297q-43 0 -86 -43t-43 -223z" />
    <glyph glyph-name="uni03D0" unicode="&#x3d0;" horiz-adv-x="1196" 
d="M1096 461q0 -254 -102 -364t-292 -109q-147 0 -239 92v-436h-336v1409q0 213 135 315t346 102t341 -99t130 -261t-49 -228t-104 -89q170 -78 170 -332zM594 289q84 0 125 41t41 160t-53 151q-39 25 -101 25h-90v254h127q59 0 90 42t31 96t-41 91t-98 37q-162 0 -162 -152
v-600q0 -72 46 -108t85 -37z" />
    <glyph glyph-name="uni0400" unicode="&#x400;" horiz-adv-x="1245" 
d="M768 1602h-240l-206 368h313zM1139 0h-992v1458h992v-319h-633v-244h541v-320h-541v-256h633v-319z" />
    <glyph glyph-name="afii10023" unicode="&#x401;" horiz-adv-x="1245" 
d="M537 1599h-275v297h275v-297zM999 1599h-274v297h274v-297zM1139 0h-992v1458h992v-319h-633v-244h541v-320h-541v-256h633v-319z" />
    <glyph glyph-name="afii10051" unicode="&#x402;" horiz-adv-x="1536" 
d="M946 934q220 0 354 -126t134 -340t-134 -341t-354 -127h-86v307h60q68 0 112 43t43 116q0 73 -43 116t-112 43h-203v-625h-359v1139h-297v319h1076v-319h-420v-205h229z" />
    <glyph glyph-name="afii10052" unicode="&#x403;" 
d="M858 1970l-207 -368h-239l133 368h313zM1087 1139h-581v-1139h-359v1458h940v-319z" />
    <glyph glyph-name="afii10053" unicode="&#x404;" horiz-adv-x="1247" 
d="M638 -12q-230 0 -388 159q-110 110 -130 252q-20 141 -20 295t3 213t15 143q22 149 132 261q160 159 389 159t379 -120t186 -346h-356q-47 156 -193 155q-96 0 -145 -63t-55 -209h387v-312h-387q6 -150 55 -213t145 -63q145 0 193 156h356q-36 -227 -186 -347t-380 -120z
" />
    <glyph glyph-name="afii10054" unicode="&#x405;" horiz-adv-x="1214" 
d="M1126 445q0 -213 -160 -335t-403 -122q-180 0 -314 42t-239 150l230 230q102 -102 318 -102t216 130q0 55 -29 86q-31 31 -96 39l-176 25q-195 29 -294 130t-99 298q0 198 144 326t388 128q317 0 492 -174l-225 -225q-53 53 -115 69t-156 17q-92 0 -137 -41t-45 -87
t32 -78t97 -40l176 -24q193 -27 294 -127t101 -315z" />
    <glyph glyph-name="afii10055" unicode="&#x406;" horiz-adv-x="653" 
d="M506 0h-359v1458h359v-1458z" />
    <glyph glyph-name="afii10056" unicode="&#x407;" horiz-adv-x="653" 
d="M233 1599h-274v297h274v-297zM696 1599h-274v297h274v-297zM506 0h-359v1458h359v-1458z" />
    <glyph glyph-name="afii10057" unicode="&#x408;" horiz-adv-x="1056" 
d="M930 500q0 -244 -163 -378t-386 -134q-129 0 -219 36t-178 123l235 234q74 -74 162 -74t139 50t51 151v950h359v-958z" />
    <glyph glyph-name="afii10058" unicode="&#x409;" horiz-adv-x="2015" 
d="M279 1458h958v-520h229q216 0 352 -132t136 -337t-136 -337t-352 -132h-587v1139h-254v-381q0 -567 -204 -697q-97 -61 -263 -61h-138v319h43q70 0 114 31t73 130t29 278v700zM1595 469q0 63 -44 105t-111 42h-203v-297h203q68 -1 112 43t43 107z" />
    <glyph glyph-name="afii10059" unicode="&#x40a;" horiz-adv-x="2023" 
d="M1604 469q0 63 -44 105t-112 42h-203v-297h203q68 -1 112 43t44 107zM887 618h-381v-618h-359v1458h359v-520h381v520h358v-520h230q217 0 352 -132t135 -337t-136 -337t-351 -132h-588v618z" />
    <glyph glyph-name="afii10060" unicode="&#x40b;" horiz-adv-x="1536" 
d="M1434 0h-359v477q0 63 -44 105t-111 43h-203v-625h-359v1139h-297v319h1076v-319h-420v-205h229q217 0 352 -126t136 -331v-477z" />
    <glyph glyph-name="afii10061" unicode="&#x40c;" horiz-adv-x="1339" 
d="M983 1970l-207 -368h-239l133 368h313zM1360 0h-422l-430 766l393 692h412l-430 -678zM506 0h-359v1458h359v-1458z" />
    <glyph glyph-name="uni040D" unicode="&#x40d;" horiz-adv-x="1433" 
d="M854 1602h-240l-206 368h313zM1286 0h-358v795l-467 -795h-314v1458h359v-794l467 794h313v-1458z" />
    <glyph glyph-name="afii10062" unicode="&#x40e;" horiz-adv-x="1230" 
d="M371 0h-199v319h127q126 0 162 142l-461 997h377l256 -610l231 610h367l-512 -1202q-111 -256 -348 -256zM979 1839q-2 -113 -59 -187q-58 -74 -132 -99t-162 -25t-161 26q-74 26 -131 99q-57 74 -60 186h244q6 -109 109 -108q102 0 108 108h244z" />
    <glyph glyph-name="afii10145" unicode="&#x40f;" horiz-adv-x="1392" 
d="M868 0v-295h-344v295h-377v1458h359v-1139h381v1139h358v-1458h-377z" />
    <glyph glyph-name="afii10017" unicode="&#x410;" horiz-adv-x="1337" 
d="M801 516l-123 389l-131 -389h254zM1337 0h-374l-68 217h-449l-71 -217h-375l530 1458h277z" />
    <glyph glyph-name="afii10018" unicode="&#x411;" horiz-adv-x="1337" 
d="M879 469q0 63 -40 105t-106 42h-227v-294h227q66 0 106 42t40 105zM1237 469q0 -209 -131 -339t-356 -130h-603v1458h996v-319h-637v-201h244q225 0 356 -130t131 -339z" />
    <glyph glyph-name="afii10019" unicode="&#x412;" horiz-adv-x="1337" 
d="M879 451q0 59 -35 93t-96 34h-242v-256h242q61 0 96 35t35 94zM858 1018q0 55 -34 87t-95 32h-223v-238h223q61 0 95 32t34 87zM1237 428q0 -196 -124 -312t-331 -116h-635v1458h605q213 0 339 -110t126 -297q0 -186 -160 -303q96 -61 138 -135t42 -185z" />
    <glyph glyph-name="afii10020" unicode="&#x413;" 
d="M1087 1139h-581v-1139h-359v1458h940v-319z" />
    <glyph glyph-name="afii10021" unicode="&#x414;" horiz-adv-x="1452" 
d="M889 319v820h-230v-41q0 -410 -131 -779h361zM1413 -295h-344v295h-704v-295h-345v614h144q78 209 112 454q35 245 35 624v61h936v-1139h166v-614z" />
    <glyph glyph-name="afii10022" unicode="&#x415;" horiz-adv-x="1245" 
d="M1139 0h-992v1458h992v-319h-633v-244h541v-320h-541v-256h633v-319z" />
    <glyph glyph-name="afii10024" unicode="&#x416;" horiz-adv-x="1943" 
d="M391 0h-411l446 780l-399 678h401l363 -692zM1151 0h-358v1458h358v-1458zM1964 0h-412l-399 766l363 692h401l-399 -678z" />
    <glyph glyph-name="afii10025" unicode="&#x417;" horiz-adv-x="1228" 
d="M1128 434q0 -202 -150 -324t-376 -122t-377 120q-150 120 -186 347h356q47 -156 193 -156q86 0 133 41q47 42 47 110t-44 109t-132 41h-193v291h193q74 0 117 38t43 99t-44 98t-118 37q-145 0 -193 -159h-356q37 227 186 347q150 119 371 119t366 -113q144 -114 144 -300
q0 -94 -49 -174t-127 -129q90 -45 143 -129t53 -191z" />
    <glyph glyph-name="afii10026" unicode="&#x418;" horiz-adv-x="1433" 
d="M1286 0h-358v795l-467 -795h-314v1458h359v-794l467 794h313v-1458z" />
    <glyph glyph-name="afii10027" unicode="&#x419;" horiz-adv-x="1433" 
d="M1286 0h-358v795l-467 -795h-314v1458h359v-794l467 794h313v-1458zM1073 1839q-2 -113 -59 -187t-131 -99t-162 -25t-162 26t-131 99q-57 74 -59 186h243q6 -109 109 -108q102 0 108 108h244z" />
    <glyph glyph-name="afii10028" unicode="&#x41a;" horiz-adv-x="1339" 
d="M1360 0h-422l-430 766l393 692h412l-430 -678zM506 0h-359v1458h359v-1458z" />
    <glyph glyph-name="afii10029" unicode="&#x41b;" horiz-adv-x="1384" 
d="M1237 0h-358v1139h-254v-381q0 -567 -204 -697q-97 -61 -263 -61h-138v319h43q70 0 114 31t73 130t29 278v700h958v-1458z" />
    <glyph glyph-name="afii10030" unicode="&#x41c;" horiz-adv-x="1654" 
d="M1507 0h-358v698l-207 -360h-229l-207 360v-698h-359v1458h353l327 -643l328 643h352v-1458z" />
    <glyph glyph-name="afii10031" unicode="&#x41d;" horiz-adv-x="1392" 
d="M1245 0h-358v578h-381v-578h-359v1458h359v-561h381v561h358v-1458z" />
    <glyph glyph-name="afii10032" unicode="&#x41e;" horiz-adv-x="1310" 
d="M852 729q0 184 -12 253q-29 167 -184 168t-185 -168q-12 -69 -12 -253t12 -252q30 -170 184 -170t185 170q12 68 12 252zM100 694q0 154 3 213t15 143q22 149 132 261q160 159 406 159t405 -159q110 -110 129 -248q20 -137 20 -295t-3 -217q-10 -195 -51 -272
q-42 -78 -95 -132q-160 -159 -406 -159t-405 159q-110 110 -130 252q-20 141 -20 295z" />
    <glyph glyph-name="afii10033" unicode="&#x41f;" horiz-adv-x="1392" 
d="M1245 0h-358v1139h-381v-1139h-359v1458h1098v-1458z" />
    <glyph glyph-name="afii10034" unicode="&#x420;" horiz-adv-x="1284" 
d="M864 989q0 59 -43 103t-112 45h-203v-295h203q71 0 113 44t42 103zM1223 989q0 -193 -133 -331t-365 -138h-219v-520h-359v1458h578q231 0 365 -138t133 -331z" />
    <glyph glyph-name="afii10035" unicode="&#x421;" horiz-adv-x="1247" 
d="M640 -12q-231 0 -390 159q-110 110 -130 252q-20 141 -20 295t3 213t15 143q22 149 132 261q160 159 390 159t379 -120q148 -121 187 -355h-364q-43 156 -187 156q-94 0 -141 -61q-29 -37 -42 -108t-13 -253t13 -253t42 -107q47 -61 141 -62q143 0 187 156h364
q-39 -233 -187 -354t-379 -121z" />
    <glyph glyph-name="afii10036" unicode="&#x422;" horiz-adv-x="1198" 
d="M1137 1139h-359v-1139h-358v1139h-359v319h1076v-319z" />
    <glyph glyph-name="afii10037" unicode="&#x423;" horiz-adv-x="1230" 
d="M371 0h-199v319h127q126 0 162 142l-461 997h377l256 -610l231 610h367l-512 -1202q-111 -256 -348 -256z" />
    <glyph glyph-name="afii10038" unicode="&#x424;" horiz-adv-x="1759" 
d="M707 465v614q-141 -10 -203 -81q-62 -70 -64 -226q0 -156 63 -226t204 -81zM1319 772q-1 156 -63 226t-203 81v-614q141 11 203 81t63 226zM1677 772q0 -584 -618 -610v-174h-359v174q-618 26 -618 610t618 610v150h359v-150q618 -26 618 -610z" />
    <glyph glyph-name="afii10039" unicode="&#x425;" horiz-adv-x="1298" 
d="M1298 0h-409l-240 449l-239 -449h-410l455 748l-426 710h407l213 -411l213 411h408l-426 -710z" />
    <glyph glyph-name="afii10040" unicode="&#x426;" horiz-adv-x="1449" 
d="M1411 -295h-344v295h-920v1458h359v-1139h381v1139h358v-1139h166v-614z" />
    <glyph glyph-name="afii10041" unicode="&#x427;" horiz-adv-x="1333" 
d="M117 1458h358v-520q0 -59 35 -94t96 -35q129 0 221 18v631h359v-1458h-359v518q-168 -28 -346 -31q-145 -1 -255 95t-109 256v620z" />
    <glyph glyph-name="afii10042" unicode="&#x428;" horiz-adv-x="2013" 
d="M1866 0h-1719v1458h359v-1139h321v1139h359v-1139h321v1139h359v-1458z" />
    <glyph glyph-name="afii10043" unicode="&#x429;" horiz-adv-x="2070" 
d="M2032 -295h-344v295h-1541v1458h359v-1139h321v1139h359v-1139h321v1139h359v-1139h166v-614z" />
    <glyph glyph-name="afii10044" unicode="&#x42a;" horiz-adv-x="1486" 
d="M1067 469q0 63 -44 105t-112 42h-202v-297h202q68 -1 112 43t44 107zM1425 469q0 -205 -136 -337t-351 -132h-588v1139h-289v319h648v-520h229q217 0 352 -132t135 -337z" />
    <glyph glyph-name="afii10045" unicode="&#x42b;" horiz-adv-x="1863" 
d="M864 469q0 63 -44 105t-111 42h-203v-297h203q67 -1 111 43t44 107zM1223 469q-1 -205 -137 -337t-351 -132h-588v1458h359v-520h229q217 0 353 -132t135 -337zM1716 0h-358v1458h358v-1458z" />
    <glyph glyph-name="afii10046" unicode="&#x42c;" horiz-adv-x="1284" 
d="M864 469q0 63 -44 105t-111 42h-203v-297h203q67 -1 111 43t44 107zM1223 469q-1 -205 -137 -337t-351 -132h-588v1458h359v-520h229q217 0 353 -132t135 -337z" />
    <glyph glyph-name="afii10047" unicode="&#x42d;" horiz-adv-x="1247" 
d="M610 -12q-230 0 -381 120q-150 120 -186 347h356q47 -156 193 -156q96 -1 145 63t58 213h-389v312h387q-9 149 -57 211t-144 61q-145 0 -193 -155h-356q37 227 186 347q151 119 381 119t389 -159q110 -110 130 -251q20 -142 20 -296t-3 -213q-10 -193 -52 -271
q-42 -79 -95 -133q-159 -159 -389 -159z" />
    <glyph glyph-name="afii10048" unicode="&#x42e;" horiz-adv-x="1884" 
d="M1425 729q0 184 -12 253q-29 167 -184 168t-185 -168q-12 -69 -12 -253t12 -252q30 -170 184 -170t185 170q12 68 12 252zM506 578v-578h-359v1458h359v-561h170q6 139 37 237t110 177q160 159 406 159t405 -159q110 -110 130 -251q20 -142 20 -336t-16 -297t-48 -165
q-33 -62 -86 -115q-160 -159 -406 -159t-405 159q-83 81 -113 183t-36 248h-168z" />
    <glyph glyph-name="afii10049" unicode="&#x42f;" horiz-adv-x="1329" 
d="M823 842v303h-207q-68 0 -112 -43q-44 -42 -43 -106q0 -64 44 -109t111 -45h207zM604 1458h578v-1458h-359v520h-145l-211 -520h-426l281 596q-100 60 -158 164t-58 229q0 213 140 341t358 128z" />
    <glyph glyph-name="afii10065" unicode="&#x430;" horiz-adv-x="1097" 
d="M377 352q-1 -90 129 -90q68 0 108 36t39 116v28h-159q-117 0 -117 -90zM989 0h-327v90q-54 -53 -108 -77t-138 -23q-166 0 -263 97t-97 245t96 241q96 92 284 93h217v28q0 74 -39 106t-131 32t-170 -78l-209 209q84 83 172 117t228 34q485 0 485 -399v-715z" />
    <glyph glyph-name="afii10066" unicode="&#x431;" 
d="M659 1053q396 0 398 -510q0 -281 -127 -418q-128 -137 -354 -137t-348 129t-122 461q0 399 34 525t115 206q80 80 198 116t405 46q88 3 92 4v-289q-16 -2 -147 -4t-234 -33q-186 -55 -186 -209q31 45 105 79t171 34zM582 291q68 0 104 49q36 48 35 188q0 140 -34 192
q-33 52 -105 52t-106 -51t-34 -195t43 -198q29 -37 97 -37z" />
    <glyph glyph-name="afii10067" unicode="&#x432;" 
d="M457 244h161q47 0 74 26t27 70q0 45 -27 71t-74 25h-161v-192zM457 678h147q98 0 98 90t-98 90h-147v-180zM1051 324q1 -148 -93 -236t-251 -88h-580v1102h557q162 0 256 -84t94 -226t-121 -227q74 -45 106 -101t32 -140z" />
    <glyph glyph-name="afii10068" unicode="&#x433;" horiz-adv-x="909" 
d="M881 803h-412v-803h-336v1102h748v-299z" />
    <glyph glyph-name="afii10069" unicode="&#x434;" horiz-adv-x="1220" 
d="M721 299v504h-178q0 -242 -82 -504h260zM1184 -233h-316v233h-532v-233h-316v532h109q51 161 73 319t21 437v47h832v-803h129v-532z" />
    <glyph glyph-name="afii10070" unicode="&#x435;" horiz-adv-x="1144" 
d="M735 666q0 47 -18 86q-39 86 -145 86t-146 -86q-18 -39 -18 -86h327zM1067 442h-659q0 -72 52 -122t138 -50t134 22t97 70l201 -200q-90 -90 -186 -132t-242 -42q-524 0 -524 563q0 264 136 414q136 149 363 149t359 -148t131 -384v-140z" />
    <glyph glyph-name="afii10072" unicode="&#x436;" horiz-adv-x="1648" 
d="M375 0h-385l315 590l-301 512h377l272 -522zM993 0h-338v1102h338v-1102zM1659 0h-385l-279 580l273 522h377l-302 -512z" />
    <glyph glyph-name="afii10073" unicode="&#x437;" horiz-adv-x="1032" 
d="M944 342q0 -162 -124 -258t-300 -96q-332 0 -504 155l191 207q96 -82 254 -82q65 0 107 23t42 69q0 82 -123 82h-170v234h162q55 0 87 24t32 66q0 80 -156 80q-113 0 -206 -70l-185 203q162 135 467 135q170 0 290 -80t120 -224t-137 -228q153 -78 153 -240z" />
    <glyph glyph-name="afii10074" unicode="&#x438;" horiz-adv-x="1220" 
d="M127 0v1102h336v-555l295 555h336v-1102h-336v575l-295 -575h-336z" />
    <glyph glyph-name="afii10075" unicode="&#x439;" horiz-adv-x="1220" 
d="M598 1188q-183 0 -281 125q-57 74 -59 186h244q6 -109 108 -108q102 0 109 108h244q-2 -86 -34 -149q-82 -162 -331 -162zM127 0v1102h336v-555l295 555h336v-1102h-336v575l-295 -575h-336z" />
    <glyph glyph-name="afii10076" unicode="&#x43a;" horiz-adv-x="1150" 
d="M1161 0h-393l-303 580l297 522h385l-334 -512zM463 0h-338v1102h338v-1102z" />
    <glyph glyph-name="afii10077" unicode="&#x43b;" horiz-adv-x="1183" 
d="M1057 0h-336v803h-191v-201q0 -449 -155 -553q-74 -49 -199 -49h-162v283h33q33 0 51 4t43 23q66 50 66 343v449h850v-1102z" />
    <glyph glyph-name="afii10078" unicode="&#x43c;" horiz-adv-x="1411" 
d="M1284 0h-336v549l-155 -293h-175l-155 293v-549h-336v1102h332l248 -486l247 486h330v-1102z" />
    <glyph glyph-name="afii10079" unicode="&#x43d;" horiz-adv-x="1185" 
d="M463 0h-336v1102h336v-391h260v391h336v-1102h-336v412h-260v-412z" />
    <glyph glyph-name="afii10080" unicode="&#x43e;" horiz-adv-x="1126" 
d="M702 551q0 180 -49 229q-31 31 -90 31t-90 -31q-49 -49 -49 -229t49 -229q31 -31 90 -31t90 31q49 49 49 229zM1038 550q0 -163 -26 -254t-94 -167q-132 -141 -354 -141t-355 141q-70 76 -95 167q-26 91 -26 254t27 256t94 167q133 141 354 141t355 -141q68 -74 94 -167
t26 -256z" />
    <glyph glyph-name="afii10081" unicode="&#x43f;" horiz-adv-x="1175" 
d="M463 0h-336v1102h932v-1102h-336v803h-260v-803z" />
    <glyph glyph-name="afii10082" unicode="&#x440;" horiz-adv-x="1165" 
d="M741 551q0 137 -26 199q-27 61 -113 61t-113 -61q-27 -60 -27 -198t27 -200q27 -61 113 -61t113 61q26 62 26 199zM1077 551q0 -121 -4 -187t-29 -146q-71 -230 -335 -230q-154 0 -246 92v-436h-336v1458h326v-90q102 102 263 102t257 -100q47 -49 71 -130
q24 -80 29 -146q4 -66 4 -187z" />
    <glyph glyph-name="afii10083" unicode="&#x441;" horiz-adv-x="972" 
d="M573 -12q-239 0 -367 147t-128 417t130 416t365 146q119 0 200 -34t163 -107l-227 -228q-72 66 -136 66q-159 0 -159 -260t159 -260q68 0 136 65l227 -227q-82 -73 -163 -107t-200 -34z" />
    <glyph glyph-name="afii10084" unicode="&#x442;" horiz-adv-x="946" 
d="M926 803h-285v-803h-336v803h-285v299h906v-299z" />
    <glyph glyph-name="afii10085" unicode="&#x443;" horiz-adv-x="1052" 
d="M143 -369v303h72q49 0 73 18t40 64l30 93l-366 993h352l186 -572l179 572h352l-457 -1233q-49 -133 -133 -185t-201 -53h-127z" />
    <glyph glyph-name="afii10086" unicode="&#x444;" horiz-adv-x="1527" 
d="M410 551q0 -137 48 -197t142 -63v520q-190 -6 -190 -260zM1118 551q0 254 -190 260v-520q94 3 142 63t48 197zM1454 561q0 -270 -140 -408t-382 -159v-350h-336v350q-242 20 -382 158t-140 409q0 504 522 547v350h336v-350q522 -43 522 -547z" />
    <glyph glyph-name="afii10087" unicode="&#x445;" 
d="M1139 0h-404l-168 279l-164 -279h-403l383 563l-369 539h404l149 -266l154 266h403l-368 -539z" />
    <glyph glyph-name="afii10088" unicode="&#x446;" horiz-adv-x="1234" 
d="M1198 -233h-315v233h-756v1102h336v-803h260v803h336v-803h139v-532z" />
    <glyph glyph-name="afii10089" unicode="&#x447;" 
d="M1012 0h-336v365q-144 -23 -272 -23t-216 82t-88 211v467h336v-367q0 -47 27 -73t68 -25q41 0 145 12v453h336v-1102z" />
    <glyph glyph-name="afii10090" unicode="&#x448;" horiz-adv-x="1708" 
d="M127 0v1102h336v-803h223v803h336v-803h223v803h336v-1102h-1454z" />
    <glyph glyph-name="afii10091" unicode="&#x449;" horiz-adv-x="1757" 
d="M1720 -233h-315v233h-1278v1102h336v-803h223v803h336v-803h223v803h336v-803h139v-532z" />
    <glyph glyph-name="afii10092" unicode="&#x44a;" horiz-adv-x="1243" 
d="M854 362q0 45 -31 74t-78 29h-159v-205h159q47 0 78 28t31 74zM809 725q165 1 271 -101t106 -261t-106 -261t-271 -102h-549v803h-233v299h569v-377h213z" />
    <glyph glyph-name="afii10093" unicode="&#x44b;" horiz-adv-x="1615" 
d="M1153 1102h336v-1102h-336v1102zM721 362q0 45 -31 74t-78 29h-159v-205h159q47 0 78 28t31 74zM676 725q166 1 272 -101t105 -261q1 -159 -105 -261t-272 -102h-549v1102h336v-377h213z" />
    <glyph glyph-name="afii10094" unicode="&#x44c;" horiz-adv-x="1110" 
d="M721 362q0 45 -31 74t-78 29h-159v-205h159q47 0 78 28t31 74zM676 725q166 1 272 -101t105 -261q1 -159 -105 -261t-272 -102h-549v1102h336v-377h213z" />
    <glyph glyph-name="afii10095" unicode="&#x44d;" horiz-adv-x="972" 
d="M399 1114q236 0 366 -146t130 -416t-128 -417t-368 -147q-113 0 -195 32t-167 109l221 221q74 -68 141 -67q129 0 160 155h-254v224h254q-31 158 -160 157q-66 0 -141 -67l-221 221q84 77 167 109t195 32z" />
    <glyph glyph-name="afii10096" unicode="&#x44e;" horiz-adv-x="1638" 
d="M1214 551q0 180 -49 229q-31 31 -90 31t-90 -31q-49 -49 -49 -229t49 -229q31 -31 90 -31t90 31q49 49 49 229zM1550 550q0 -163 -26 -254t-94 -167q-132 -141 -354 -141t-355 141q-94 102 -117 289h-141v-418h-336v1102h336v-397h143q18 164 115 268q133 141 354 141
t355 -141q68 -74 94 -167t26 -256z" />
    <glyph glyph-name="afii10097" unicode="&#x44f;" horiz-adv-x="1140" 
d="M86 748q0 154 106 254t271 100h551v-1102h-336v369h-86l-152 -369h-391l217 449q-180 94 -180 299zM684 633v203h-164q-47 0 -77 -30q-29 -30 -29 -73t30 -71t76 -29h164z" />
    <glyph glyph-name="uni0450" unicode="&#x450;" horiz-adv-x="1144" 
d="M735 666q0 47 -18 86q-39 86 -145 86t-146 -86q-18 -39 -18 -86h327zM1067 442h-659q0 -72 52 -122t138 -50t134 22t97 70l201 -200q-90 -90 -186 -132t-242 -42q-524 0 -524 563q0 264 136 414q136 149 363 149t359 -148t131 -384v-140zM715 1249h-240l-207 369h314z
" />
    <glyph glyph-name="afii10071" unicode="&#x451;" horiz-adv-x="1144" 
d="M948 1247h-274v297h274v-297zM485 1247h-274v297h274v-297zM735 666q0 47 -18 86q-39 86 -145 86t-146 -86q-18 -39 -18 -86h327zM1067 442h-659q0 -72 52 -122t138 -50t134 22t97 70l201 -200q-90 -90 -186 -132t-242 -42q-524 0 -524 563q0 264 136 414
q136 149 363 149t359 -148t131 -384v-140z" />
    <glyph glyph-name="afii10099" unicode="&#x452;" horiz-adv-x="1185" 
d="M549 -369v283h76q55 0 82 34t26 75v493q0 84 -43 118t-92 34t-92 -34t-43 -118v-516h-336v1047h-86v258h86v153h336v-153h444v-258h-444v-179q98 102 250 102t245 -93q111 -111 111 -316v-561q0 -369 -383 -369h-137z" />
    <glyph glyph-name="afii10100" unicode="&#x453;" horiz-adv-x="909" 
d="M745 1618l-206 -369h-240l133 369h313zM881 803h-412v-803h-336v1102h748v-299z" />
    <glyph glyph-name="afii10101" unicode="&#x454;" horiz-adv-x="972" 
d="M78 552q0 270 130 416t365 146q113 0 196 -33t167 -108l-221 -221q-76 68 -142 67q-129 0 -159 -157h254v-224h-254q31 -156 159 -155q68 0 142 67l221 -221q-84 -76 -167 -109t-196 -32q-239 0 -367 147t-128 417z" />
    <glyph glyph-name="afii10102" unicode="&#x455;" horiz-adv-x="1032" 
d="M977 360q0 -184 -135 -278t-342 -94q-102 0 -168 7t-153 44t-159 108l218 218q92 -92 268 -93q51 0 97 16t46 56q0 61 -80 70l-170 16q-319 31 -319 320q0 172 130 268t308 96q299 0 434 -135l-207 -207q-66 66 -233 66q-55 0 -82 -20t-27 -44q0 -53 72 -61l170 -17
q166 -16 249 -106t83 -230z" />
    <glyph glyph-name="afii10103" unicode="&#x456;" horiz-adv-x="589" 
d="M463 1214h-336v256h336v-256zM463 0h-336v1059h336v-1059z" />
    <glyph glyph-name="afii10104" unicode="&#x457;" horiz-adv-x="589" 
d="M664 1247h-275v297h275v-297zM201 1247h-275v297h275v-297zM463 0h-336v1059h336v-1059z" />
    <glyph glyph-name="afii10105" unicode="&#x458;" horiz-adv-x="589" 
d="M463 1214h-336v256h336v-256zM463 -43q0 -129 -86 -227t-256 -99h-178v283h116q68 0 68 68v1077h336v-1102z" />
    <glyph glyph-name="afii10106" unicode="&#x459;" horiz-adv-x="1708" 
d="M207 1102h854v-377h213q166 0 271 -101q105 -100 105 -260t-104 -262q-106 -102 -272 -102h-549v803h-195v-201q0 -449 -155 -553q-74 -49 -199 -49h-162v283h33q33 0 51 4t43 23q66 50 66 343v449zM1319 362q0 45 -31 74t-78 29h-159v-205h159q47 0 78 28t31 74z" />
    <glyph glyph-name="afii10107" unicode="&#x45a;" horiz-adv-x="1705" 
d="M1317 362q0 45 -31 74t-78 29h-159v-205h159q47 0 78 28t31 74zM1272 725q166 1 272 -101t105 -261q1 -159 -105 -261t-272 -102h-549v426h-260v-426h-336v1102h336v-377h260v377h336v-377h213z" />
    <glyph glyph-name="afii10108" unicode="&#x45b;" horiz-adv-x="1185" 
d="M1069 0h-336v516q0 84 -43 118t-92 34t-92 -34t-43 -118v-516h-336v1047h-86v258h86v153h336v-153h444v-258h-444v-179q98 102 250 102t245 -93q111 -111 111 -316v-561z" />
    <glyph glyph-name="afii10109" unicode="&#x45c;" horiz-adv-x="1150" 
d="M889 1618l-207 -369h-240l133 369h314zM1161 0h-393l-303 580l297 522h385l-334 -512zM463 0h-338v1102h338v-1102z" />
    <glyph glyph-name="uni045D" unicode="&#x45d;" horiz-adv-x="1220" 
d="M745 1249h-239l-207 369h313zM127 0v1102h336v-555l295 555h336v-1102h-336v575l-295 -575h-336z" />
    <glyph glyph-name="afii10110" unicode="&#x45e;" horiz-adv-x="1052" 
d="M143 -369v303h72q49 0 73 18t40 64l30 93l-366 993h352l186 -572l179 572h352l-457 -1233q-49 -133 -133 -185t-201 -53h-127zM516 1188q-184 0 -280 125q-57 74 -60 186h244q6 -109 108 -108q102 0 109 108h244q-2 -86 -34 -149q-82 -162 -331 -162z" />
    <glyph glyph-name="afii10193" unicode="&#x45f;" horiz-adv-x="1185" 
d="M748 -233h-316v233h-305v1102h336v-803h260v803h336v-1102h-311v-233z" />
    <glyph glyph-name="afii10146" unicode="&#x462;" horiz-adv-x="1359" 
d="M922 469q0 63 -44 105t-112 42h-203v-297h203q68 -1 112 43t44 107zM1280 469q0 -205 -136 -337t-351 -132h-588v1081h-133v275h133v102h358v-102h185v-275h-185v-143h230q217 0 352 -132t135 -337z" />
    <glyph glyph-name="afii10194" unicode="&#x463;" horiz-adv-x="1142" 
d="M778 362q0 45 -30 74q-31 29 -78 29h-160v-205h160q48 0 78 28t30 74zM520 834v-109h213q165 0 271 -101q106 -100 106 -260t-105 -262t-272 -102h-549v834h-90v208h90v60h336v-60h139v-208h-139z" />
    <glyph glyph-name="afii10147" unicode="&#x472;" horiz-adv-x="1310" 
d="M100 694q0 154 3 213t15 143q22 149 132 261q160 159 406 159t405 -159q110 -110 129 -248q20 -137 20 -295t-3 -217q-10 -195 -51 -272q-42 -78 -95 -132q-160 -159 -406 -159t-405 159q-110 110 -130 252q-20 141 -20 295zM655 307q93 -1 141 61t54 230h-389
q6 -168 53 -230t141 -61zM848 897q-8 137 -53 195t-139 58t-140 -58q-45 -58 -53 -195h385z" />
    <glyph glyph-name="afii10195" unicode="&#x473;" horiz-adv-x="1126" 
d="M698 666q-19 145 -135 145q-59 0 -92 -33t-43 -112h270zM428 442q11 -151 135 -151q59 0 92 33t43 118h-270zM1038 550q0 -163 -26 -254t-94 -167q-132 -141 -354 -141t-355 141q-70 76 -95 167q-26 91 -26 254t27 256t94 167q133 141 354 141t355 -141q68 -74 94 -167
t26 -256z" />
    <glyph glyph-name="afii10148" unicode="&#x474;" horiz-adv-x="1230" 
d="M1278 1458v-282h-49q-92 -1 -121 -89l-360 -1087h-267l-481 1458h371l245 -815l172 578q70 238 326 237h164z" />
    <glyph glyph-name="afii10196" unicode="&#x475;" horiz-adv-x="1128" 
d="M965 1102h135v-283h-49q-88 0 -121 -88l-268 -731h-256l-406 1102h352l183 -572l104 334q37 122 117 180t209 58z" />
    <glyph glyph-name="afii10050" unicode="&#x490;" 
d="M1087 1139h-581v-1139h-359v1458h596v295h344v-614z" />
    <glyph glyph-name="afii10098" unicode="&#x491;" horiz-adv-x="909" 
d="M881 803h-412v-803h-336v1102h432v233h316v-532z" />
    <glyph glyph-name="uni0492" unicode="&#x492;" horiz-adv-x="1196" 
d="M1145 1139h-582v-267h185v-274h-185v-598h-358v598h-133v274h133v586h940v-319z" />
    <glyph glyph-name="uni0493" unicode="&#x493;" horiz-adv-x="948" 
d="M920 803h-412v-96h139v-209h-139v-498h-336v498h-90v209h90v395h748v-299z" />
    <glyph glyph-name="uni0496" unicode="&#x496;" horiz-adv-x="2009" 
d="M1151 0h-358v1458h358v-1458zM391 0h-411l446 780l-399 678h401l363 -692zM1964 319v-614h-344v295h-68l-399 766l363 692h401l-399 -678l262 -461h184z" />
    <glyph glyph-name="uni0497" unicode="&#x497;" horiz-adv-x="1693" 
d="M993 0h-338v1102h338v-1102zM375 0h-385l315 590l-301 512h377l272 -522zM1659 299v-532h-316v233h-69l-279 580l273 522h377l-302 -512l156 -291h160z" />
    <glyph glyph-name="uni049A" unicode="&#x49a;" horiz-adv-x="1411" 
d="M506 0h-359v1458h359v-1458zM1360 319v-614h-344v295h-78l-430 766l393 692h412l-430 -678l280 -461h197z" />
    <glyph glyph-name="uni049B" unicode="&#x49b;" horiz-adv-x="1198" 
d="M463 0h-338v1102h338v-1102zM1161 299v-532h-315v233h-78l-303 580l297 522h385l-334 -512l172 -291h176z" />
    <glyph glyph-name="uni049C" unicode="&#x49c;" horiz-adv-x="1536" 
d="M598 1157h223v-260h53l224 561h411l-338 -715l385 -743h-421l-261 578h-53v-261h-223v261h-92v-578h-359v1458h359v-561h92v260z" />
    <glyph glyph-name="uni049D" unicode="&#x49d;" horiz-adv-x="1333" 
d="M530 193v225h-69v-418h-336v1102h336v-408h69v226h222v-226h49l143 408h385l-231 -512l245 -590h-393l-133 418h-65v-225h-222z" />
    <glyph glyph-name="uni04A2" unicode="&#x4a2;" horiz-adv-x="1449" 
d="M1245 1458v-1139h166v-614h-344v295h-180v578h-381v-578h-359v1458h359v-561h381v561h358z" />
    <glyph glyph-name="uni04A3" unicode="&#x4a3;" horiz-adv-x="1234" 
d="M463 0h-336v1102h336v-391h260v391h336v-803h139v-532h-315v233h-160v412h-260v-412z" />
    <glyph glyph-name="uni04AE" unicode="&#x4ae;" horiz-adv-x="1239" 
d="M799 0h-359v594l-440 864h391l230 -524l227 524h391l-440 -864v-594z" />
    <glyph glyph-name="uni04AF" unicode="&#x4af;" horiz-adv-x="1067" 
d="M698 -356h-331v395l-367 1063h352l183 -639l180 639h352l-369 -1063v-395z" />
    <glyph glyph-name="uni04B0" unicode="&#x4b0;" horiz-adv-x="1239" 
d="M983 594v-275h-184v-319h-359v319h-184v275h184l-440 864h391l230 -524l227 524h391l-440 -864h184z" />
    <glyph glyph-name="uni04B1" unicode="&#x4b1;" horiz-adv-x="1067" 
d="M911 55v-258h-213v-153h-331v153h-213v258h206l-360 1047h352l183 -639l180 639h352l-362 -1047h206z" />
    <glyph glyph-name="uni04B2" unicode="&#x4b2;" horiz-adv-x="1359" 
d="M1298 319v-614h-344v295h-65l-240 449l-239 -449h-410l455 748l-426 710h407l213 -411l213 411h408l-426 -710l260 -429h194z" />
    <glyph glyph-name="uni04B3" unicode="&#x4b3;" horiz-adv-x="1175" 
d="M1139 299v-532h-316v233h-88l-168 279l-164 -279h-403l383 563l-369 539h404l149 -266l154 266h403l-368 -539l178 -264h205z" />
    <glyph glyph-name="uni04B6" unicode="&#x4b6;" horiz-adv-x="1390" 
d="M117 1458h358v-520q0 -59 35 -94t96 -35q129 0 221 18v631h359v-1139h166v-614h-344v295h-181v518q-168 -28 -346 -31q-145 -1 -255 95t-109 256v620z" />
    <glyph glyph-name="uni04B7" unicode="&#x4b7;" horiz-adv-x="1187" 
d="M1012 1102v-803h147v-532h-315v233h-168v365q-144 -23 -272 -23t-216 82t-88 211v467h336v-367q0 -47 27 -73t68 -25q41 0 145 12v453h336z" />
    <glyph glyph-name="uni04B8" unicode="&#x4b8;" horiz-adv-x="1374" 
d="M1227 0h-359v518l-75 -10v-277h-244v256h-47q-154 -1 -270 95t-115 256v620h358v-520q0 -88 74 -117v250h244v-254q43 2 75 10v631h359v-1458z" />
    <glyph glyph-name="uni04B9" unicode="&#x4b9;" horiz-adv-x="1185" 
d="M485 125v217h-34q-147 0 -249 82q-101 82 -102 211v467h336v-367q0 -55 49 -80v199h191v-211l47 6v453h336v-1102h-336v365l-47 -7v-233h-191z" />
    <glyph glyph-name="uni04BA" unicode="&#x4ba;" horiz-adv-x="1333" 
d="M845 971q152 0 262 -95t110 -255v-621h-359v520q0 59 -35 94t-96 35q-129 0 -221 -18v-631h-359v1458h359v-518q187 31 339 31z" />
    <glyph glyph-name="uni04BB" unicode="&#x4bb;" 
d="M1038 0h-336v367q0 47 -26 73t-68 25q-41 0 -145 -12v-453h-336v1102h336v-365q143 23 271 23t216 -82t88 -211v-467z" />
    <glyph glyph-name="uni04C0" unicode="&#x4c0;" horiz-adv-x="653" 
d="M506 0h-359v1458h359v-1458z" />
    <glyph glyph-name="uni04CF" unicode="&#x4cf;" horiz-adv-x="569" 
d="M453 0h-336v1458h336v-1458z" />
    <glyph glyph-name="uni04D8" unicode="&#x4d8;" horiz-adv-x="1325" 
d="M457 541v-21q0 -100 54 -156q55 -56 155 -56t147 61q37 47 47 172h-403zM100 637v203h764q-4 182 -51 247q-49 63 -140 63t-139 -38q-48 -39 -71 -125h-361q31 205 170 344q140 139 392 139t411 -159q110 -110 130 -251q20 -142 20 -296t-3 -213q-10 -193 -52 -271
q-158 -292 -510 -292q-254 0 -412 164q-82 84 -115 194t-33 291z" />
    <glyph glyph-name="afii10846" unicode="&#x4d9;" horiz-adv-x="1144" 
d="M410 436q0 -47 18 -86q39 -86 145 -86t146 86q18 39 18 86h-327zM78 659h659q0 72 -52 122t-138 50q-86 1 -134 -21t-98 -71l-200 201q90 90 186 132t242 42q524 0 524 -563q0 -264 -136 -414q-135 -149 -363 -149t-359 148t-131 384v139z" />
    <glyph glyph-name="uni04E2" unicode="&#x4e2;" horiz-adv-x="1433" 
d="M1051 1620h-668v215h668v-215zM1286 0h-358v795l-467 -795h-314v1458h359v-794l467 794h313v-1458z" />
    <glyph glyph-name="uni04E3" unicode="&#x4e3;" horiz-adv-x="1220" 
d="M995 1288h-667v215h667v-215zM127 0v1102h336v-555l295 555h336v-1102h-336v575l-295 -575h-336z" />
    <glyph glyph-name="uni04E8" unicode="&#x4e8;" horiz-adv-x="1310" 
d="M100 694q0 154 3 213t15 143q22 149 132 261q160 159 406 159t405 -159q110 -110 129 -248q20 -137 20 -295t-3 -217q-10 -195 -51 -272q-42 -78 -95 -132q-160 -159 -406 -159t-405 159q-110 110 -130 252q-20 141 -20 295zM655 307q93 -1 141 61t54 230h-389
q6 -168 53 -230t141 -61zM848 897q-8 137 -53 195t-139 58t-140 -58q-45 -58 -53 -195h385z" />
    <glyph glyph-name="uni04E9" unicode="&#x4e9;" horiz-adv-x="1126" 
d="M698 666q-19 145 -135 145q-59 0 -92 -33t-43 -112h270zM428 442q11 -151 135 -151q59 0 92 33t43 118h-270zM1038 550q0 -163 -26 -254t-94 -167q-132 -141 -354 -141t-355 141q-70 76 -95 167q-26 91 -26 254t27 256t94 167q133 141 354 141t355 -141q68 -74 94 -167
t26 -256z" />
    <glyph glyph-name="uni04EE" unicode="&#x4ee;" horiz-adv-x="1230" 
d="M967 1620h-668v215h668v-215zM371 0h-199v319h127q126 0 162 142l-461 997h377l256 -610l231 610h367l-512 -1202q-111 -256 -348 -256z" />
    <glyph glyph-name="uni04EF" unicode="&#x4ef;" horiz-adv-x="1052" 
d="M870 1288h-667v215h667v-215zM143 -369v303h72q49 0 73 18t40 64l30 93l-366 993h352l186 -572l179 572h352l-457 -1233q-49 -133 -133 -185t-201 -53h-127z" />
    <glyph glyph-name="Wgrave" unicode="&#x1e80;" horiz-adv-x="1855" 
d="M1065 1602h-240l-207 368h314zM1855 1458l-399 -1458h-293l-235 719l-236 -719h-291l-401 1458h375l190 -770l236 770h254l235 -770l191 770h374z" />
    <glyph glyph-name="wgrave" unicode="&#x1e81;" horiz-adv-x="1597" 
d="M920 1249h-240l-207 369h313zM1597 1102l-331 -1102h-269l-198 604l-199 -604h-268l-332 1102h354l138 -572l190 572h233l191 -572l137 572h354z" />
    <glyph glyph-name="Wacute" unicode="&#x1e82;" horiz-adv-x="1855" 
d="M1237 1970l-207 -368h-239l133 368h313zM1855 1458l-399 -1458h-293l-235 719l-236 -719h-291l-401 1458h375l190 -770l236 770h254l235 -770l191 770h374z" />
    <glyph glyph-name="wacute" unicode="&#x1e83;" horiz-adv-x="1597" 
d="M1124 1618l-206 -369h-240l133 369h313zM1597 1102l-331 -1102h-269l-198 604l-199 -604h-268l-332 1102h354l138 -572l190 572h233l191 -572l137 572h354z" />
    <glyph glyph-name="Wdieresis" unicode="&#x1e84;" horiz-adv-x="1855" 
d="M834 1599h-275v297h275v-297zM1296 1599h-274v297h274v-297zM1855 1458l-399 -1458h-293l-235 719l-236 -719h-291l-401 1458h375l190 -770l236 770h254l235 -770l191 770h374z" />
    <glyph glyph-name="wdieresis" unicode="&#x1e85;" horiz-adv-x="1597" 
d="M1167 1247h-274v297h274v-297zM705 1247h-275v297h275v-297zM1597 1102l-331 -1102h-269l-198 604l-199 -604h-268l-332 1102h354l138 -572l190 572h233l191 -572l137 572h354z" />
    <glyph glyph-name="uni1E8A" unicode="&#x1e8a;" horiz-adv-x="1298" 
d="M793 1608h-283v282h283v-282zM1298 0h-409l-240 449l-239 -449h-410l455 748l-426 710h407l213 -411l213 411h408l-426 -710z" />
    <glyph glyph-name="uni1E8B" unicode="&#x1e8b;" 
d="M709 1255h-283v283h283v-283zM1139 0h-404l-168 279l-164 -279h-403l383 563l-369 539h404l149 -266l154 266h403l-368 -539z" />
    <glyph glyph-name="Ygrave" unicode="&#x1ef2;" horiz-adv-x="1239" 
d="M772 1602h-240l-206 368h313zM799 0h-359v594l-440 864h391l230 -524l227 524h391l-440 -864v-594z" />
    <glyph glyph-name="ygrave" unicode="&#x1ef3;" horiz-adv-x="1052" 
d="M657 1249h-239l-207 369h313zM152 -369v303h71q47 0 72 16t41 66l31 93l-367 993h352l187 -572l178 572h352l-457 -1233q-33 -92 -86 -145q-86 -92 -247 -93h-127z" />
    <glyph glyph-name="uni2007" unicode="&#x2007;" 
 />
    <glyph glyph-name="uni2008" unicode="&#x2008;" horiz-adv-x="602" 
 />
    <glyph glyph-name="uni200B" unicode="&#x200b;" horiz-adv-x="0" 
 />
    <glyph glyph-name="endash" unicode="&#x2013;" 
d="M1038 446h-938v316h938v-316z" />
    <glyph glyph-name="emdash" unicode="&#x2014;" horiz-adv-x="2238" 
d="M2138 451h-2038v323h2038v-323z" />
    <glyph glyph-name="afii00208" unicode="&#x2015;" horiz-adv-x="2238" 
d="M2138 451h-2038v323h2038v-323z" />
    <glyph glyph-name="quoteleft" unicode="&#x2018;" horiz-adv-x="569" 
d="M453 1159h-336v299l336 246v-545z" />
    <glyph glyph-name="quoteright" unicode="&#x2019;" horiz-adv-x="569" 
d="M117 1458h336v-301l-336 -242v543z" />
    <glyph glyph-name="quotesinglbase" unicode="&#x201a;" horiz-adv-x="565" 
d="M117 301h336v-301l-336 -242v543z" />
    <glyph glyph-name="quotedblleft" unicode="&#x201c;" horiz-adv-x="1046" 
d="M451 1159h-334v299l334 246v-545zM930 1159h-336v299l336 246v-545z" />
    <glyph glyph-name="quotedblright" unicode="&#x201d;" horiz-adv-x="1046" 
d="M117 1458h334v-301l-334 -242v543zM594 1458h336v-301l-336 -242v543z" />
    <glyph glyph-name="quotedblbase" unicode="&#x201e;" horiz-adv-x="1052" 
d="M117 301h334v-301l-334 -242v543zM594 301h336v-301l-336 -242v543z" />
    <glyph glyph-name="dagger" unicode="&#x2020;" horiz-adv-x="1155" 
d="M1059 799h-314v-799h-335v799h-314v303h314v356h335v-356h314v-303z" />
    <glyph glyph-name="daggerdbl" unicode="&#x2021;" horiz-adv-x="1155" 
d="M1059 0h-314v-356h-335v356h-314v303h314v496h-314v303h314v356h335v-356h314v-303h-314v-496h314v-303z" />
    <glyph glyph-name="bullet" unicode="&#x2022;" horiz-adv-x="962" 
d="M815 684q0 -138 -98 -236q-97 -98 -235 -98t-236 97t-98 237t98 236q98 98 235 98t236 -97q98 -98 98 -237z" />
    <glyph glyph-name="ellipsis" unicode="&#x2026;" horiz-adv-x="1841" 
d="M1094 0h-349v348h349v-348zM465 0h-348v348h348v-348zM1724 0h-348v348h348v-348z" />
    <glyph glyph-name="perthousand" unicode="&#x2030;" horiz-adv-x="2516" 
d="M1425 281v178q1 80 -71 80t-72 -80v-178q0 -80 72 -80t71 80zM2187 281v178q1 80 -71 80t-72 -80v-178q0 -80 72 -80t71 80zM473 999v179q0 80 -72 79q-72 0 -71 -79v-179q0 -80 71 -79q72 -1 72 79zM1354 1458l-695 -1458h-258l695 1458h258zM711 991q0 -137 -89 -211
q-88 -74 -220 -74t-221 74t-89 211v195q0 137 89 211q89 73 220 73t221 -73q89 -74 89 -211v-195zM1663 272q0 -137 -89 -211q-89 -73 -220 -73t-220 74t-90 210v195q0 137 90 211t220 74q131 0 220 -74t89 -211v-195zM2425 272q0 -137 -89 -211q-89 -73 -220 -73t-221 73
q-89 74 -89 211v195q0 137 89 211t221 74t220 -74q89 -74 89 -211v-195z" />
    <glyph glyph-name="guilsinglleft" unicode="&#x2039;" horiz-adv-x="743" 
d="M621 18l-560 555l560 553v-395l-162 -158l162 -159v-396z" />
    <glyph glyph-name="guilsinglright" unicode="&#x203a;" horiz-adv-x="743" 
d="M682 573l-559 -555v396l164 159l-164 158v395z" />
    <glyph glyph-name="fraction" unicode="&#x2044;" horiz-adv-x="452" 
d="M702 1458l-694 -1458h-258l694 1458h258z" />
    <glyph glyph-name="uni2070" unicode="&#x2070;" horiz-adv-x="696" 
d="M406 854v332q0 35 -18 51t-40 16q-23 0 -40 -16t-17 -51v-332q-1 -66 57 -66t58 66zM643 860q0 -135 -87 -210t-208 -75t-208 75t-87 210v324q0 135 87 209q87 73 208 73t208 -74t87 -208v-324z" />
    <glyph glyph-name="uni2074" unicode="&#x2074;" horiz-adv-x="696" 
d="M680 696h-53v-112h-234v112h-366v213l282 549h260l-288 -549h112v84h234v-84h53v-213z" />
    <glyph glyph-name="uni2075" unicode="&#x2075;" horiz-adv-x="696" 
d="M649 883q0 -84 -16 -131t-66 -97q-80 -80 -216 -80t-216 80q-56 56 -73 131q-5 27 -9 80h238q4 -78 61 -78q29 0 44 20q16 20 16 76t-16 75t-46 20q-51 0 -63 -53h-219v532h563v-213h-346v-96q43 27 104 27q113 0 176 -64q84 -84 84 -229z" />
    <glyph glyph-name="uni2076" unicode="&#x2076;" horiz-adv-x="696" 
d="M412 866q0 80 -70 80q-29 0 -48 -20q-20 -20 -20 -60t20 -60q20 -22 48 -22q30 0 50 22t20 60zM414 1135q86 0 160 -73t75 -205q0 -132 -89 -207t-218 -75t-217 76t-88 215q0 90 82 254l164 338h262l-166 -325q12 2 35 2z" />
    <glyph glyph-name="uni2077" unicode="&#x2077;" horiz-adv-x="696" 
d="M238 1245v-139h-213v352h637v-213l-265 -661h-237l262 661h-184z" />
    <glyph glyph-name="uni2078" unicode="&#x2078;" horiz-adv-x="696" 
d="M410 1192q0 27 -18 44t-44 17q-27 0 -44 -17t-17 -44t17 -44q17 -18 44 -18q26 0 44 18t18 44zM416 858q0 29 -20 48q-20 20 -48 20q-29 0 -48 -20t-19 -48q0 -29 19 -48t48 -19q28 0 48 19t20 48zM653 852q0 -137 -86 -207t-219 -70t-219 70t-86 207q0 102 88 180
q-82 82 -82 166q0 125 88 197q88 71 211 71t211 -72t88 -196q0 -84 -82 -166q88 -78 88 -180z" />
    <glyph glyph-name="uni2079" unicode="&#x2079;" horiz-adv-x="696" 
d="M422 1178q0 35 -20 55t-48 20q-29 0 -49 -20t-20 -55t20 -57q20 -21 48 -21q29 0 49 22t20 56zM659 1176q0 -86 -81 -254l-164 -338h-262l165 327q-10 -4 -34 -4q-84 0 -160 73t-76 205t89 207q89 74 218 74t217 -76t88 -214z" />
    <glyph glyph-name="uni2080" unicode="&#x2080;" horiz-adv-x="696" 
d="M406 -37v332q0 35 -18 51t-40 16q-23 0 -40 -16t-17 -51v-332q0 -66 57 -65q58 -1 58 65zM643 -31q0 -135 -87 -210t-208 -75t-208 76q-87 74 -87 209v324q0 135 87 209t208 74t208 -74t87 -209v-324z" />
    <glyph glyph-name="uni2081" unicode="&#x2081;" horiz-adv-x="696" 
d="M528 -307h-237v608l-195 -168v266l195 168h237v-874z" />
    <glyph glyph-name="uni2082" unicode="&#x2082;" horiz-adv-x="696" 
d="M647 -307h-588v213l310 315q45 45 45 77q0 64 -58 64t-59 -61h-238q0 131 85 203t212 72t209 -74q82 -72 82 -199q1 -70 -27 -117t-94 -110l-178 -170h299v-213z" />
    <glyph glyph-name="uni2083" unicode="&#x2083;" horiz-adv-x="696" 
d="M655 -39q0 -135 -87 -206t-214 -71t-215 70t-88 217h236q0 -74 65 -73q66 0 66 71q0 29 -20 49t-48 21h-33v203h33q31 0 46 19q16 19 16 44t-18 41t-41 16q-24 0 -40 -16t-16 -47h-238q0 125 85 201t211 76t209 -76t83 -184t-82 -171q90 -84 90 -184z" />
    <glyph glyph-name="uni2084" unicode="&#x2084;" horiz-adv-x="696" 
d="M680 -195h-53v-112h-234v112h-366v213l282 549h260l-288 -549h112v84h234v-84h53v-213z" />
    <glyph glyph-name="uni2085" unicode="&#x2085;" horiz-adv-x="696" 
d="M649 -8q0 -84 -16 -131t-66 -97q-80 -80 -216 -80t-216 80q-56 56 -73 132q-5 27 -9 79h238q4 -78 61 -77q29 0 44 19q16 19 16 75t-16 76t-46 20q-51 0 -63 -53h-219v532h563v-213h-346v-96q43 27 104 27q113 0 176 -64q84 -84 84 -229z" />
    <glyph glyph-name="uni2086" unicode="&#x2086;" horiz-adv-x="696" 
d="M412 -25q0 80 -70 80q-29 0 -48 -20q-20 -19 -20 -59t20 -62t48 -20q30 0 50 21t20 60zM414 244q86 0 160 -73t75 -205q0 -132 -89 -207t-218 -75t-217 76t-88 215q0 90 82 254l164 338h262l-166 -325q12 2 35 2z" />
    <glyph glyph-name="uni2087" unicode="&#x2087;" horiz-adv-x="696" 
d="M238 354v-139h-213v352h637v-213l-265 -661h-237l262 661h-184z" />
    <glyph glyph-name="uni2088" unicode="&#x2088;" horiz-adv-x="696" 
d="M410 301q0 27 -18 44t-44 17q-27 0 -44 -17t-17 -44t17 -44t44 -17q26 0 44 17t18 44zM416 -33q0 29 -20 48t-48 19q-29 0 -48 -18q-19 -20 -19 -49t19 -48t48 -19q28 0 48 19t20 48zM653 -39q0 -137 -86 -207t-219 -70t-219 70t-86 207q0 102 88 180q-82 82 -82 166
q0 125 88 197t211 72t211 -72t88 -197q0 -84 -82 -166q88 -78 88 -180z" />
    <glyph glyph-name="uni2089" unicode="&#x2089;" horiz-adv-x="696" 
d="M422 287q0 35 -20 55t-48 20q-29 0 -49 -20t-20 -55t20 -57t48 -22q29 0 49 22t20 57zM659 285q0 -86 -81 -254l-164 -338h-262l165 327q-10 -4 -34 -4q-84 0 -160 73t-76 205t89 207t218 75t217 -76t88 -215z" />
    <glyph glyph-name="Euro" unicode="&#x20ac;" horiz-adv-x="1409" 
d="M756 -12q-228 0 -391 164q-113 113 -138 307h-155v209h145v127h-145v209h155q25 190 138 303q164 163 392 163t378 -120t188 -355h-365q-43 156 -186 156q-94 0 -132 -51t-46 -96h219v-209h-238v-127h238v-209h-221q32 -150 177 -151q146 -1 189 155h365
q-39 -233 -189 -354t-378 -121z" />
    <glyph glyph-name="uni20B4" unicode="&#x20b4;" horiz-adv-x="1417" 
d="M885 1020q0 54 -45 96q-44 41 -118 41t-108 -3t-88 -22q-53 -19 -94 -61l-225 225q174 174 491 174q244 0 388 -129t145 -331q0 -31 -4 -76h119v-168h-177q-18 -28 -51 -61h228v-168h-766q-43 -29 -43 -99q-1 -131 215 -131t319 103l229 -230q-104 -108 -238 -150
t-314 -42q-242 0 -403 122t-161 336q0 47 6 91h-118v168h172q18 33 49 61h-221v168h757q56 32 56 86z" />
    <glyph glyph-name="afii61352" unicode="&#x2116;" horiz-adv-x="1996" 
d="M1597 1470q147 0 235 -93t89 -292q0 -199 -88 -289q-87 -90 -235 -91q-148 0 -236 93q-88 94 -88 290t88 289t235 93zM1597 930q27 0 49 22t21 147q0 126 -27 152q-14 15 -43 15t-43 -15q-26 -27 -26 -153t21 -146q21 -22 48 -22zM1907 399h-619v242h619v-242zM1180 0
h-291l-426 795v-795h-336v1458h291l426 -794v794h336v-1458z" />
    <glyph glyph-name="trademark" unicode="&#x2122;" horiz-adv-x="1992" 
d="M772 1245h-215v-661h-238v661h-215v213h668v-213zM1855 584h-239v448l-137 -268h-205l-137 268v-448h-240v874h240l239 -430l240 430h239v-874z" />
    <glyph glyph-name="Omega" unicode="&#x2126;" horiz-adv-x="1310" 
d="M193 319q-93 121 -93 440t64 437q33 61 86 115q160 159 406 159t405 -159q110 -110 129 -248q20 -138 20 -334q0 -287 -92 -410h92v-319h-477v279q43 20 66 51q53 70 53 377t-52 375t-144 69q-92 0 -145 -69q-52 -70 -52 -376t53 -376q23 -31 66 -51v-279h-478v319h93z
" />
    <glyph glyph-name="onethird" unicode="&#x2153;" horiz-adv-x="1845" 
d="M1804 268q0 -135 -87 -206q-87 -70 -214 -70t-215 70t-88 217h236q0 -74 66 -74t65 71q-1 30 -21 50t-47 20h-33v203h33q31 0 46 19t15 44t-16 41q-18 17 -42 17t-40 -16t-16 -48h-238q0 125 85 201t211 76t209 -76q83 -75 83 -183t-82 -171q90 -85 90 -185zM1399 1458
l-694 -1458h-259l695 1458h258zM528 584h-237v608l-195 -168v266l195 168h237v-874z" />
    <glyph glyph-name="twothirds" unicode="&#x2154;" horiz-adv-x="1845" 
d="M1804 268q0 -135 -87 -206q-87 -70 -214 -70t-215 70t-88 217h236q0 -74 66 -74t65 71q-1 30 -21 50t-47 20h-33v203h33q31 0 46 19t15 44t-16 41q-18 17 -42 17t-40 -16t-16 -48h-238q0 125 85 201t211 76t209 -76q83 -75 83 -183t-82 -171q90 -85 90 -185zM1399 1458
l-694 -1458h-259l695 1458h258zM647 584h-588v213l310 315q45 45 45 77q0 64 -58 64t-59 -61h-238q0 131 85 203q85 71 212 71t209 -72t82 -200q1 -70 -27 -117t-94 -110l-178 -170h299v-213z" />
    <glyph glyph-name="uni2155" unicode="&#x2155;" horiz-adv-x="1845" 
d="M1798 299q0 -84 -16 -131t-66 -96q-80 -80 -216 -80t-216 80q-56 56 -73 131q-5 27 -9 80h238q4 -78 61 -78q27 0 43 19q16 20 16 76t-16 76t-45 19q-49 0 -63 -53h-219v532h563v-212h-346v-97q43 27 104 27q113 0 176 -64q84 -84 84 -229zM1399 1458l-694 -1458h-259
l695 1458h258zM528 584h-237v608l-195 -168v266l195 168h237v-874z" />
    <glyph glyph-name="uni2156" unicode="&#x2156;" horiz-adv-x="1845" 
d="M1798 299q0 -84 -16 -131t-66 -96q-80 -80 -216 -80t-216 80q-56 56 -73 131q-5 27 -9 80h238q4 -78 61 -78q27 0 43 19q16 20 16 76t-16 76t-45 19q-49 0 -63 -53h-219v532h563v-212h-346v-97q43 27 104 27q113 0 176 -64q84 -84 84 -229zM1399 1458l-694 -1458h-259
l695 1458h258zM647 584h-588v213l310 315q45 45 45 77q0 64 -58 64t-59 -61h-238q0 131 85 203q85 71 212 71t209 -72t82 -200q1 -70 -27 -117t-94 -110l-178 -170h299v-213z" />
    <glyph glyph-name="uni2157" unicode="&#x2157;" horiz-adv-x="1845" 
d="M1798 299q0 -84 -16 -131t-66 -96q-80 -80 -216 -80t-216 80q-56 56 -73 131q-5 27 -9 80h238q4 -78 61 -78q27 0 43 19q16 20 16 76t-16 76t-45 19q-49 0 -63 -53h-219v532h563v-212h-346v-97q43 27 104 27q113 0 176 -64q84 -84 84 -229zM1399 1458l-694 -1458h-259
l695 1458h258zM655 852q0 -135 -87 -206t-214 -71t-215 70t-88 217h236q-1 -74 65 -74t66 72q0 29 -20 49t-48 21h-33v203h33q31 0 46 19q16 19 16 44t-18 41t-41 16q-24 0 -40 -16t-16 -47h-238q0 125 85 201q85 75 211 75t209 -76t83 -182q0 -108 -82 -172q90 -84 90 -184
z" />
    <glyph glyph-name="uni2158" unicode="&#x2158;" horiz-adv-x="1845" 
d="M1798 299q0 -84 -16 -131t-66 -96q-80 -80 -216 -80t-216 80q-56 56 -73 131q-5 27 -9 80h238q4 -78 61 -78q27 0 43 19q16 20 16 76t-16 76t-45 19q-49 0 -63 -53h-219v532h563v-212h-346v-97q43 27 104 27q113 0 176 -64q84 -84 84 -229zM1399 1458l-694 -1458h-259
l695 1458h258zM680 696h-53v-112h-234v112h-366v213l282 549h260l-288 -549h112v84h234v-84h53v-213z" />
    <glyph glyph-name="uni2159" unicode="&#x2159;" horiz-adv-x="1845" 
d="M1561 283q0 80 -70 79q-29 0 -48 -20t-19 -59t18 -61q20 -22 49 -22t49 22t21 61zM1563 551q87 -1 161 -73t74 -204t-89 -207t-218 -75t-217 76t-88 215q0 90 82 254l164 337h262l-166 -325q12 2 35 2zM1399 1458l-694 -1458h-259l695 1458h258zM528 584h-237v608
l-195 -168v266l195 168h237v-874z" />
    <glyph glyph-name="uni215A" unicode="&#x215a;" horiz-adv-x="1845" 
d="M1561 283q0 80 -70 79q-29 0 -48 -20t-19 -59t18 -61q20 -22 49 -22t49 22t21 61zM1563 551q87 -1 161 -73t74 -204t-89 -207t-218 -75t-217 76t-88 215q0 90 82 254l164 337h262l-166 -325q12 2 35 2zM1399 1458l-694 -1458h-259l695 1458h258zM649 883q0 -84 -16 -131
t-66 -97q-80 -80 -216 -80t-216 80q-56 56 -73 131q-5 27 -9 80h238q4 -78 61 -78q29 0 44 20q16 20 16 76t-16 75t-46 20q-51 0 -63 -53h-219v532h563v-213h-346v-96q43 27 104 27q113 0 176 -64q84 -84 84 -229z" />
    <glyph glyph-name="oneeighth" unicode="&#x215b;" horiz-adv-x="1845" 
d="M1559 608q1 27 -17 44q-18 18 -45 18t-44 -18t-17 -44q0 -27 17 -44t44 -17t45 17t17 44zM1565 274q1 28 -19 48t-49 20t-48 -19t-19 -49t19 -48q19 -19 48 -19t49 19t19 48zM1802 268q0 -137 -86 -207q-86 -69 -219 -69t-219 70t-86 206q0 102 88 181q-82 82 -82 165
q0 125 88 197t211 72t211 -72t88 -197q0 -84 -82 -165q88 -79 88 -181zM1399 1458l-694 -1458h-259l695 1458h258zM528 584h-237v608l-195 -168v266l195 168h237v-874z" />
    <glyph glyph-name="threeeighths" unicode="&#x215c;" horiz-adv-x="1845" 
d="M1559 608q1 27 -17 44q-18 18 -45 18t-44 -18t-17 -44q0 -27 17 -44t44 -17t45 17t17 44zM1565 274q1 28 -19 48t-49 20t-48 -19t-19 -49t19 -48q19 -19 48 -19t49 19t19 48zM1802 268q0 -137 -86 -207q-86 -69 -219 -69t-219 70t-86 206q0 102 88 181q-82 82 -82 165
q0 125 88 197t211 72t211 -72t88 -197q0 -84 -82 -165q88 -79 88 -181zM1399 1458l-694 -1458h-259l695 1458h258zM655 852q0 -135 -87 -206t-214 -71t-215 70t-88 217h236q-1 -74 65 -74t66 72q0 29 -20 49t-48 21h-33v203h33q31 0 46 19q16 19 16 44t-18 41t-41 16
q-24 0 -40 -16t-16 -47h-238q0 125 85 201q85 75 211 75t209 -76t83 -182q0 -108 -82 -172q90 -84 90 -184z" />
    <glyph glyph-name="fiveeighths" unicode="&#x215d;" horiz-adv-x="1845" 
d="M1559 608q1 27 -17 44q-18 18 -45 18t-44 -18t-17 -44q0 -27 17 -44t44 -17t45 17t17 44zM1565 274q1 28 -19 48t-49 20t-48 -19t-19 -49t19 -48q19 -19 48 -19t49 19t19 48zM1802 268q0 -137 -86 -207q-86 -69 -219 -69t-219 70t-86 206q0 102 88 181q-82 82 -82 165
q0 125 88 197t211 72t211 -72t88 -197q0 -84 -82 -165q88 -79 88 -181zM1399 1458l-694 -1458h-259l695 1458h258zM649 883q0 -84 -16 -131t-66 -97q-80 -80 -216 -80t-216 80q-56 56 -73 131q-5 27 -9 80h238q4 -78 61 -78q29 0 44 20q16 20 16 76t-16 75t-46 20
q-51 0 -63 -53h-219v532h563v-213h-346v-96q43 27 104 27q113 0 176 -64q84 -84 84 -229z" />
    <glyph glyph-name="seveneighths" unicode="&#x215e;" horiz-adv-x="1845" 
d="M1559 608q1 27 -17 44q-18 18 -45 18t-44 -18t-17 -44q0 -27 17 -44t44 -17t45 17t17 44zM1565 274q1 28 -19 48t-49 20t-48 -19t-19 -49t19 -48q19 -19 48 -19t49 19t19 48zM1802 268q0 -137 -86 -207q-86 -69 -219 -69t-219 70t-86 206q0 102 88 181q-82 82 -82 165
q0 125 88 197t211 72t211 -72t88 -197q0 -84 -82 -165q88 -79 88 -181zM1399 1458l-694 -1458h-259l695 1458h258zM238 1245v-139h-213v352h637v-213l-265 -661h-237l262 661h-184z" />
    <glyph glyph-name="uni215F" unicode="&#x215f;" horiz-adv-x="1148" 
d="M1399 1458l-694 -1458h-259l695 1458h258zM528 584h-237v608l-195 -168v266l195 168h237v-874z" />
    <glyph glyph-name="arrowleft" unicode="&#x2190;" horiz-adv-x="2103" 
d="M2005 762v-316h-1339l622 -614h-420l-772 772l772 772h420l-622 -614h1339z" />
    <glyph glyph-name="arrowup" unicode="&#x2191;" horiz-adv-x="2103" 
d="M1210 -350h-315v1341l-614 -622v419l772 773l772 -773v-419l-615 622v-1341z" />
    <glyph glyph-name="arrowright" unicode="&#x2192;" horiz-adv-x="2103" 
d="M98 446v316h1342l-623 614h420l772 -772l-772 -772h-420l623 614h-1342z" />
    <glyph glyph-name="arrowdown" unicode="&#x2193;" horiz-adv-x="2103" 
d="M893 1559h315v-1340l615 623v-420l-772 -772l-772 772v420l614 -623v1340z" />
    <glyph glyph-name="uni2196" unicode="&#x2196;" horiz-adv-x="2103" 
d="M375 1280h1093l297 -297l-874 4l946 -946l-223 -223l-946 946l4 -875l-297 297v1094z" />
    <glyph glyph-name="uni2197" unicode="&#x2197;" horiz-adv-x="2103" 
d="M1726 1280v-1092l-296 -297l6 875l-949 -948l-223 223l948 948l-874 -6l297 297h1091z" />
    <glyph glyph-name="uni2198" unicode="&#x2198;" horiz-adv-x="2103" 
d="M1749 -127h-1092l-297 297l875 -6l-948 948l223 223l948 -948l-6 875l297 -297v-1092z" />
    <glyph glyph-name="uni2199" unicode="&#x2199;" horiz-adv-x="2103" 
d="M350 -127v1096l297 297l-4 -877l948 948l224 -223l-949 -948l877 4l-297 -297h-1096z" />
    <glyph glyph-name="partialdiff" unicode="&#x2202;" horiz-adv-x="1148" 
d="M686 530q0 168 -43 211q-29 29 -80 29t-80 -29q-43 -43 -43 -211t43 -211q29 -29 80 -29t80 29q43 43 43 211zM1022 530q0 -158 -25 -246t-92 -161q-127 -135 -342 -135t-342 135q-68 72 -92 161q-25 88 -25 246t26 248t91 162q125 133 334 133q80 0 129 -24
q0 61 -67 107q-44 32 -109 32q-119 0 -189 -70l-208 209q80 80 178 112t235 31q244 0 371 -139t127 -370v-431z" />
    <glyph glyph-name="Delta" unicode="&#x2206;" horiz-adv-x="1337" 
d="M868 299l-190 606l-203 -606h393zM1337 0h-1337l530 1458h277z" />
    <glyph glyph-name="product" unicode="&#x220f;" horiz-adv-x="1392" 
d="M1245 -356h-358v1595h-381v-1595h-359v1912h1098v-1912z" />
    <glyph glyph-name="summation" unicode="&#x2211;" horiz-adv-x="1132" 
d="M1071 -360h-1010v278l371 700l-362 660v278h991v-319h-569l241 -459v-334l-258 -485h596v-319z" />
    <glyph glyph-name="minus" unicode="&#x2212;" 
d="M1038 446h-938v316h938v-316z" />
    <glyph glyph-name="uni2219" unicode="&#x2219;" 
d="M903 684q0 -138 -97 -236q-96 -98 -236 -98t-237 97t-97 237t97 236q97 98 236 98t237 -97q97 -98 97 -237z" />
    <glyph glyph-name="radical" unicode="&#x221a;" horiz-adv-x="1261" 
d="M1200 1139h-192l-377 -1139h-266l-365 1102h362l138 -459l241 815h459v-319z" />
    <glyph glyph-name="infinity" unicode="&#x221e;" horiz-adv-x="1794" 
d="M1370 594q0 47 -29 74q-54 51 -123 10q-28 -16 -44 -34t-44 -50q82 -100 142 -100q42 0 70 26t28 74zM515 694q-35 0 -63 -26t-28 -74q0 -47 29 -74t76 -26t92 50q16 17 43 50q-27 33 -43 50q-16 18 -44 34t-62 16zM1698 604q0 -184 -111 -303t-317 -119t-373 180
q-166 -180 -373 -180q-208 0 -318 119t-110 303t111 303t317 119t373 -180q166 180 373 180q208 0 318 -119t110 -303z" />
    <glyph glyph-name="integral" unicode="&#x222b;" horiz-adv-x="1146" 
d="M1004 1212h-113q-141 0 -141 -135v-999q0 -204 -126 -312t-333 -108h-150v283h113q141 0 141 135v999q0 203 126 311t333 109h150v-283z" />
    <glyph glyph-name="approxequal" unicode="&#x2248;" horiz-adv-x="1323" 
d="M868 119q-118 0 -222 60q-104 61 -193 61q-90 0 -174 -84l-218 213q103 104 191 150t206 46t222 -60q104 -61 194 -61t175 84l213 -213q-104 -104 -190 -150t-204 -46zM864 639q-118 1 -222 61t-193 60q-90 0 -175 -84l-213 213q103 104 189 150t204 46t222 -60t194 -60
t174 84l218 -213q-104 -104 -192 -150t-206 -47z" />
    <glyph glyph-name="notequal" unicode="&#x2260;" horiz-adv-x="1310" 
d="M1210 197h-696l-211 -287l-203 151l99 136h-99v315h330l135 184h-465v316h697l211 286l202 -151l-98 -135h98v-316h-329l-136 -184h465v-315z" />
    <glyph glyph-name="lessequal" unicode="&#x2264;" 
d="M1030 -119l-921 406v354l921 -405v-355zM1030 408l-921 405v291l921 405v-354l-481 -197l481 -196v-354z" />
    <glyph glyph-name="greaterequal" unicode="&#x2265;" 
d="M1030 287l-921 -406v355l921 405v-354zM1030 813l-921 -405v354l481 196l-481 197v354l921 -405v-291z" />
    <glyph glyph-name="dotmath" unicode="&#x22c5;" 
d="M754 420h-369v368h369v-368z" />
    <glyph glyph-name="lozenge" unicode="&#x25ca;" horiz-adv-x="1286" 
d="M811 684l-168 229l-168 -229l168 -229zM1190 684l-547 -754l-547 754l547 754z" />
    <glyph glyph-name="fi" unicode="&#xfb01;" horiz-adv-x="1292" 
d="M1165 1214h-336v256h336v-256zM1165 0h-336v1059h336v-1059zM682 801h-184v-801h-336v801h-101v258h101v96q0 129 86 227t256 99h178v-283h-117q-68 0 -67 -68v-71h184v-258z" />
    <glyph glyph-name="fl" unicode="&#xfb02;" horiz-adv-x="1411" 
d="M1350 0h-179q-170 0 -256 98t-86 228v1132h336v-1108q0 -68 68 -67h117v-283zM682 801h-184v-801h-336v801h-101v258h101v96q0 129 86 227t256 99h178v-283h-117q-68 0 -67 -68v-71h184v-258z" />
    <glyph glyph-name="i.latn_TRK" horiz-adv-x="589" 
d="M463 1214h-336v256h336v-256zM463 0h-336v1059h336v-1059z" />
    <glyph glyph-name="Ldot.latn_CAT" horiz-adv-x="1179" 
d="M1049 592h-283v282h283v-282zM1118 0h-971v1458h359v-1139h612v-319z" />
    <glyph glyph-name="ldot.latn_CAT" horiz-adv-x="948" 
d="M901 459h-283v282h283v-282zM637 0h-178q-170 0 -256 98t-86 228v1132h336v-1108q0 -68 67 -67h117v-283z" />
    <glyph glyph-name="zero.numr" horiz-adv-x="696" 
d="M406 854v332q0 35 -18 51t-40 16q-23 0 -40 -16t-17 -51v-332q-1 -66 57 -66t58 66zM643 860q0 -135 -87 -210t-208 -75t-208 75t-87 210v324q0 135 87 209q87 73 208 73t208 -74t87 -208v-324z" />
    <glyph glyph-name="one.numr" horiz-adv-x="696" 
d="M528 584h-237v608l-195 -168v266l195 168h237v-874z" />
    <glyph glyph-name="two.numr" horiz-adv-x="696" 
d="M647 584h-588v213l310 315q45 45 45 77q0 64 -58 64t-59 -61h-238q0 131 85 203q85 71 212 71t209 -72t82 -200q1 -70 -27 -117t-94 -110l-178 -170h299v-213z" />
    <glyph glyph-name="three.numr" horiz-adv-x="696" 
d="M655 852q0 -135 -87 -206t-214 -71t-215 70t-88 217h236q-1 -74 65 -74t66 72q0 29 -20 49t-48 21h-33v203h33q31 0 46 19q16 19 16 44t-18 41t-41 16q-24 0 -40 -16t-16 -47h-238q0 125 85 201q85 75 211 75t209 -76t83 -182q0 -108 -82 -172q90 -84 90 -184z" />
    <glyph glyph-name="four.numr" horiz-adv-x="696" 
d="M680 696h-53v-112h-234v112h-366v213l282 549h260l-288 -549h112v84h234v-84h53v-213z" />
    <glyph glyph-name="five.numr" horiz-adv-x="696" 
d="M649 883q0 -84 -16 -131t-66 -97q-80 -80 -216 -80t-216 80q-56 56 -73 131q-5 27 -9 80h238q4 -78 61 -78q29 0 44 20q16 20 16 76t-16 75t-46 20q-51 0 -63 -53h-219v532h563v-213h-346v-96q43 27 104 27q113 0 176 -64q84 -84 84 -229z" />
    <glyph glyph-name="six.numr" horiz-adv-x="696" 
d="M412 866q0 80 -70 80q-29 0 -48 -20q-20 -20 -20 -60t20 -60q20 -22 48 -22q30 0 50 22t20 60zM414 1135q86 0 160 -73t75 -205q0 -132 -89 -207t-218 -75t-217 76t-88 215q0 90 82 254l164 338h262l-166 -325q12 2 35 2z" />
    <glyph glyph-name="seven.numr" horiz-adv-x="696" 
d="M238 1245v-139h-213v352h637v-213l-265 -661h-237l262 661h-184z" />
    <glyph glyph-name="eight.numr" horiz-adv-x="696" 
d="M410 1192q0 27 -18 44t-44 17q-27 0 -44 -17t-17 -44t17 -44q17 -18 44 -18q26 0 44 18t18 44zM416 858q0 29 -20 48q-20 20 -48 20q-29 0 -48 -20t-19 -48q0 -29 19 -48t48 -19q28 0 48 19t20 48zM653 852q0 -137 -86 -207t-219 -70t-219 70t-86 207q0 102 88 180
q-82 82 -82 166q0 125 88 197q88 71 211 71t211 -72t88 -196q0 -84 -82 -166q88 -78 88 -180z" />
    <glyph glyph-name="nine.numr" horiz-adv-x="696" 
d="M422 1178q0 35 -20 55t-48 20q-29 0 -49 -20t-20 -55t20 -57q20 -21 48 -21q29 0 49 22t20 56zM659 1176q0 -86 -81 -254l-164 -338h-262l165 327q-10 -4 -34 -4q-84 0 -160 73t-76 205t89 207q89 74 218 74t217 -76t88 -214z" />
    <glyph glyph-name="zero.dnom" horiz-adv-x="696" 
d="M406 270v332q0 35 -18 51q-18 17 -40 17q-23 0 -40 -16t-17 -52v-332q0 -66 57 -65q58 -1 58 65zM643 276q0 -136 -87 -210t-208 -74t-208 75t-87 209v324q0 135 87 209t208 74t208 -74t87 -209v-324z" />
    <glyph glyph-name="one.dnom" horiz-adv-x="696" 
d="M528 0h-237v608l-195 -168v267l195 167h237v-874z" />
    <glyph glyph-name="two.dnom" horiz-adv-x="696" 
d="M647 0h-588v213l310 315q45 45 45 77q0 63 -60 65q-57 0 -57 -62h-238q0 131 85 203t212 72t209 -73t82 -200q1 -70 -27 -116t-94 -111l-178 -170h299v-213z" />
    <glyph glyph-name="three.dnom" horiz-adv-x="696" 
d="M655 268q0 -135 -87 -206q-87 -70 -214 -70t-215 70t-88 217h236q-1 -74 65 -74t66 71q0 30 -20 50t-48 20h-33v203h33q31 0 46 19q16 19 16 44t-18 41q-18 17 -41 17q-24 0 -40 -16t-16 -48h-238q0 125 85 201t211 76t209 -76q83 -75 83 -183t-82 -171q90 -85 90 -185z
" />
    <glyph glyph-name="four.dnom" horiz-adv-x="696" 
d="M680 113h-53v-113h-234v113h-366v213l282 548h260l-288 -548h112v84h234v-84h53v-213z" />
    <glyph glyph-name="five.dnom" horiz-adv-x="696" 
d="M649 299q0 -84 -16 -131t-66 -96q-80 -80 -216 -80t-216 80q-56 56 -73 131q-5 27 -9 80h238q4 -78 61 -78q29 0 44 19q16 20 16 76t-16 76t-46 19q-51 0 -63 -53h-219v532h563v-212h-346v-97q43 27 104 27q113 0 176 -64q84 -84 84 -229z" />
    <glyph glyph-name="six.dnom" horiz-adv-x="696" 
d="M412 283q0 80 -70 79q-29 0 -48 -20q-20 -20 -20 -59t20 -61t48 -22q30 0 50 22t20 61zM414 551q86 -1 160 -73t75 -204q0 -132 -89 -207t-218 -75t-217 76t-88 215q0 90 82 254l164 337h262l-166 -325q12 2 35 2z" />
    <glyph glyph-name="seven.dnom" horiz-adv-x="696" 
d="M238 662v-140h-213v352h637v-212l-265 -662h-237l262 662h-184z" />
    <glyph glyph-name="eight.dnom" horiz-adv-x="696" 
d="M410 608q0 27 -18 44q-18 18 -44 18q-27 0 -44 -18t-17 -44q0 -27 17 -44t44 -17q26 0 44 17t18 44zM416 274q0 28 -20 48t-48 20q-29 0 -48 -19t-19 -49t19 -48q19 -19 48 -19q28 0 48 19t20 48zM653 268q0 -137 -86 -207q-86 -69 -219 -69t-219 70t-86 206
q0 102 88 181q-82 82 -82 165q0 125 88 197t211 72t211 -72t88 -197q0 -84 -82 -165q88 -79 88 -181z" />
    <glyph glyph-name="nine.dnom" horiz-adv-x="696" 
d="M422 594q0 35 -20 55q-20 21 -48 21q-29 0 -49 -20t-20 -56q0 -34 20 -56t48 -22q29 0 49 22t20 56zM659 592q0 -86 -81 -254l-164 -338h-262l165 328q-10 -4 -34 -4q-84 0 -160 72t-76 205q0 132 89 207t218 75t217 -76t88 -215z" />
    <glyph glyph-name="space.frac" horiz-adv-x="90" 
 />
    <glyph glyph-name="zero.osf" 
d="M702 440v340q0 74 -37 113t-95 39t-96 -39t-38 -113v-340q0 -74 38 -112t95 -37q57 -1 95 37t38 112zM1038 442q0 -214 -137 -334t-332 -120t-331 120t-138 334v338q0 215 138 335t332 120t331 -120t137 -335v-338z" />
    <glyph glyph-name="one.osf" horiz-adv-x="974" 
d="M760 0h-336v864l-311 -270v358l311 271h336v-1223z" />
    <glyph glyph-name="two.osf" horiz-adv-x="1173" 
d="M1051 0h-959v303l453 354q77 61 113 103t36 94q0 51 -35 85t-93 34t-98 -33t-40 -109h-336q0 207 136 326t337 119t333 -114t132 -306q0 -113 -74 -206t-227 -212l-176 -135h498v-303z" />
    <glyph glyph-name="three.osf" horiz-adv-x="1118" 
d="M1032 193q0 -209 -139 -325t-346 -116q-280 0 -413 195q-73 106 -73 262h336q0 -74 42 -114t109 -40q68 0 108 40t40 111t-44 115t-111 44h-47v290h47q71 0 105 41t34 102q0 62 -39 98t-94 36t-94 -37t-39 -100h-336q0 201 134 321t336 119q202 0 335 -122t133 -310
t-152 -285q168 -116 168 -325z" />
    <glyph glyph-name="four.osf" horiz-adv-x="1267" 
d="M1186 61h-150v-313h-319v313h-633v320l473 946h363l-474 -946h271v233h319v-233h150v-320z" />
    <glyph glyph-name="five.osf" horiz-adv-x="1169" 
d="M1075 254q1 -129 -27 -213t-108 -164q-125 -125 -341 -125t-343 127q-49 49 -78 111t-36 106q-7 45 -13 113h336q16 -154 137 -154q57 0 97 40t40 161t-34 167q-35 46 -113 46t-113 -71q-6 -13 -14 -33h-309v858h888v-303h-583v-226q74 57 196 58q180 0 283 -103
q82 -82 108 -174t27 -221z" />
    <glyph glyph-name="six.osf" horiz-adv-x="1150" 
d="M743 465q0 88 -48 137t-120 49q-71 0 -119 -49t-48 -137t48 -137t120 -49t119 49q48 49 48 137zM676 924q162 0 282 -121t121 -344q0 -223 -144 -347q-143 -124 -359 -124t-360 124t-144 353q0 139 37 250t124 272l275 504h362l-338 -592q47 25 144 25z" />
    <glyph glyph-name="seven.osf" horiz-adv-x="1193" 
d="M412 920v-230h-320v533h1030v-303l-506 -1156h-364l506 1156h-346z" />
    <glyph glyph-name="eight.osf" horiz-adv-x="1179" 
d="M729 1028q0 57 -41 98t-98 41t-98 -41t-41 -98t41 -98t98 -41t98 41t41 98zM743 444q0 62 -45 108t-108 46q-62 0 -108 -45t-46 -109t45 -108q45 -45 109 -45t108 45q45 45 45 108zM1079 436q0 -217 -138 -333q-138 -115 -351 -115t-351 116t-139 332q0 84 34 155t61 97
t69 62q-150 125 -149 288q0 199 139 316q139 116 336 116t336 -116t139 -316q0 -164 -150 -288q43 -35 70 -62q27 -28 61 -98t33 -154z" />
    <glyph glyph-name="nine.osf" horiz-adv-x="1150" 
d="M743 758q0 88 -48 137t-120 49q-71 0 -119 -49t-48 -137t48 -137t120 -49t119 48q48 50 48 138zM1079 758q0 -139 -37 -250t-124 -272l-275 -504h-362l337 592q-47 -25 -143 -25q-163 0 -283 121t-120 344t144 347t359 124t359 -124t145 -353z" />
    <glyph glyph-name="zero.lf" 
d="M702 440v576q0 74 -38 112t-94 39q-58 0 -96 -39t-38 -112v-576q0 -74 38 -112t95 -37q57 -1 95 37t38 112zM1038 442q0 -214 -137 -334t-332 -120t-331 120t-138 334v574q0 215 138 335q138 119 332 119t331 -120t137 -334v-574z" />
    <glyph glyph-name="one.lf" horiz-adv-x="954" 
d="M760 0h-336v1100l-311 -271v359l311 270h336v-1458z" />
    <glyph glyph-name="two.lf" horiz-adv-x="1132" 
d="M1030 0h-938v303l529 574q73 80 73 148t-34 105t-93 37q-59 -1 -99 -33t-40 -108h-336q0 207 136 326q136 118 339 118t333 -118t130 -322q0 -106 -41 -180t-139 -178l-348 -369h528v-303z" />
    <glyph glyph-name="three.lf" horiz-adv-x="1118" 
d="M1032 428q0 -209 -139 -325t-346 -115q-279 0 -413 194q-73 106 -73 262h336q0 -74 42 -114t109 -39q68 0 108 40q40 41 40 111t-44 114t-111 44h-47v291h47q71 0 105 41q34 42 34 102t-39 96t-94 37q-55 0 -94 -37t-39 -100h-336q0 201 134 321q134 119 336 119
t335 -122t133 -310t-152 -284q168 -117 168 -326z" />
    <glyph glyph-name="four.lf" horiz-adv-x="1198" 
d="M1116 193h-108v-193h-320v193h-604v319l483 946h369l-483 -946h235v193h320v-193h108v-319z" />
    <glyph glyph-name="five.lf" horiz-adv-x="1163" 
d="M651 987q181 0 273 -92t118 -184t27 -221q0 -130 -29 -214t-106 -163q-125 -125 -341 -125t-343 127q-49 49 -78 110t-36 107t-13 112h336q16 -154 137 -153q57 0 97 40t40 161q0 120 -35 166t-86 46t-84 -13q-40 -17 -69 -91h-309v858h888v-303h-583v-225q74 57 196 57z
" />
    <glyph glyph-name="six.lf" horiz-adv-x="1114" 
d="M707 457q0 78 -43 122q-42 44 -106 44t-107 -44t-43 -122t43 -122t106 -44t107 44q43 44 43 122zM653 897q147 -1 268 -119t121 -331t-139 -336t-346 -123t-346 123t-139 346q0 121 63 263q23 52 76 161l281 577h368l-289 -571q29 10 82 10z" />
    <glyph glyph-name="seven.lf" horiz-adv-x="1163" 
d="M412 1155v-229h-320v532h1000v-303l-455 -1155h-369l455 1155h-311z" />
    <glyph glyph-name="eight.lf" horiz-adv-x="1179" 
d="M729 1028q0 57 -41 98t-98 41t-98 -41t-41 -98t41 -98t98 -41t98 41t41 98zM743 444q0 62 -45 108t-108 46q-62 0 -108 -45t-46 -109t45 -108q45 -45 109 -45t108 45q45 45 45 108zM1079 436q0 -217 -138 -333q-138 -115 -351 -115t-351 116t-139 332q0 84 34 155t61 97
t69 62q-150 125 -149 288q0 199 139 316q139 116 336 116t336 -116t139 -316q0 -164 -150 -288q43 -35 70 -62q27 -28 61 -98t33 -154z" />
    <glyph glyph-name="nine.lf" horiz-adv-x="1114" 
d="M707 1001q0 78 -43 122q-42 44 -106 44t-107 -44t-43 -122q0 -77 43 -121t106 -44t107 44t43 121zM1042 1001q0 -129 -65 -269q-25 -54 -74 -154l-280 -578h-369l289 571q-29 -10 -82 -10q-147 0 -268 119q-121 120 -121 332t139 336t346 122q207 0 346 -123t139 -346z
" />
    <glyph glyph-name="zero.tosf" 
d="M711 440v340q0 74 -38 113t-95 39q-58 0 -96 -39t-38 -113v-340q0 -74 38 -112t96 -37q58 -1 95 37q38 38 38 112zM1047 442q1 -214 -137 -334t-332 -120t-332 120q-137 120 -137 334v338q0 215 137 335t332 120q196 0 332 -120t137 -335v-338z" />
    <glyph glyph-name="one.tosf" 
d="M831 0h-335v864l-312 -270v358l312 271h335v-1223z" />
    <glyph glyph-name="two.tosf" 
d="M1057 0h-959v303l453 354q78 61 114 103q35 42 35 94q0 51 -34 85q-36 34 -94 34t-98 -33t-40 -109h-336q0 207 135 326t337 119t334 -114t132 -306q0 -113 -74 -206t-227 -212l-176 -135h498v-303z" />
    <glyph glyph-name="three.tosf" 
d="M1057 193q0 -209 -139 -325t-347 -116q-279 0 -412 195q-73 106 -73 262h336q0 -74 42 -114t108 -40t108 40q41 40 41 111t-44 115t-112 44h-47v290h47q70 0 105 41t35 102q0 62 -39 98q-38 36 -94 36t-95 -37t-39 -100h-336q0 201 134 321t336 119q202 0 335 -122
t133 -310t-151 -285q168 -116 168 -325z" />
    <glyph glyph-name="four.tosf" 
d="M1094 61h-109v-313h-319v313h-605v320l484 946h368l-483 -946h236v192h319v-192h109v-320z" />
    <glyph glyph-name="five.tosf" 
d="M1049 254q0 -129 -29 -213t-107 -164q-125 -125 -341 -125t-343 127q-49 49 -77 111t-36 106q-7 45 -14 113h336q16 -154 137 -154q57 0 97 40t41 161q0 121 -35 167t-115 46t-110 -71q-6 -13 -15 -33h-309v858h889v-303h-584v-226q74 57 197 58q180 0 282 -103
q82 -82 109 -174t27 -221z" />
    <glyph glyph-name="six.tosf" 
d="M737 465q0 88 -48 137t-120 49q-71 0 -119 -49t-48 -137t48 -137t120 -49t119 49q48 49 48 137zM670 924q162 0 282 -121t121 -344q0 -223 -144 -347q-143 -124 -359 -124t-360 124t-144 353q0 139 36 250q37 111 125 272l275 504h362l-338 -592q47 25 144 25z" />
    <glyph glyph-name="seven.tosf" 
d="M389 920v-230h-319v533h999v-303l-455 -1156h-368l454 1156h-311z" />
    <glyph glyph-name="eight.tosf" 
d="M709 1028q0 57 -41 98q-40 41 -98 41t-99 -41t-41 -98t41 -98t98 -41t99 41q41 41 41 98zM723 444q0 62 -45 108q-44 46 -108 46t-109 -45t-45 -109t45 -108q45 -45 108 -45t109 45q45 45 45 108zM1059 436q0 -217 -138 -333q-137 -115 -351 -115t-352 116t-138 332
q0 84 34 155t60 97t70 62q-150 125 -150 288q0 199 139 316q139 116 336 116t336 -116t139 -316q0 -164 -149 -288q43 -35 70 -62q27 -28 61 -98t33 -154z" />
    <glyph glyph-name="nine.tosf" 
d="M737 758q0 88 -48 137t-120 49q-71 0 -119 -49t-48 -137t48 -137t120 -49t119 48q48 50 48 138zM1073 758q0 -139 -37 -250t-125 -272l-274 -504h-363l338 592q-47 -25 -143 -25q-162 0 -283 121q-120 121 -120 344t144 347t359 124t359 -124t145 -353z" />
    <glyph glyph-name="uni2007.tosf" 
 />
    <glyph glyph-name="hyphen.case" horiz-adv-x="872" 
d="M772 571h-672v316h672v-316z" />
    <glyph glyph-name="exclamdown.case" horiz-adv-x="749" 
d="M506 1128h-344v330h344v-330zM545 0h-422l90 973h242z" />
    <glyph glyph-name="guillemotleft.case" horiz-adv-x="1376" 
d="M1253 174l-559 555l559 553v-395l-166 -158l166 -160v-395zM621 174l-560 555l560 553v-395l-162 -158l162 -160v-395z" />
    <glyph glyph-name="uni00AD.case" horiz-adv-x="872" 
d="M772 571h-672v316h672v-316z" />
    <glyph glyph-name="guillemotright.case" horiz-adv-x="1376" 
d="M682 729l-559 -555v395l164 160l-164 158v395zM1315 729l-559 -555v395l162 160l-162 158v395z" />
    <glyph glyph-name="questiondown.case" horiz-adv-x="1101" 
d="M684 1128h-344v330h344v-330zM979 420q0 -201 -132 -317q-132 -115 -326 -115q-195 0 -327 114t-133 316q0 127 105 262l141 178q37 45 37 96v19h336v-47q0 -129 -84 -228l-143 -168q-55 -63 -55 -116t31 -88q32 -35 91 -35q123 0 123 129h336z" />
    <glyph glyph-name="endash.case" 
d="M1038 571h-938v316h938v-316z" />
    <glyph glyph-name="emdash.case" horiz-adv-x="2238" 
d="M2138 567h-2038v324h2038v-324z" />
    <glyph glyph-name="afii00208.case" horiz-adv-x="2238" 
d="M2138 567h-2038v324h2038v-324z" />
    <glyph glyph-name="guilsinglleft.case" horiz-adv-x="743" 
d="M621 174l-560 555l560 553v-395l-162 -158l162 -160v-395z" />
    <glyph glyph-name="guilsinglright.case" horiz-adv-x="743" 
d="M682 729l-559 -555v395l164 160l-164 158v395z" />
    <glyph glyph-name="caroncomma.ss01" horiz-adv-x="1126" 
d="M1212 1561h285v-234l-285 -207v441z" />
    <glyph glyph-name="commaaccent.ss01" horiz-adv-x="589" 
d="M424 -272q0 -92 -66 -152t-174 -61v155q29 0 46 18t18 40q0 23 -18 40t-46 17v156q108 -1 174 -61t66 -152z" />
    <glyph glyph-name="commaturn.ss01" horiz-adv-x="589" 
d="M412 1214q-108 0 -174 60t-66 153t66 153t174 60v-155q-29 1 -46 -17q-18 -18 -18 -41t18 -39t46 -18v-156z" />
    <glyph glyph-name="exclam.ss01" horiz-adv-x="749" 
d="M610 188q0 -80 -57 -137t-137 -57t-137 57t-58 137t57 138t138 57q80 1 137 -57t57 -138zM627 1458l-90 -973h-242l-90 973h422z" />
    <glyph glyph-name="period.ss01" horiz-adv-x="630" 
d="M530 209q0 -91 -62 -153t-152 -62t-153 62t-63 152t62 153t153 63t153 -62t62 -153z" />
    <glyph glyph-name="colon.ss01" horiz-adv-x="677" 
d="M578 209q0 -91 -64 -153t-152 -62t-151 62t-63 152t62 153q64 63 152 63t152 -62t64 -153zM578 721q0 -91 -64 -153t-152 -62t-151 62t-63 152t62 153q64 63 152 63t152 -62t64 -153z" />
    <glyph glyph-name="semicolon.ss01" horiz-adv-x="649" 
d="M578 721q0 -91 -64 -153t-152 -62t-151 62t-63 152t62 153q64 63 152 63t152 -62t64 -153zM184 356h357v-458l-357 -263v721z" />
    <glyph glyph-name="question.ss01" horiz-adv-x="1101" 
d="M784 188q0 -80 -57 -137t-137 -57t-137 57t-58 137t57 138t138 57q80 1 137 -57t57 -138zM1040 1040q0 -127 -104 -262l-141 -178q-37 -45 -37 -96v-19h-336v47q0 129 84 228l143 168q55 63 55 116q0 52 -31 88q-32 36 -91 35q-123 0 -123 -129h-336q0 201 132 317
q132 115 326 115q195 0 327 -114t132 -316z" />
    <glyph glyph-name="at.ss01" horiz-adv-x="2007" 
d="M1114 659q0 100 -88 101q-49 0 -92 -36q-42 -36 -62 -140t-20 -142q0 -100 88 -100q55 0 86 29q48 43 68 146t20 142zM1919 713q0 -257 -179 -441t-456 -184h-260l16 84q-102 -96 -229 -96t-203 79t-76 187q0 61 32 223t63 241t102 140q89 80 233 80t218 -88l14 76h305
l-147 -738q164 16 246 140t83 297q0 248 -161 392q-162 144 -456 144t-504 -205t-210 -507q0 -341 195 -521t545 -180h184l-41 -205h-186q-432 0 -690 251q-257 252 -257 654t280 668t701 266q375 0 607 -212t231 -545z" />
    <glyph glyph-name="C.ss01" horiz-adv-x="1120" 
d="M652 -12q-243 0 -402 159q-110 110 -130 252q-20 141 -20 295t3 213t15 143q22 149 132 261q160 159 402 159t405 -161l-238 -238q-52 52 -89 66q-38 14 -77 14q-92 0 -139 -61q-29 -37 -42 -108t-13 -253t13 -253t42 -107q47 -61 139 -62q55 1 89 19t77 61l238 -237
q-162 -162 -405 -162z" />
    <glyph glyph-name="G.ss01" horiz-adv-x="1296" 
d="M1210 643q0 -182 -32 -294t-111 -193q-164 -168 -411 -168t-406 159q-110 110 -130 252q-20 141 -20 295t3 213t15 143q22 149 132 261q160 160 403 159q154 0 252 -40t199 -140l-244 -243q-57 57 -99 81t-121 23q-79 0 -128 -64q-29 -37 -41 -105t-12 -253
q0 -184 12 -254t41 -106q47 -61 141 -61q93 0 147 54q54 56 54 162v17h-201v299h557v-197z" />
    <glyph glyph-name="i.ss01" horiz-adv-x="589" 
d="M500 1356q0 -84 -60 -144t-145 -61q-84 0 -144 60q-61 61 -61 145t60 144t145 60t145 -60t60 -144zM463 0h-336v1059h336v-1059z" />
    <glyph glyph-name="j.ss01" horiz-adv-x="589" 
d="M500 1356q0 -84 -60 -144t-145 -61q-84 0 -144 60q-61 61 -61 145t60 144t145 60t145 -60t60 -144zM463 -43q0 -129 -86 -227t-256 -99h-178v283h116q68 0 68 68v1077h336v-1102z" />
    <glyph glyph-name="exclamdown.ss01" horiz-adv-x="749" 
d="M610 913q0 -80 -57 -137t-137 -57t-137 57t-58 137q-1 79 57 137t138 58t137 -58t57 -137zM627 -356h-422l90 972h242z" />
    <glyph glyph-name="dieresis.ss01" horiz-adv-x="1024" 
d="M915 1393q0 -68 -48 -116q-47 -48 -115 -48t-116 48t-48 116q0 67 48 115t116 48t116 -48t47 -115zM436 1393q0 -68 -48 -116t-116 -48t-116 48t-47 116q0 67 48 115q47 48 115 48t116 -48t48 -115z" />
    <glyph glyph-name="periodcentered.ss01" horiz-adv-x="630" 
d="M530 604q0 -88 -62 -151t-152 -63t-153 62q-62 64 -63 152q0 88 62 152t153 63q90 0 153 -63q62 -64 62 -152z" />
    <glyph glyph-name="cedilla.ss01" horiz-adv-x="1024" 
d="M672 -272q0 -92 -66 -152t-174 -61v155q29 0 46 18t18 40q0 23 -18 40t-46 17v156q108 -1 174 -61t66 -152z" />
    <glyph glyph-name="questiondown.ss01" horiz-adv-x="1101" 
d="M768 913q0 -80 -57 -137t-137 -57t-138 57q-57 57 -57 137q0 79 57 137t137 58t138 -57q57 -58 57 -138zM1040 63q0 -201 -132 -317t-326 -115q-194 0 -326 114q-133 114 -133 316q0 127 104 263l142 178q37 45 37 96v18h335v-47q0 -129 -84 -227l-143 -168
q-55 -62 -55 -116q-1 -54 31 -89t92 -35q123 0 123 129h335z" />
    <glyph glyph-name="Adieresis.ss01" horiz-adv-x="1337" 
d="M592 1745q0 -68 -48 -116t-116 -48t-116 48t-48 116t48 116t116 48t116 -48t48 -116zM1071 1745q0 -68 -48 -116t-116 -48q-67 0 -115 48t-49 116q1 68 49 116t116 48t115 -48q48 -48 48 -116zM801 516l-123 389l-131 -389h254zM1337 0h-374l-68 217h-449l-71 -217h-375
l530 1458h277z" />
    <glyph glyph-name="Ccedilla.ss01" horiz-adv-x="1120" 
d="M743 -272q0 -92 -65 -153q-66 -60 -174 -60v155q29 0 46 18t17 40q0 23 -17 40t-46 17v156q109 -1 174 -61t65 -152zM652 -12q-243 0 -402 159q-110 110 -130 252q-20 141 -20 295t3 213t15 143q22 149 132 261q160 159 402 159t405 -161l-238 -238q-52 52 -89 66
q-38 14 -77 14q-92 0 -139 -61q-29 -37 -42 -108t-13 -253t13 -253t42 -107q47 -61 139 -62q55 1 89 19t77 61l238 -237q-162 -162 -405 -162z" />
    <glyph glyph-name="Edieresis.ss01" horiz-adv-x="1245" 
d="M555 1745q0 -68 -48 -116t-116 -48t-116 48t-48 116t48 116t116 48t116 -48t48 -116zM1034 1745q0 -68 -48 -116t-116 -48t-116 48t-47 116q0 68 48 116q47 48 115 48t116 -48t48 -116zM1139 0h-992v1458h992v-319h-633v-244h541v-320h-541v-256h633v-319z" />
    <glyph glyph-name="Idieresis.ss01" horiz-adv-x="653" 
d="M248 1745q0 -68 -48 -116t-116 -48t-116 48t-48 116t48 116t116 48t116 -48t48 -116zM727 1745q0 -68 -48 -116t-116 -48t-116 48t-48 116t48 116t116 48t116 -48t48 -116zM506 0h-359v1458h359v-1458z" />
    <glyph glyph-name="Odieresis.ss01" horiz-adv-x="1310" 
d="M580 1745q0 -68 -48 -116t-116 -48t-116 48t-48 116t48 116t116 48t116 -48t48 -116zM1059 1745q0 -68 -48 -116t-116 -48t-116 48t-48 116t48 116t116 48t116 -48t48 -116zM852 729q0 184 -12 253q-29 167 -184 168t-185 -168q-12 -69 -12 -253t12 -252
q30 -170 184 -170t185 170q12 68 12 252zM100 694q0 154 3 213t15 143q22 149 132 261q160 159 406 159t405 -159q110 -110 129 -248q20 -137 20 -295t-3 -217q-10 -195 -51 -272q-42 -78 -95 -132q-160 -159 -406 -159t-405 159q-110 110 -130 252q-20 141 -20 295z" />
    <glyph glyph-name="Udieresis.ss01" horiz-adv-x="1351" 
d="M600 1745q0 -68 -48 -116t-116 -48t-116 48t-48 116t48 116t116 48t116 -48t48 -116zM1079 1745q0 -68 -48 -116t-116 -48q-67 0 -115 48t-48 116t48 116t116 48t115 -48q48 -48 48 -116zM1229 512q0 -232 -161 -378t-394 -146t-392 145t-159 379v946h358v-938
q0 -100 51 -156q52 -56 142 -56t143 56t53 156v938h359v-946z" />
    <glyph glyph-name="adieresis.ss01" horiz-adv-x="1097" 
d="M469 1393q0 -68 -48 -116t-116 -48t-116 48t-48 116q0 67 48 115t116 48t116 -48t48 -115zM948 1393q0 -68 -48 -116t-116 -48t-116 48t-47 116q0 67 48 115q47 48 115 48t116 -48t48 -115zM377 352q-1 -90 129 -90q68 0 108 36t39 116v28h-159q-117 0 -117 -90zM989 0
h-327v90q-54 -53 -108 -77t-138 -23q-166 0 -263 97t-97 245t96 241q96 92 284 93h217v28q0 74 -39 106t-131 32t-170 -78l-209 209q84 83 172 117t228 34q485 0 485 -399v-715z" />
    <glyph glyph-name="ccedilla.ss01" horiz-adv-x="972" 
d="M672 -272q0 -92 -66 -152t-174 -61v155q29 0 46 18t18 40q0 23 -18 40t-46 17v156q108 -1 174 -61t66 -152zM414 551q0 -260 159 -260q70 0 136 65l227 -227q-141 -141 -363 -141q-144 0 -235 48q-92 48 -142 107t-84 165t-34 242q0 138 34 244t85 164q135 156 366 156
t373 -141l-227 -228q-66 66 -136 66q-159 0 -159 -260z" />
    <glyph glyph-name="edieresis.ss01" horiz-adv-x="1144" 
d="M504 1393q0 -68 -48 -116t-116 -48t-116 48t-48 116q0 67 48 115t116 48t116 -48t48 -115zM983 1393q0 -68 -48 -116t-116 -48t-116 48t-48 116q0 67 48 115t116 48t116 -48t48 -115zM735 666q0 47 -18 86q-39 86 -145 86t-146 -86q-18 -39 -18 -86h327zM1067 442h-659
q0 -72 52 -122t138 -50t134 22t97 70l201 -200q-90 -90 -186 -132t-242 -42q-524 0 -524 563q0 264 136 414q136 149 363 149t359 -148t131 -384v-140z" />
    <glyph glyph-name="idieresis.ss01" horiz-adv-x="589" 
d="M225 1393q0 -68 -48 -116t-116 -48q-67 0 -115 48t-48 116q0 67 48 115t116 48t115 -48q48 -48 48 -115zM705 1393q-1 -68 -49 -116t-116 -48t-115 48q-48 48 -48 116q0 67 48 115t116 48t116 -48t48 -115zM463 0h-336v1059h336v-1059z" />
    <glyph glyph-name="odieresis.ss01" horiz-adv-x="1126" 
d="M487 1393q0 -68 -48 -116q-47 -48 -115 -48t-116 48t-48 116q0 67 48 115t116 48t116 -48t47 -115zM967 1393q0 -68 -48 -116t-116 -48t-116 48t-48 116q0 67 48 115t116 48t116 -48t48 -115zM702 551q0 180 -49 229q-31 31 -90 31t-90 -31q-49 -49 -49 -229t49 -229
q31 -31 90 -31t90 31q49 49 49 229zM1038 550q0 -163 -26 -254t-94 -167q-132 -141 -354 -141t-355 141q-70 76 -95 167q-26 91 -26 254t27 256t94 167q133 141 354 141t355 -141q68 -74 94 -167t26 -256z" />
    <glyph glyph-name="divide.ss01" 
d="M784 147q0 -90 -62 -152q-62 -63 -152 -63t-153 62q-62 62 -63 153q0 91 62 153t153 62q90 0 153 -62q62 -63 62 -153zM784 1061q0 -91 -62 -153t-152 -62t-153 62t-63 152t62 153t153 63t153 -62t62 -153zM1051 446h-963v316h963v-316z" />
    <glyph glyph-name="udieresis.ss01" horiz-adv-x="1185" 
d="M512 1393q0 -68 -48 -116t-116 -48t-116 48t-48 116q0 67 48 115t116 48t116 -48t48 -115zM991 1393q0 -68 -48 -116t-116 -48q-67 0 -115 48t-48 116q0 67 48 115t116 48t115 -48q48 -48 48 -115zM1059 0h-328v90q-102 -102 -256 -102q-155 0 -257 102t-101 307v705h336
v-660q0 -84 43 -118t92 -33q49 0 92 34t43 117v660h336v-1102z" />
    <glyph glyph-name="ydieresis.ss01" horiz-adv-x="1052" 
d="M930 1393q0 -68 -48 -116t-116 -48t-116 48t-48 116q0 67 48 115t116 48t116 -48t48 -115zM451 1393q-1 -68 -49 -116t-116 -48t-115 48q-48 48 -48 116q0 67 48 115t116 48t116 -48t48 -115zM152 -369v303h71q47 0 72 16t41 66l31 93l-367 993h352l187 -572l178 572h352
l-457 -1233q-33 -92 -86 -145q-86 -92 -247 -93h-127z" />
    <glyph glyph-name="Aogonek.ss01" horiz-adv-x="1337" 
d="M1309 -485q-109 0 -175 60q-66 61 -65 153q0 92 66 152t174 61v-156q-29 0 -46 -17t-17 -40t16 -40q18 -17 47 -18v-155zM801 516l-123 389l-131 -389h254zM1337 0h-374l-68 217h-449l-71 -217h-375l530 1458h277z" />
    <glyph glyph-name="aogonek.ss01" horiz-adv-x="1097" 
d="M954 -485q-108 0 -174 60q-66 61 -66 153t66 152t174 61v-156q-29 0 -46 -17t-17 -40t17 -40t46 -18v-155zM377 352q-1 -90 129 -90q68 0 108 36t39 116v28h-159q-117 0 -117 -90zM989 0h-327v90q-54 -53 -108 -77t-138 -23q-166 0 -263 97t-97 245t96 241q96 92 284 93
h217v28q0 74 -39 106t-131 32t-170 -78l-209 209q84 83 172 117t228 34q485 0 485 -399v-715z" />
    <glyph glyph-name="Cacute.ss01" horiz-adv-x="1120" 
d="M891 1970l-207 -368h-240l134 368h313zM652 -12q-243 0 -402 159q-110 110 -130 252q-20 141 -20 295t3 213t15 143q22 149 132 261q160 159 402 159t405 -161l-238 -238q-52 52 -89 66q-38 14 -77 14q-92 0 -139 -61q-29 -37 -42 -108t-13 -253t13 -253t42 -107
q47 -61 139 -62q55 1 89 19t77 61l238 -237q-162 -162 -405 -162z" />
    <glyph glyph-name="Ccircumflex.ss01" horiz-adv-x="1120" 
d="M1065 1602h-250l-162 170l-161 -170h-250l278 366h266zM652 -12q-243 0 -402 159q-110 110 -130 252q-20 141 -20 295t3 213t15 143q22 149 132 261q160 159 402 159t405 -161l-238 -238q-52 52 -89 66q-38 14 -77 14q-92 0 -139 -61q-29 -37 -42 -108t-13 -253t13 -253
t42 -107q47 -61 139 -62q55 1 89 19t77 61l238 -237q-162 -162 -405 -162z" />
    <glyph glyph-name="Cdotaccent.ss01" horiz-adv-x="1120" 
d="M817 1749q0 -68 -48 -116t-116 -48q-67 0 -115 48t-49 116q1 68 49 116t116 48t115 -48q48 -48 48 -116zM652 -12q-243 0 -402 159q-110 110 -130 252q-20 141 -20 295t3 213t15 143q22 149 132 261q160 159 402 159t405 -161l-238 -238q-52 52 -89 66q-38 14 -77 14
q-92 0 -139 -61q-29 -37 -42 -108t-13 -253t13 -253t42 -107q47 -61 139 -62q55 1 89 19t77 61l238 -237q-162 -162 -405 -162z" />
    <glyph glyph-name="cdotaccent.ss01" horiz-adv-x="972" 
d="M737 1397q0 -68 -48 -116t-116 -48q-67 0 -115 48t-48 116q0 67 48 115t116 48t115 -47q48 -48 48 -116zM414 551q0 -260 159 -260q70 0 136 65l227 -227q-141 -141 -363 -141q-144 0 -235 48q-92 48 -142 107t-84 165t-34 242q0 138 34 244t85 164q135 156 366 156
t373 -141l-227 -228q-66 66 -136 66q-159 0 -159 -260z" />
    <glyph glyph-name="Ccaron.ss01" horiz-adv-x="1120" 
d="M1065 1968l-279 -366h-266l-278 366h250l161 -170l162 170h250zM652 -12q-243 0 -402 159q-110 110 -130 252q-20 141 -20 295t3 213t15 143q22 149 132 261q160 159 402 159t405 -161l-238 -238q-52 52 -89 66q-38 14 -77 14q-92 0 -139 -61q-29 -37 -42 -108t-13 -253
t13 -253t42 -107q47 -61 139 -62q55 1 89 19t77 61l238 -237q-162 -162 -405 -162z" />
    <glyph glyph-name="dcaron.ss01" horiz-adv-x="1165" 
d="M1212 1561h285v-234l-285 -207v441zM741 551q0 137 -26 199q-27 61 -113 61t-113 -61q-27 -60 -27 -198t27 -200q27 -61 113 -61t113 61q26 62 26 199zM1077 0h-325v90q-102 -102 -263 -102t-258 100q-47 49 -71 130q-25 81 -29 147q-4 67 -4 187t4 186t29 146
q71 230 336 230q154 0 245 -92v436h336v-1458z" />
    <glyph glyph-name="Edotaccent.ss01" horiz-adv-x="1245" 
d="M784 1749q0 -68 -48 -116t-116 -48t-115 48q-48 48 -48 116t48 116t116 48q67 0 115 -48t48 -116zM1139 0h-992v1458h992v-319h-633v-244h541v-320h-541v-256h633v-319z" />
    <glyph glyph-name="edotaccent.ss01" horiz-adv-x="1144" 
d="M743 1397q0 -68 -48 -116q-47 -48 -115 -48t-116 48t-48 116q0 67 48 115t116 48t116 -47q48 -48 47 -116zM735 666q0 47 -18 86q-39 86 -145 86t-146 -86q-18 -39 -18 -86h327zM1067 442h-659q0 -72 52 -122t138 -50t134 22t97 70l201 -200q-90 -90 -186 -132t-242 -42
q-524 0 -524 563q0 264 136 414q136 149 363 149t359 -148t131 -384v-140z" />
    <glyph glyph-name="Eogonek.ss01" horiz-adv-x="1245" 
d="M1087 -485q-109 0 -175 60q-66 61 -64 153q0 92 65 152q66 60 174 61v-156q-29 0 -46 -17t-17 -40t17 -40t46 -18v-155zM1139 0h-992v1458h992v-319h-633v-244h541v-320h-541v-256h633v-319z" />
    <glyph glyph-name="eogonek.ss01" horiz-adv-x="1144" 
d="M948 -485q-108 0 -174 60q-66 61 -66 153t66 152t174 61v-156q-29 0 -46 -17t-17 -40t17 -40t46 -18v-155zM735 666q0 47 -18 86q-39 86 -145 86t-146 -86q-18 -39 -18 -86h327zM1067 442h-659q0 -72 52 -122t138 -50t134 22t97 70l201 -200q-90 -90 -186 -132t-242 -42
q-524 0 -524 563q0 264 136 414q136 149 363 149t359 -148t131 -384v-140z" />
    <glyph glyph-name="Gcircumflex.ss01" horiz-adv-x="1296" 
d="M1065 1602h-250l-162 170l-161 -170h-250l278 366h266zM1210 643q0 -182 -32 -294t-111 -193q-164 -168 -411 -168t-406 159q-110 110 -130 252q-20 141 -20 295t3 213t15 143q22 149 132 261q160 160 403 159q154 0 252 -40t199 -140l-244 -243q-57 57 -99 81t-121 23
q-79 0 -128 -64q-29 -37 -41 -105t-12 -253q0 -184 12 -254t41 -106q47 -61 141 -61q93 0 147 54q54 56 54 162v17h-201v299h557v-197z" />
    <glyph glyph-name="Gbreve.ss01" horiz-adv-x="1296" 
d="M654 1585q-136 0 -234 77t-103 245h218q9 -97 119 -97t118 97h217q-4 -168 -102 -245q-97 -77 -233 -77zM1210 643q0 -182 -32 -294t-111 -193q-164 -168 -411 -168t-406 159q-110 110 -130 252q-20 141 -20 295t3 213t15 143q22 149 132 261q160 160 403 159
q154 0 252 -40t199 -140l-244 -243q-57 57 -99 81t-121 23q-79 0 -128 -64q-29 -37 -41 -105t-12 -253q0 -184 12 -254t41 -106q47 -61 141 -61q93 0 147 54q54 56 54 162v17h-201v299h557v-197z" />
    <glyph glyph-name="Gdotaccent.ss01" horiz-adv-x="1296" 
d="M817 1749q0 -68 -48 -116t-116 -48q-67 0 -115 48t-49 116q1 68 49 116t116 48t115 -48q48 -48 48 -116zM1210 643q0 -182 -32 -294t-111 -193q-164 -168 -411 -168t-406 159q-110 110 -130 252q-20 141 -20 295t3 213t15 143q22 149 132 261q160 160 403 159
q154 0 252 -40t199 -140l-244 -243q-57 57 -99 81t-121 23q-79 0 -128 -64q-29 -37 -41 -105t-12 -253q0 -184 12 -254t41 -106q47 -61 141 -61q93 0 147 54q54 56 54 162v17h-201v299h557v-197z" />
    <glyph glyph-name="gdotaccent.ss01" horiz-adv-x="1148" 
d="M719 1397q0 -68 -48 -116t-116 -48t-116 48t-48 116q0 67 48 115t116 48t116 -47q48 -48 48 -116zM442 741q-18 -52 -18 -126t3 -106t15 -67t40 -52t73 -17q89 0 113 69q18 52 18 150t-15 141q-27 78 -116 78q-90 0 -113 -70zM1022 80q0 -197 -137 -323t-361 -126
q-137 0 -235 32t-178 112l208 209q69 -70 177 -70t149 51t41 117v80q-92 -92 -244 -92t-252 98q-70 70 -86 158t-16 266t16 266t86 158q98 98 251 98t255 -102v90h326v-1022z" />
    <glyph glyph-name="Gcommaaccent.ss01" horiz-adv-x="1296" 
d="M752 -272q0 -92 -66 -152t-174 -61v155q29 0 46 18t17 40q0 23 -17 40t-46 17v156q108 -1 174 -61t66 -152zM1210 643q0 -182 -32 -294t-111 -193q-164 -168 -411 -168t-406 159q-110 110 -130 252q-20 141 -20 295t3 213t15 143q22 149 132 261q160 160 403 159
q154 0 252 -40t199 -140l-244 -243q-57 57 -99 81t-121 23q-79 0 -128 -64q-29 -37 -41 -105t-12 -253q0 -184 12 -254t41 -106q47 -61 141 -61q93 0 147 54q54 56 54 162v17h-201v299h557v-197z" />
    <glyph glyph-name="gcommaaccent.ss01" horiz-adv-x="1148" 
d="M698 1214q-108 0 -174 60t-65 153q0 92 65 153q66 60 174 60v-155q-29 1 -46 -17t-17 -41t17 -39t46 -18v-156zM442 741q-18 -52 -18 -126t3 -106t15 -67t40 -52t73 -17q89 0 113 69q18 52 18 150t-15 141q-27 78 -116 78q-90 0 -113 -70zM1022 80q0 -197 -137 -323
t-361 -126q-137 0 -235 32t-178 112l208 209q69 -70 177 -70t149 51t41 117v80q-92 -92 -244 -92t-252 98q-70 70 -86 158t-16 266t16 266t86 158q98 98 251 98t255 -102v90h326v-1022z" />
    <glyph glyph-name="Iogonek.ss01" horiz-adv-x="653" 
d="M465 -485q-109 0 -175 60q-66 61 -65 153q0 92 66 152t174 61v-156q-29 0 -46 -17t-17 -40t16 -40q18 -17 47 -18v-155zM506 0h-359v1458h359v-1458z" />
    <glyph glyph-name="iogonek.ss01" horiz-adv-x="589" 
d="M422 -485q-108 0 -174 60q-66 61 -66 153t66 152t174 61v-156q-29 0 -46 -17q-18 -17 -18 -40t18 -40t46 -18v-155zM500 1356q0 -84 -60 -144t-145 -61q-84 0 -144 60q-61 61 -61 145t60 144t145 60t145 -60t60 -144zM463 0h-336v1059h336v-1059z" />
    <glyph glyph-name="Idotaccent.ss01" horiz-adv-x="653" 
d="M492 1749q0 -68 -48 -116t-116 -48t-116 48t-48 116t48 116t116 48t116 -48t48 -116zM506 0h-359v1458h359v-1458z" />
    <glyph glyph-name="ij.ss01" horiz-adv-x="1179" 
d="M1090 1356q0 -84 -60 -144t-145 -61q-84 0 -145 60q-60 61 -60 145t60 144t144 60t146 -60q60 -60 60 -144zM1053 -43q0 -129 -86 -227t-256 -99h-179v283h117q68 0 68 68v1077h336v-1102zM500 1356q0 -84 -60 -144t-145 -61q-84 0 -144 60q-61 61 -61 145t60 144t145 60
t145 -60t60 -144zM463 0h-336v1059h336v-1059z" />
    <glyph glyph-name="Kcommaaccent.ss01" horiz-adv-x="1378" 
d="M819 -272q0 -92 -65 -153q-66 -60 -174 -60v155q29 0 46 18t17 40q0 23 -17 40t-46 17v156q109 -1 174 -61t65 -152zM502 0h-355v1458h355v-516l422 516h438l-498 -590l514 -868h-417l-336 598l-123 -141v-457z" />
    <glyph glyph-name="kcommaaccent.ss01" horiz-adv-x="1173" 
d="M723 -272q0 -92 -66 -152t-174 -61v155q29 0 46 18t18 40q1 23 -17 40t-47 17v156q109 -1 175 -61t65 -152zM463 0h-336v1458h336v-741l297 385h403l-405 -457l416 -645h-416l-230 403l-65 -71v-332z" />
    <glyph glyph-name="Lcommaaccent.ss01" horiz-adv-x="1179" 
d="M762 -272q0 -92 -66 -152t-174 -61v155q29 0 46 18t18 40q0 23 -18 40t-46 17v156q108 -1 174 -61t66 -152zM1118 0h-971v1458h359v-1139h612v-319z" />
    <glyph glyph-name="lcommaaccent.ss01" horiz-adv-x="698" 
d="M500 -272q0 -92 -66 -152t-174 -61v155q29 0 46 18t18 40q0 23 -18 40t-46 17v156q108 -1 174 -61t66 -152zM637 0h-178q-170 0 -256 98t-86 228v1132h336v-1108q0 -68 67 -67h117v-283z" />
    <glyph glyph-name="Lcaron.ss01" horiz-adv-x="1179" 
d="M731 1458h285v-233l-285 -207v440zM1118 0h-971v1458h359v-1139h612v-319z" />
    <glyph glyph-name="lcaron.ss01" horiz-adv-x="698" 
d="M627 1561h284v-234l-284 -207v441zM637 0h-178q-170 0 -256 98t-86 228v1132h336v-1108q0 -68 67 -67h117v-283z" />
    <glyph glyph-name="Ldot.ss01" horiz-adv-x="1179" 
d="M1118 0h-971v1458h359v-1139h612v-319zM1071 735q0 -67 -48 -115t-116 -48q-67 0 -115 48t-48 116t48 115q48 48 116 48t115 -48q48 -48 48 -116z" />
    <glyph glyph-name="ldot.ss01" horiz-adv-x="894" 
d="M637 0h-178q-170 0 -256 98t-86 228v1132h336v-1108q0 -68 67 -67h117v-283zM924 604q0 -68 -48 -116t-116 -48t-116 48t-48 116t48 116t116 48t116 -48t48 -116z" />
    <glyph glyph-name="Ncommaaccent.ss01" horiz-adv-x="1433" 
d="M821 -272q0 -92 -65 -153q-66 -60 -174 -60v155q29 0 46 18t17 40q0 23 -17 40t-46 17v156q109 -1 174 -61t65 -152zM1286 0h-313l-467 733v-733h-359v1458h314l467 -733v733h358v-1458z" />
    <glyph glyph-name="ncommaaccent.ss01" horiz-adv-x="1185" 
d="M723 -272q0 -92 -66 -152t-174 -61v155q29 0 46 18t18 40q1 23 -17 40t-47 17v156q109 -1 175 -61t65 -152zM1069 0h-336v659q0 84 -43 118t-92 34t-92 -34t-43 -118v-659h-336v1102h328v-90q102 102 256 102t247 -94q111 -111 111 -315v-705z" />
    <glyph glyph-name="Rcommaaccent.ss01" horiz-adv-x="1335" 
d="M793 -272q0 -92 -66 -152t-174 -61v155q29 0 46 18t17 40q0 23 -17 40t-46 17v156q109 -1 175 -61t65 -152zM864 989q0 59 -43 103t-112 45h-203v-295h203q71 0 113 44t42 103zM506 543v-543h-359v1458h578q231 0 365 -138t133 -331q0 -137 -70 -234t-168 -147l315 -608
h-415l-258 543h-121z" />
    <glyph glyph-name="rcommaaccent.ss01" horiz-adv-x="972" 
d="M436 -272q0 -92 -65 -153q-66 -60 -174 -60v155q29 0 46 18t17 40q0 23 -17 40t-46 17v156q109 -1 174 -61t65 -152zM606 811q-56 0 -99 -35q-44 -35 -44 -117v-659h-336v1102h328v-90q102 102 259 102t259 -102l-254 -258q-57 57 -113 57z" />
    <glyph glyph-name="Scedilla.ss01" horiz-adv-x="1214" 
d="M741 -272q0 -92 -65 -153q-66 -60 -174 -60v155q29 0 46 18t17 40q0 23 -17 40t-46 17v156q109 -1 174 -61t65 -152zM1126 445q0 -213 -160 -335t-403 -122q-180 0 -314 42t-239 150l230 230q102 -102 318 -102t216 130q0 55 -29 86q-31 31 -96 39l-176 25
q-195 29 -294 130t-99 298q0 198 144 326t388 128q317 0 492 -174l-225 -225q-53 53 -115 69t-156 17q-92 0 -137 -41t-45 -87t32 -78t97 -40l176 -24q193 -27 294 -127t101 -315z" />
    <glyph glyph-name="scedilla.ss01" horiz-adv-x="1032" 
d="M670 -272q0 -92 -66 -152t-174 -61v155q29 0 46 18t18 40q0 23 -18 40t-46 17v156q108 -1 174 -61t66 -152zM977 360q0 -184 -135 -278t-342 -94q-102 0 -168 7t-153 44t-159 108l218 218q92 -92 268 -93q51 0 97 16t46 56q0 61 -80 70l-170 16q-319 31 -319 320
q0 172 130 268t308 96q299 0 434 -135l-207 -207q-66 66 -233 66q-55 0 -82 -20t-27 -44q0 -53 72 -61l170 -17q166 -16 249 -106t83 -230z" />
    <glyph glyph-name="Tcommaaccent.ss01" horiz-adv-x="1198" 
d="M700 -272q0 -92 -65 -153q-66 -60 -174 -60v155q29 0 46 18t17 40q0 23 -17 40t-46 17v156q109 -1 174 -61t65 -152zM1137 1139h-359v-1139h-358v1139h-359v319h1076v-319z" />
    <glyph glyph-name="tcommaaccent.ss01" horiz-adv-x="743" 
d="M516 -272q0 -92 -65 -153q-66 -60 -175 -60v155q28 0 46 18t18 40q0 23 -17 40t-47 17v156q108 -1 174 -61t66 -152zM662 0h-168q-170 0 -256 98t-86 228v475h-101v258h101v315h335v-315h175v-258h-175v-451q0 -68 68 -67h107v-283z" />
    <glyph glyph-name="tcaron.ss01" horiz-adv-x="743" 
d="M641 1561h285v-234l-285 -207v441zM662 0h-168q-170 0 -256 98t-86 228v475h-101v258h101v315h335v-315h175v-258h-175v-451q0 -68 68 -67h107v-283z" />
    </font>
</defs>
</svg>
